<svg width="235.000000" height="25.000000" viewBox="0 0 235 25" fill="none" xmlns="http://www.w3.org/2000/svg" xmlns:xlink="http://www.w3.org/1999/xlink">
	<desc>
			Created with Pixso.
	</desc>
	<defs/>
	<path id="coffeeroasters" d="M42.6593 23.2397C41.6814 23.7134 40.5405 23.9502 39.2366 23.9502Q37.2968 23.9502 35.7362 23.1812L35.7352 23.1807Q35.6311 23.1294 35.5287 23.0742Q34.861 22.7173 34.3084 22.23Q33.5053 21.521 32.9453 20.5371Q32 18.876 32 16.4961Q32 14.3687 32.8451 12.6597Q32.9129 12.5229 32.9861 12.3887Q33.4992 11.4468 34.222 10.7104Q34.8881 10.0322 35.7324 9.52881Q35.8161 9.479 35.9012 9.43164Q37.6043 8.47949 39.8397 8.47949Q41.8444 8.47949 43.2216 9.07422Q44.5989 9.66943 45.3242 10.686Q45.6752 11.1777 45.8564 11.7261Q46.0495 12.3105 46.0495 12.9585Q46.0495 14.0669 45.517 14.7749L45.5169 14.7749Q45.4141 14.9116 45.2916 15.0332Q45.1584 15.165 45.0083 15.2739Q44.3045 15.7852 43.2298 15.7852Q42.0858 15.7852 41.4135 15.2222Q41.3004 15.1274 41.2006 15.0166C40.7388 14.5039 40.5079 13.8018 40.5079 12.9092L40.5079 11.8511Q40.5079 11.0415 40.2145 10.6279C40.019 10.3525 39.7419 10.2148 39.3833 10.2148Q39.2324 10.2148 39.0898 10.2495Q38.7243 10.3379 38.4135 10.6528C38.1256 10.9448 37.9028 11.3828 37.7453 11.9668Q37.5089 12.8428 37.5089 14.1323C37.5089 15.3662 37.691 16.4023 38.055 17.2397C38.419 18.0771 38.9161 18.7051 39.5463 19.124Q39.8488 19.3247 40.1779 19.4614Q40.8775 19.752 41.6977 19.752C42.5018 19.752 43.1755 19.6338 43.7188 19.3965C44.262 19.1597 44.6804 18.7603 44.9737 18.1982C45.1367 18.0439 45.2644 17.9448 45.3568 17.9009C45.4491 17.8569 45.5388 17.8345 45.6257 17.8345C45.7344 17.8457 45.824 17.8979 45.8946 17.9917C45.9558 18.0728 45.9864 18.1934 45.9864 18.353C45.9864 18.3779 45.9857 18.4033 45.9843 18.4297C45.8973 19.5098 45.5659 20.4629 44.99 21.2891C44.4142 22.1157 43.6373 22.7656 42.6593 23.2397ZM59.2269 22.9092C58.0045 23.5811 56.5838 23.9175 54.9648 23.9175Q52.6015 23.9175 50.8168 22.9341Q49.8107 22.3794 49.0557 21.5859Q48.4716 20.9722 48.0379 20.2148Q48.0056 20.1582 47.9743 20.1016Q47.0437 18.4053 47.0437 16.1982Q47.0437 14.5693 47.6252 13.1846Q47.8225 12.7144 48.0868 12.2729C48.7822 11.1104 49.7438 10.1875 50.9717 9.50391Q51.0118 9.48193 51.0522 9.45996Q52.8656 8.47949 55.2093 8.47949Q57.5889 8.47949 59.3655 9.47119C60.5499 10.1323 61.4734 11.0469 62.1362 12.2148C62.7991 13.3828 63.1305 14.7329 63.1305 16.2646C63.1305 17.7192 62.7855 19.022 62.0955 20.1733C61.4055 21.3252 60.4493 22.2368 59.2269 22.9092ZM56.2035 22.1982C55.8667 22.2646 55.538 22.1157 55.2175 21.752C54.8969 21.3887 54.5927 20.7769 54.3047 19.9175Q53.8728 18.6279 53.4817 16.5288C53.2317 15.1294 53.0905 13.978 53.0579 13.0742C53.0525 12.9238 53.0497 12.7793 53.0497 12.6411Q53.0497 11.6035 53.2535 11.0249C53.4165 10.562 53.6664 10.292 54.0032 10.2148C54.34 10.1489 54.6687 10.2974 54.9893 10.6611C55.3098 11.0249 55.6168 11.6362 55.9102 12.4961C56.2035 13.3555 56.4806 14.4849 56.7414 15.8843C57.0022 17.2837 57.1461 18.438 57.1733 19.3472C57.1771 19.4731 57.179 19.5952 57.179 19.7129C57.179 20.4424 57.1064 21.0063 56.9614 21.4048C56.793 21.8677 56.5404 22.1323 56.2035 22.1982ZM74.7514 22.8594C74.7514 23.3662 74.4961 23.6196 73.9854 23.6196L64.9885 23.6196C64.7712 23.6196 64.5946 23.5566 64.4588 23.4297C64.323 23.3032 64.2551 23.124 64.2551 22.8926C64.2551 22.6943 64.3013 22.5347 64.3936 22.4131C64.486 22.292 64.6299 22.1929 64.8255 22.1157L65.5264 21.9009Q65.6559 21.8599 65.7573 21.7822Q65.86 21.7031 65.9338 21.5869C66.0316 21.4326 66.0805 21.2119 66.0805 20.9258L66.0805 11.3721C66.0805 11.2178 66.0425 11.0884 65.9664 10.9834C65.8904 10.8789 65.7491 10.7822 65.5427 10.6943L64.5974 10.3804C64.3474 10.2588 64.1682 10.1294 64.0595 9.9917Q64.0231 9.9458 63.9948 9.89502Q63.8965 9.71875 63.8965 9.48779C63.8965 9.28906 63.9644 9.12695 64.1002 9L64.1536 8.95557C64.2837 8.8584 64.4534 8.81006 64.6625 8.81006L66.0928 8.81006L66.0815 8.71338C66.051 8.52002 65.9746 8.33447 65.8523 8.15723C65.6894 7.91992 65.5046 7.65283 65.2982 7.35547Q64.9885 6.90918 64.744 6.28906Q64.4996 5.66943 64.4996 4.76025Q64.4996 3.35986 65.1133 2.32227Q65.4484 1.75586 65.9664 1.29736C66.9444 0.432617 68.3352 0 70.1389 0C71.3015 0 72.2659 0.1875 73.0319 0.562012C73.798 0.936523 74.3711 1.43506 74.7514 2.05762C75.1317 2.68066 75.3219 3.36084 75.3219 4.09912Q75.3219 5.35889 74.6925 6.01074Q74.6694 6.03467 74.6455 6.05762C74.1945 6.49316 73.616 6.71094 72.9097 6.71094C72.1273 6.71094 71.4971 6.45752 71.019 5.9502C70.5409 5.44336 70.3019 4.77148 70.3019 3.93408L70.3019 2.46289Q70.3019 1.88428 70.0737 1.61133C69.9216 1.42969 69.688 1.33887 69.3729 1.33887C68.9708 1.33887 68.6666 1.47656 68.4601 1.75195C68.2537 2.02734 68.1505 2.42432 68.1505 2.94238C68.1505 3.47119 68.2727 3.9668 68.5172 4.42969Q68.5206 4.43604 68.5241 4.44287Q68.8889 5.12939 69.4218 5.72705C69.7803 6.12939 70.1389 6.51514 70.4975 6.88428Q71.0353 7.43799 71.402 7.9751L71.4717 8.08252Q71.6698 8.4043 71.7358 8.72314L71.7507 8.81006L74.1647 8.81006Q74.5395 8.81006 74.7433 8.9668C74.8791 9.07178 74.947 9.23438 74.947 9.45459C74.947 9.78516 74.8058 10.0552 74.5232 10.2646C74.2407 10.4736 73.7952 10.5786 73.1868 10.5786L72.0295 10.5786L72.0295 20.876C72.0295 21.1846 72.0757 21.4214 72.1681 21.5869C72.2604 21.752 72.4099 21.8511 72.6163 21.8843L74.018 22.0991C74.2679 22.1323 74.4526 22.2119 74.5721 22.3389C74.6917 22.4653 74.7514 22.6392 74.7514 22.8594ZM86.1279 22.8594C86.1279 23.3662 85.8726 23.6196 85.3619 23.6196L76.365 23.6196C76.1477 23.6196 75.9711 23.5566 75.8353 23.4297C75.6995 23.3032 75.6316 23.124 75.6316 22.8926C75.6316 22.6943 75.6777 22.5347 75.7701 22.4131C75.8625 22.292 76.0064 22.1929 76.202 22.1157L76.9028 21.9009Q77.0324 21.8599 77.1338 21.7822Q77.2365 21.7031 77.3103 21.5869C77.4081 21.4326 77.457 21.2119 77.457 20.9258L77.457 11.3721C77.457 11.2178 77.419 11.0884 77.3429 10.9834C77.2669 10.8789 77.1256 10.7822 76.9192 10.6943L75.9738 10.3804C75.7239 10.2588 75.5446 10.1294 75.436 9.9917Q75.3996 9.9458 75.3713 9.89502Q75.273 9.71875 75.273 9.48779C75.273 9.28906 75.3409 9.12695 75.4767 9L75.5301 8.95557C75.6602 8.8584 75.8299 8.81006 76.039 8.81006L77.4692 8.81006L77.458 8.71338C77.4275 8.52002 77.3511 8.33447 77.2288 8.15723C77.0658 7.91992 76.8811 7.65283 76.6747 7.35547Q76.365 6.90918 76.1205 6.28906Q75.876 5.66943 75.876 4.76025Q75.876 3.35986 76.4898 2.32227Q76.8249 1.75586 77.3429 1.29736C78.3208 0.432617 79.7117 0 81.5154 0C82.678 0 83.6423 0.1875 84.4084 0.562012C85.1744 0.936523 85.7476 1.43506 86.1279 2.05762C86.5082 2.68066 86.6984 3.36084 86.6984 4.09912C86.6984 4.96973 86.4729 5.62256 86.022 6.05762C85.571 6.49316 84.9924 6.71094 84.2861 6.71094C83.5038 6.71094 82.8736 6.45752 82.3955 5.9502C81.9174 5.44336 81.6784 4.77148 81.6784 3.93408L81.6784 2.46289Q81.6784 1.88428 81.4502 1.61133C81.2981 1.42969 81.0645 1.33887 80.7493 1.33887C80.3473 1.33887 80.0431 1.47656 79.8366 1.75195C79.6302 2.02734 79.5269 2.42432 79.5269 2.94238C79.5269 3.47119 79.6492 3.9668 79.8937 4.42969Q79.8971 4.43604 79.9005 4.44287Q80.2654 5.12939 80.7982 5.72705C81.1568 6.12939 81.5154 6.51514 81.8739 6.88428Q82.4118 7.43799 82.7785 7.9751L82.8482 8.08252Q83.0462 8.4043 83.1122 8.72314L83.1271 8.81006L85.5412 8.81006Q85.916 8.81006 86.1198 8.9668C86.2556 9.07178 86.3235 9.23438 86.3235 9.45459C86.3235 9.78516 86.1822 10.0552 85.8997 10.2646C85.6172 10.4736 85.1717 10.5786 84.5632 10.5786L83.406 10.5786L83.406 20.876C83.406 21.1846 83.4522 21.4214 83.5446 21.5869C83.6369 21.752 83.7863 21.8511 83.9928 21.8843L85.3945 22.0991C85.6444 22.1323 85.8291 22.2119 85.9486 22.3389C86.0681 22.4653 86.1279 22.6392 86.1279 22.8594ZM98.1237 23.1406C97.0697 23.6807 95.8528 23.9502 94.4728 23.9502C92.9516 23.9502 91.6151 23.6338 90.4633 23C89.3116 22.3662 88.4124 21.4795 87.7659 20.3389C87.1194 19.1982 86.7961 17.8789 86.7961 16.3804C86.7961 14.8042 87.1085 13.4243 87.7333 12.2397C88.3581 11.0552 89.2627 10.1323 90.4471 9.47119C91.6314 8.81006 93.0548 8.47949 94.7173 8.47949C96.1299 8.47949 97.3468 8.75781 98.3682 9.31396C99.3896 9.87061 100.175 10.6255 100.723 11.5786Q100.952 11.9751 101.117 12.396Q101.546 13.4941 101.546 14.7603C101.546 15.2671 101.411 15.6665 101.139 15.9585L101.074 16.0234C100.806 16.2725 100.437 16.3965 99.9655 16.3965L92.5147 16.3965L92.5307 16.4731C92.7284 17.3804 93.0661 18.1069 93.5438 18.6528C94.3587 19.584 95.4453 20.0498 96.8035 20.0498C97.6728 20.0498 98.4416 19.8511 99.1098 19.4546C99.778 19.0576 100.226 18.5068 100.454 17.8018C100.585 17.6582 100.702 17.562 100.805 17.5122C100.908 17.4629 100.998 17.438 101.074 17.438C101.182 17.438 101.275 17.4819 101.351 17.5703C101.427 17.6582 101.465 17.8071 101.465 18.0166C101.465 19.0962 101.172 20.0854 100.585 20.9834C99.9981 21.8813 99.1777 22.6006 98.1237 23.1406ZM92.3447 15.0718Q92.3214 14.6914 92.3214 14.2808C92.3214 13.2451 92.3975 12.4297 92.5496 11.8345C92.7017 11.2397 92.8973 10.8184 93.1363 10.5703C93.3754 10.3223 93.6416 10.1982 93.935 10.1982C94.3153 10.1982 94.6711 10.5234 95.0025 11.1733Q95.4996 12.1489 95.4996 14.4131C95.4996 14.876 95.2932 15.1074 94.8803 15.1074L92.3467 15.1074L92.3447 15.0718ZM113.705 23.1406C112.651 23.6807 111.434 23.9502 110.054 23.9502C108.533 23.9502 107.197 23.6338 106.045 23C104.893 22.3662 103.994 21.4795 103.347 20.3389C102.701 19.1982 102.378 17.8789 102.378 16.3804C102.378 14.8042 102.69 13.4243 103.315 12.2397C103.94 11.0552 104.844 10.1323 106.029 9.47119C107.213 8.81006 108.636 8.47949 110.299 8.47949C111.711 8.47949 112.928 8.75781 113.95 9.31396C114.971 9.87061 115.756 10.6255 116.305 11.5786C116.854 12.5317 117.128 13.5923 117.128 14.7603C117.128 15.2671 116.992 15.6665 116.721 15.9585L116.656 16.0234C116.388 16.2725 116.018 16.3965 115.547 16.3965L108.096 16.3965L108.112 16.4731C108.31 17.3804 108.648 18.1069 109.125 18.6528Q109.572 19.1626 110.126 19.4863Q111.091 20.0498 112.385 20.0498C113.254 20.0498 114.023 19.8511 114.691 19.4546C115.36 19.0576 115.808 18.5068 116.036 17.8018C116.166 17.6582 116.283 17.562 116.386 17.5122C116.49 17.4629 116.579 17.438 116.655 17.438C116.764 17.438 116.856 17.4819 116.932 17.5703C117.008 17.6582 117.046 17.8071 117.046 18.0166C117.046 19.0962 116.753 20.0854 116.166 20.9834C115.58 21.8813 114.759 22.6006 113.705 23.1406ZM107.926 15.0718Q107.903 14.6914 107.903 14.2808C107.903 13.2451 107.979 12.4297 108.131 11.8345C108.283 11.2397 108.479 10.8184 108.718 10.5703Q108.988 10.2905 109.304 10.2212Q109.408 10.1982 109.517 10.1982C109.897 10.1982 110.253 10.5234 110.584 11.1733C110.915 11.8237 111.081 12.9038 111.081 14.4131Q111.081 14.7998 110.889 14.9712Q110.736 15.1074 110.462 15.1074L107.928 15.1074L107.926 15.0718ZM127.6 23.4131C127.464 23.5508 127.266 23.6196 127.005 23.6196L118.856 23.6196C118.617 23.6196 118.429 23.5537 118.293 23.4214C118.158 23.2891 118.09 23.1074 118.09 22.876C118.09 22.6997 118.13 22.5537 118.212 22.438Q118.334 22.2646 118.546 22.1157L118.921 21.9668Q119.033 21.9141 119.109 21.8286Q119.176 21.7534 119.214 21.6528C119.269 21.5098 119.296 21.2729 119.296 20.9424L119.296 12.5454C119.296 12.2808 119.266 12.0908 119.206 11.9751C119.146 11.8594 119.046 11.7686 118.905 11.7026L118.481 11.6528C118.329 11.5649 118.217 11.4712 118.147 11.3721C118.076 11.2729 118.041 11.146 118.041 10.9917C118.041 10.8154 118.095 10.6582 118.204 10.5205C118.312 10.3828 118.497 10.2646 118.758 10.1655L123.387 8.82666C123.658 8.71631 123.887 8.63916 124.071 8.59521Q124.348 8.52881 124.544 8.52881C124.729 8.52881 124.867 8.59521 124.959 8.72705L124.989 8.77539C125.065 8.91357 125.118 9.13428 125.147 9.43799L125.271 12.0063L125.299 11.9116C125.354 11.7329 125.415 11.561 125.481 11.3965C125.878 10.4106 126.402 9.67773 127.054 9.19824Q127.662 8.75098 128.34 8.58203Q128.752 8.47949 129.189 8.47949C130.123 8.47949 130.841 8.79346 131.34 9.42139C131.84 10.0498 132.09 11.0029 132.09 12.2808Q132.09 14.1816 131.308 15.0742C130.786 15.6694 130.113 15.9668 129.287 15.9668Q128.098 15.9668 127.519 15.3726Q127.51 15.3643 127.502 15.3555C127.116 14.9478 126.913 14.3691 126.891 13.6196L126.875 12.9585C126.864 12.7051 126.815 12.5068 126.728 12.3638C126.641 12.2202 126.5 12.1489 126.304 12.1489C126.109 12.1489 125.937 12.2505 125.791 12.4546C125.644 12.6582 125.533 12.9697 125.457 13.3887Q125.342 14.0166 125.342 14.9917L125.342 20.8101C125.342 21.1187 125.391 21.3638 125.489 21.5454C125.587 21.7271 125.739 21.8403 125.946 21.8843L127.168 22.1323Q127.49 22.1787 127.639 22.3643Q127.648 22.376 127.657 22.3887Q127.69 22.4355 127.716 22.4863Q127.804 22.6587 127.804 22.876C127.804 23.0962 127.736 23.2754 127.6 23.4131ZM144.893 22.9092C143.67 23.5811 142.25 23.9175 140.631 23.9175C139.055 23.9175 137.672 23.5894 136.483 22.9341Q135.477 22.3794 134.722 21.5859Q134.137 20.9722 133.704 20.2148Q133.671 20.1587 133.64 20.1016Q132.71 18.4053 132.71 16.1982C132.71 14.7437 133.057 13.4351 133.753 12.2729C134.448 11.1104 135.41 10.1875 136.637 9.50391Q136.678 9.48193 136.718 9.45996Q138.532 8.47949 140.875 8.47949C142.462 8.47949 143.847 8.81006 145.031 9.47119C146.216 10.1323 147.139 11.0469 147.802 12.2148Q147.827 12.2598 147.852 12.3047Q148.796 14.0254 148.796 16.2646C148.796 17.7192 148.451 19.022 147.761 20.1733C147.071 21.3252 146.115 22.2368 144.893 22.9092ZM141.869 22.1982C141.533 22.2646 141.204 22.1157 140.883 21.752C140.563 21.3887 140.259 20.7769 139.971 19.9175Q139.539 18.6279 139.147 16.5288C138.898 15.1294 138.756 13.978 138.724 13.0742Q138.716 12.8486 138.716 12.6411C138.716 11.9492 138.783 11.4106 138.919 11.0249C139.082 10.562 139.332 10.292 139.669 10.2148C140.006 10.1489 140.335 10.2974 140.655 10.6611C140.976 11.0249 141.283 11.6362 141.576 12.4961Q142.016 13.7852 142.407 15.8843C142.668 17.2837 142.812 18.438 142.839 19.3472C142.843 19.4731 142.845 19.5952 142.845 19.7129C142.845 20.4424 142.772 21.0063 142.627 21.4048C142.459 21.8677 142.206 22.1323 141.869 22.1982ZM163.97 23.4463C163.384 23.7822 162.634 23.9502 161.721 23.9502C160.624 23.9502 159.773 23.7163 159.17 23.248L159.067 23.1641C158.733 22.8813 158.504 22.561 158.379 22.2041L158.355 22.1299L158.332 22.1587C157.935 22.6494 157.418 23.0454 156.783 23.3472C155.935 23.7495 155.022 23.9502 154.044 23.9502Q152.286 23.9502 151.153 23.1084Q151.026 23.0142 150.907 22.9092C150.119 22.2148 149.725 21.3276 149.725 20.248C149.725 18.8267 150.299 17.7192 151.445 16.9258C152.591 16.1323 154.332 15.7354 156.669 15.7354L156.844 15.7373C157.189 15.7446 157.493 15.7734 157.755 15.8242L157.842 15.8428L157.842 11.0249C157.842 10.6392 157.752 10.3335 157.573 10.1074C157.394 9.88135 157.152 9.76855 156.848 9.76855C156.565 9.76855 156.329 9.854 156.139 10.0249C155.949 10.1958 155.854 10.4351 155.854 10.7437L155.854 12Q155.854 12.7808 155.521 13.3765Q155.333 13.7139 155.039 13.9917C154.495 14.5039 153.751 14.7603 152.806 14.7603Q151.649 14.7603 151.037 14.2065C150.63 13.8374 150.426 13.3003 150.426 12.5952Q150.426 12.5352 150.429 12.4756Q150.476 11.5459 151.249 10.6528C151.798 10.019 152.618 9.49854 153.71 9.09082C154.802 8.68311 156.163 8.47949 157.793 8.47949Q160.939 8.47949 162.414 9.67773C163.397 10.4766 163.889 11.6035 163.889 13.0576L163.889 20.3638C163.889 20.5732 163.935 20.7412 164.027 20.8677C164.12 20.9946 164.258 21.0576 164.443 21.0576Q164.51 21.0576 164.574 21.0444Q164.697 21.0186 164.81 20.9424C164.924 20.8652 165.008 20.7271 165.062 20.5288C165.095 20.4849 165.133 20.4517 165.176 20.4297C165.22 20.4077 165.269 20.3965 165.323 20.3965Q165.395 20.3965 165.455 20.4233Q165.545 20.4634 165.608 20.562C165.679 20.6724 165.714 20.8101 165.714 20.9751C165.714 21.3608 165.57 21.7852 165.282 22.248C164.994 22.7109 164.557 23.1104 163.97 23.4463ZM157.158 21.3721C156.723 21.3721 156.372 21.1929 156.106 20.8345C155.84 20.4766 155.707 19.9282 155.707 19.1899C155.707 18.4189 155.835 17.8345 156.09 17.438C156.345 17.0415 156.685 16.8428 157.109 16.8428C157.359 16.8428 157.576 16.8677 157.761 16.9175L157.842 16.9424L157.842 21.1836L157.789 21.2139C157.615 21.3042 157.436 21.356 157.251 21.3687L157.158 21.3721ZM177.661 22.6611C176.629 23.5537 175.146 24 173.212 24Q172.234 24 171.59 23.8184C171.161 23.6968 170.813 23.5757 170.547 23.4546C170.281 23.3335 170.066 23.2729 169.903 23.2729C169.74 23.2729 169.525 23.3335 169.259 23.4546L168.461 23.8184Q168.061 24 167.784 24C167.621 24 167.469 23.9448 167.328 23.8345C167.187 23.7246 167.078 23.5039 167.002 23.1733L166.497 19.8843C166.438 19.6333 166.409 19.4058 166.409 19.2021C166.409 19.0664 166.422 18.9409 166.448 18.8267C166.513 18.54 166.66 18.3525 166.888 18.2646C167.127 18.1543 167.363 18.1489 167.597 18.248C167.83 18.3472 168.04 18.5234 168.224 18.7769C168.844 19.7354 169.403 20.4902 169.903 21.0415C170.403 21.5923 170.889 21.981 171.362 22.2065C171.834 22.4326 172.332 22.5454 172.853 22.5454C173.407 22.5454 173.82 22.4131 174.092 22.1489C174.363 21.8843 174.499 21.5483 174.499 21.1406C174.499 20.832 174.421 20.5508 174.263 20.2974C174.105 20.0439 173.817 19.8101 173.399 19.5952C172.981 19.3804 172.38 19.168 171.598 18.9585C170.392 18.6499 169.392 18.248 168.599 17.752C167.806 17.2563 167.217 16.6611 166.831 15.9668C166.445 15.2729 166.252 14.4629 166.252 13.5371C166.252 12.4902 166.51 11.5894 167.026 10.8345C167.542 10.0801 168.249 9.49854 169.145 9.09082Q170.49 8.47949 172.169 8.47949C172.842 8.47949 173.391 8.54541 173.815 8.67773C174.239 8.81006 174.567 8.94238 174.801 9.07422C175.034 9.20654 175.211 9.27295 175.331 9.27295C175.461 9.27295 175.654 9.20947 175.909 9.08252C176.164 8.95605 176.423 8.83203 176.683 8.71094Q177.074 8.52881 177.335 8.52881C177.531 8.52881 177.688 8.59521 177.808 8.72705C177.927 8.85938 178.009 9.08545 178.052 9.40479L178.476 12.4463C178.521 12.7036 178.543 12.9258 178.543 13.1138C178.543 13.2476 178.531 13.3643 178.509 13.4629C178.454 13.6997 178.313 13.8511 178.085 13.9175Q178.053 13.9253 178.02 13.9297Q177.772 13.9634 177.498 13.8101C177.292 13.6943 177.085 13.5098 176.879 13.2563C176.086 12.0552 175.36 11.2065 174.703 10.7109C174.046 10.2148 173.348 9.9668 172.609 9.9668Q171.81 9.9668 171.403 10.314C171.131 10.5454 170.995 10.8486 170.995 11.2231C170.995 11.4766 171.055 11.7134 171.174 11.9341Q171.354 12.2646 171.834 12.5537C172.155 12.7466 172.609 12.9365 173.195 13.124C174.771 13.6089 175.993 14.124 176.863 14.6694C177.732 15.2148 178.34 15.8403 178.688 16.5454C179.036 17.2505 179.21 18.0718 179.21 19.0083C179.21 20.5508 178.694 21.7686 177.661 22.6611ZM188.663 23.3804Q187.587 23.9502 186.12 23.9502C184.469 23.9502 183.227 23.5483 182.396 22.7437C181.565 21.9395 181.149 20.6724 181.149 18.9424L181.149 11.4712C181.149 11.2397 181.127 11.0635 181.084 10.9424C181.041 10.8208 180.932 10.7217 180.758 10.6445L179.992 10.3965C179.807 10.3086 179.688 10.2012 179.633 10.0742C179.579 9.94775 179.552 9.79053 179.552 9.60352C179.552 9.37207 179.633 9.18164 179.796 9.0332C179.959 8.88428 180.16 8.81006 180.399 8.81006L181.198 8.81006Q181.345 8.81006 181.508 8.69434C181.616 8.61719 181.763 8.46289 181.948 8.23145L184.963 5.70264Q185.289 5.30566 185.615 5.09912Q185.941 4.89258 186.267 4.89258C186.517 4.89258 186.712 4.96973 186.854 5.12402L186.898 5.17871C187.01 5.33301 187.066 5.55762 187.066 5.85107L187.065 8.81006L190.472 8.81006C190.711 8.81006 190.896 8.8623 191.026 8.9668C191.157 9.07178 191.222 9.23438 191.222 9.45459C191.222 9.76318 191.086 10.0273 190.814 10.248L190.754 10.2935C190.48 10.4834 190.065 10.5786 189.51 10.5786L187.065 10.5786L187.066 18.1157C187.066 18.9424 187.204 19.5537 187.481 19.9502C187.758 20.3472 188.163 20.5454 188.695 20.5454C188.924 20.5454 189.136 20.4961 189.331 20.3965C189.527 20.2974 189.703 20.168 189.861 20.0083C190.018 19.8486 190.168 19.6694 190.309 19.4712C190.45 19.2729 190.586 19.0742 190.717 18.876C190.825 18.832 190.92 18.8511 191.002 18.9341C191.074 19.0068 191.11 19.146 191.11 19.3521C191.11 19.3794 191.109 19.4082 191.108 19.438C191.032 20.3306 190.784 21.1157 190.366 21.7935C189.948 22.4712 189.38 23 188.663 23.3804ZM202.989 23.1406C201.935 23.6807 200.718 23.9502 199.339 23.9502C197.817 23.9502 196.481 23.6338 195.329 23C194.177 22.3662 193.278 21.4795 192.632 20.3389C191.985 19.1982 191.662 17.8789 191.662 16.3804Q191.662 14.0166 192.599 12.2397C193.224 11.0552 194.128 10.1323 195.313 9.47119Q197.089 8.47949 199.583 8.47949C200.996 8.47949 202.212 8.75781 203.234 9.31396Q204.288 9.88867 205.007 10.7446Q205.332 11.1328 205.589 11.5786C206.138 12.5317 206.412 13.5923 206.412 14.7603C206.412 15.2671 206.276 15.6665 206.005 15.9585L205.94 16.0234C205.672 16.2725 205.303 16.3965 204.831 16.3965L197.38 16.3965L197.396 16.4731C197.594 17.3804 197.932 18.1069 198.409 18.6528Q198.856 19.1626 199.411 19.4863Q200.376 20.0498 201.669 20.0498C202.538 20.0498 203.307 19.8511 203.975 19.4546C204.644 19.0576 205.092 18.5068 205.32 17.8018C205.451 17.6582 205.567 17.562 205.671 17.5122C205.774 17.4629 205.863 17.438 205.939 17.438C206.048 17.438 206.14 17.4819 206.217 17.5703C206.293 17.6582 206.331 17.8071 206.331 18.0166C206.331 19.0962 206.037 20.0854 205.451 20.9834C204.864 21.8813 204.043 22.6006 202.989 23.1406ZM197.21 15.0718Q197.187 14.6914 197.187 14.2808C197.187 13.2451 197.263 12.4297 197.415 11.8345C197.567 11.2397 197.763 10.8184 198.002 10.5703C198.241 10.3223 198.507 10.1982 198.801 10.1982C199.181 10.1982 199.537 10.5234 199.868 11.1733C200.2 11.8237 200.365 12.9038 200.365 14.4131C200.365 14.876 200.159 15.1074 199.746 15.1074L197.212 15.1074L197.21 15.0718ZM216.884 23.4131C216.748 23.5508 216.55 23.6196 216.289 23.6196L208.14 23.6196C207.901 23.6196 207.713 23.5537 207.577 23.4214C207.442 23.2891 207.374 23.1074 207.374 22.876C207.374 22.6997 207.414 22.5537 207.496 22.438Q207.618 22.2646 207.83 22.1157L208.205 21.9668Q208.318 21.9141 208.393 21.8291Q208.46 21.7534 208.498 21.6528C208.553 21.5098 208.58 21.2729 208.58 20.9424L208.58 12.5454C208.58 12.2808 208.55 12.0908 208.49 11.9751Q208.482 11.9585 208.472 11.9429Q208.38 11.792 208.189 11.7026L207.765 11.6528C207.613 11.5649 207.501 11.4712 207.431 11.3721C207.36 11.2729 207.325 11.146 207.325 10.9917C207.325 10.8154 207.379 10.6582 207.488 10.5205C207.596 10.3828 207.781 10.2646 208.042 10.1655L212.671 8.82666Q213.078 8.66113 213.355 8.59521C213.54 8.55078 213.698 8.52881 213.828 8.52881C214.013 8.52881 214.151 8.59521 214.244 8.72705L214.273 8.77539C214.349 8.91357 214.402 9.13428 214.431 9.43799L214.555 12.0068L214.583 11.9116C214.638 11.7329 214.699 11.561 214.765 11.3965Q215.36 9.91748 216.338 9.19824C216.99 8.71924 217.702 8.47949 218.473 8.47949C219.408 8.47949 220.125 8.79346 220.625 9.42139C221.124 10.0498 221.374 11.0029 221.374 12.2808C221.374 13.5483 221.114 14.4795 220.592 15.0742C220.07 15.6694 219.397 15.9668 218.571 15.9668C217.767 15.9668 217.172 15.7632 216.786 15.3555C216.4 14.9478 216.197 14.3691 216.175 13.6196L216.159 12.9585C216.148 12.7051 216.099 12.5068 216.012 12.3638C215.925 12.2202 215.784 12.1489 215.588 12.1489C215.393 12.1489 215.222 12.2505 215.075 12.4546C214.928 12.6582 214.817 12.9697 214.741 13.3887C214.665 13.8071 214.627 14.3418 214.627 14.9917L214.627 20.8101C214.627 21.1187 214.676 21.3638 214.773 21.5454C214.871 21.7271 215.023 21.8403 215.23 21.8843L216.452 22.1323C216.68 22.1655 216.843 22.2505 216.941 22.3887C217.039 22.5264 217.088 22.6885 217.088 22.876C217.088 23.0962 217.02 23.2754 216.884 23.4131ZM233.452 22.6611C232.419 23.5537 230.936 24 229.002 24Q228.024 24 227.38 23.8184C226.951 23.6968 226.603 23.5757 226.337 23.4546C226.071 23.3335 225.856 23.2729 225.693 23.2729C225.53 23.2729 225.316 23.3335 225.05 23.4546L224.251 23.8184Q223.852 24 223.575 24C223.412 24 223.26 23.9448 223.118 23.8345C222.977 23.7246 222.868 23.5039 222.792 23.1733L222.287 19.8843C222.228 19.6333 222.199 19.4058 222.199 19.2021C222.199 19.0664 222.212 18.9409 222.238 18.8267C222.303 18.54 222.45 18.3525 222.678 18.2646C222.917 18.1543 223.154 18.1489 223.387 18.248C223.621 18.3472 223.83 18.5234 224.015 18.7769C224.634 19.7354 225.194 20.4902 225.693 21.0415C226.193 21.5923 226.68 21.981 227.152 22.2065C227.625 22.4326 228.122 22.5454 228.644 22.5454C229.198 22.5454 229.611 22.4131 229.882 22.1489C230.154 21.8843 230.29 21.5483 230.29 21.1406C230.29 20.832 230.211 20.5508 230.053 20.2974C229.896 20.0439 229.608 19.8101 229.19 19.5952C228.771 19.3804 228.171 19.168 227.389 18.9585C226.182 18.6499 225.183 18.248 224.39 17.752C223.596 17.2563 223.007 16.6611 222.621 15.9668C222.235 15.2729 222.043 14.4629 222.043 13.5371C222.043 12.4902 222.301 11.5894 222.817 10.8345C223.333 10.0801 224.039 9.49854 224.936 9.09082Q226.28 8.47949 227.959 8.47949C228.633 8.47949 229.181 8.54541 229.605 8.67773C230.029 8.81006 230.358 8.94238 230.591 9.07422C230.825 9.20654 231.001 9.27295 231.121 9.27295C231.251 9.27295 231.444 9.20947 231.7 9.08252C231.955 8.95605 232.213 8.83203 232.474 8.71094Q232.865 8.52881 233.126 8.52881C233.321 8.52881 233.479 8.59521 233.598 8.72705C233.718 8.85938 233.799 9.08545 233.843 9.40479L234.267 12.4463C234.311 12.7036 234.333 12.9258 234.333 13.1138C234.333 13.2476 234.322 13.3643 234.299 13.4629C234.245 13.6997 234.104 13.8511 233.875 13.9175Q233.843 13.9253 233.81 13.9297Q233.562 13.9634 233.289 13.8101C233.082 13.6943 232.876 13.5098 232.669 13.2563C231.876 12.0552 231.151 11.2065 230.493 10.7109C229.836 10.2148 229.138 9.9668 228.399 9.9668Q227.6 9.9668 227.193 10.314C226.921 10.5454 226.785 10.8486 226.785 11.2231C226.785 11.4766 226.845 11.7134 226.965 11.9341Q227.144 12.2646 227.625 12.5537C227.945 12.7466 228.399 12.9365 228.986 13.124C230.561 13.6089 231.784 14.124 232.653 14.6694C233.522 15.2148 234.131 15.8403 234.478 16.5454C234.826 17.2505 235 18.0718 235 19.0083C235 20.5508 234.484 21.7686 233.452 22.6611Z" clip-rule="evenodd" fill="#555555" fill-opacity="1.000000" fill-rule="evenodd"/>
	<path id="Combined Shape" d="M13.4893 3.00244C9.97493 -0.508789 4.76554 -1.01416 1.87661 1.87744C-1.01382 4.76807 -0.508339 9.97803 3.00008 13.4907C3.93607 14.4268 5.01454 15.1426 6.15302 15.6553C6.5265 13.4849 7.59748 11.3984 9.22345 9.68506C8.68496 9.49316 8.13297 9.33105 7.55698 9.17383C4.14606 8.23779 2.4511 5.39209 2.05511 2.05615C3.01808 3.21436 3.72757 4.53857 4.90654 5.50928C6.16351 6.54443 7.54798 6.91943 9.06745 7.36035C9.75594 7.55957 10.3544 7.85547 10.9034 8.2002C12.3464 7.14551 13.9738 6.44385 15.6538 6.1543C15.1423 5.01562 14.4253 3.93848 13.4893 3.00244ZM7.54648 16.4897C7.76997 14.3159 8.82295 12.1904 10.5104 10.5029C14.0248 6.9917 19.2342 6.48438 22.1232 9.37793C25.0136 12.2686 24.5096 17.478 20.9967 20.9912C19.3092 22.6787 17.1838 23.7319 15.0103 23.9565C14.7208 23.9854 14.4343 24.0005 14.1538 24.0005C12.2849 24.0005 10.6154 23.3447 9.38544 22.1147C7.96947 20.7002 7.31548 18.7021 7.54648 16.4897ZM16.4413 16.6758C15.0853 17.0464 13.8388 17.394 12.6869 18.2729C11.3699 19.2798 10.6049 20.6836 9.56243 21.936C9.94343 18.6528 11.5934 15.8311 14.9308 14.8623C16.4518 14.4209 17.8347 14.0444 19.0917 13.0112C20.2722 12.0405 20.9817 10.7178 21.9432 9.55811C21.5457 12.894 19.8522 15.7397 16.4413 16.6758Z" clip-rule="evenodd" fill="#0A775F" fill-opacity="1.000000" fill-rule="evenodd"/>
</svg>
