<svg width="120.000000" height="121.000000" viewBox="0 0 120 121" fill="none" xmlns="http://www.w3.org/2000/svg" xmlns:xlink="http://www.w3.org/1999/xlink">
	<desc>
			Created with Pixso.
	</desc>
	<defs/>
	<path id="Combined Shape" d="M65.8047 12.1296L54.1917 14.1292L48.385 8.13428L53.1348 0L65.8047 0.145752L65.8047 12.1296ZM52.261 26.113L42.2388 30.2603L29.0349 18.1226L36.7769 10.1299L52.261 26.113ZM102.582 78.0515L90.9692 86.042L104.518 92.0349L102.582 104.021L87.0981 104.021L77.4204 120.002L69.6785 104.021L58.0654 96.0303L52.2588 106.018L5.80664 82.0466L0 64.0681L6.48389 57.4399L1.93555 38.0989L17.4197 20.1201L42.5813 46.0894L50.3232 38.0989L63.8718 46.0894L58.0654 54.0798L50.3232 70.061L63.8718 76.0537L69.6785 86.042L75.4851 74.0562L67.7429 64.0681L75.4851 58.0752L83.2271 66.0657L90.9692 58.0752L102.582 70.061L102.582 78.0515ZM68.54 35.4602L60.8096 29.657L62.2146 23.1306L75.4866 22.1199L92.9062 36.1013L89.0352 48.0872L83.2285 52.0845L77.4221 48.0872L77.4221 42.0942L71.6155 34.1038L68.54 35.4602ZM118.064 86.042L114.193 86.042C113.125 86.042 112.258 85.1477 112.258 84.0444C112.258 82.9412 113.125 82.0469 114.193 82.0469L118.064 82.0469C119.134 82.0469 120 82.9412 120 84.0444C120 85.1477 119.134 86.042 118.064 86.042ZM114.197 114.009L110.326 114.009C109.257 114.009 108.391 113.115 108.391 112.011C108.391 110.908 109.257 110.014 110.326 110.014L114.197 110.014C115.266 110.014 116.133 110.908 116.133 112.011C116.133 113.115 115.266 114.009 114.197 114.009Z" clip-rule="evenodd" fill="#C99B67" fill-opacity="1.000000" fill-rule="evenodd"/>
</svg>
