<svg width="120.000000" height="107.000000" viewBox="0 0 120 107" fill="none" xmlns="http://www.w3.org/2000/svg" xmlns:xlink="http://www.w3.org/1999/xlink">
	<desc>
			Created with Pixso.
	</desc>
	<defs/>
	<path id="Combined Shape" d="M10.1016 80.0273C11.2861 72.498 7.97217 64.7798 4.40649 57.6787C2.95752 54.7954 1.48315 52.0129 0.248291 49.3813C-0.00366211 48.8401 -0.0666504 48.2231 0.0720215 47.6313L2.32739 38.2385C2.5415 37.332 3.22192 36.6018 4.1167 36.325C8.94238 34.814 24.3523 29.3748 25.7385 21.3796C25.7637 21.2161 25.8518 21.0774 25.9653 20.9641L39.1072 8.31055C39.4348 7.99561 39.9641 8.03345 40.2539 8.38599C41.4888 9.93457 44.9285 13.3845 50.0442 11.6848L48.4565 10.0857C48.1414 9.78345 48.1541 9.28003 48.4692 8.97778L54.4792 3.31201C54.6179 3.17334 54.8069 3.0979 55.0085 3.0979L73.3291 3.0979C73.9844 3.0979 74.3496 3.86597 73.9341 4.36963L68.0496 11.5085C67.76 11.8735 67.8354 12.4023 68.2261 12.6543C70.3176 14.0142 76.4287 18.0054 80.196 20.4604C82.1116 21.707 84.6946 20.9263 85.5637 18.811C86.5342 16.4565 87.4412 12.7927 87.4539 7.34106C87.4539 7.25293 87.4666 7.1521 87.5042 7.06396L90.0496 0.491699C90.2888 -0.112793 91.1206 -0.175781 91.4482 0.390869C92.6958 2.5564 94.9258 7.1521 94.9258 12.5159L96.1479 11.6345C96.4883 11.3826 96.9668 11.4583 97.2188 11.7854L99.8901 15.2605C100.004 15.4116 100.054 15.613 100.041 15.802C99.865 17.678 99.3735 28.0149 108.458 32.1572C108.622 32.2329 108.761 32.3586 108.836 32.5225L119.924 54.6821C119.975 54.7957 120 54.9087 120 55.0347L120 64.3645C120 65.7874 119.395 67.1345 118.324 68.0789C113.977 71.9316 102.612 82.6211 101.919 90.0244C101.881 90.4148 101.553 90.717 101.15 90.717L81.6074 90.717C81.4814 90.717 81.3555 90.6917 81.2419 90.6289C79.9819 89.949 73.3291 81.2363 71.981 72.7878C71.8801 72.1582 71.0864 71.9189 70.6453 72.3975L66.2729 77.2322C65.8699 77.6855 65.2903 77.9373 64.6853 77.9373C64.0173 77.9373 63.4504 77.459 63.3374 76.8042C62.8333 73.8579 60.5903 66.1523 51.1907 66.1523C46.1506 66.1523 38.3008 68.0913 31.0178 70.2822C31.0178 70.2822 22.9539 72.8003 16.9939 80.8584C16.7922 81.1353 16.4648 81.2991 16.1118 81.2991L11.198 81.2991C10.5176 81.2991 10.001 80.6948 10.1016 80.0273ZM95.5793 106.581C96.9783 107.525 98.8806 106.795 99.2964 105.171L101.375 96.9868C101.539 96.3447 101.06 95.7278 100.393 95.7278L86.4065 95.7278C85.5623 95.7278 85.0962 96.6973 85.6125 97.3521C89.1282 101.809 93.0093 104.844 95.5793 106.581Z" clip-rule="evenodd" fill="#C99B67" fill-opacity="1.000000" fill-rule="evenodd"/>
</svg>
