<svg width="313.000000" height="286.000000" viewBox="0 0 313 286" fill="none" xmlns="http://www.w3.org/2000/svg" xmlns:xlink="http://www.w3.org/1999/xlink">
	<desc>
			Created with Pixso.
	</desc>
	<defs/>
	<path id="Vector" d="M235.62 135.65C238.33 135.62 241.11 138.32 243.06 139.91C237.98 136.51 229.93 136.63 224.1 135.81C218.43 135.01 212.8 133.82 207.32 132.1C207.2 132.06 195.06 128.09 199.17 125.8C210.55 119.42 224.63 136.21 235.62 135.65ZM156.71 83.32C158.85 88.56 168.31 114.23 159.11 116.06C151.79 117.52 145.51 101.9 145.12 96.68C144.47 87.99 144.87 79.32 143.66 70.64C148.75 74.55 154.17 77.03 156.71 83.32ZM67.33 242.05C63.82 246.39 60.27 250.72 56.46 254.79C60.47 249.82 64.29 244.82 68.8 240.29L67.33 242.05L67.33 242.05ZM303.17 41.9C301.24 39.41 293.72 42.45 291.57 42.93C285.67 44.27 279.27 45.45 273.88 43.11C269.25 41.95 276.74 33.92 277.91 30.85C278.74 28.69 280.45 23.23 279.03 21.04C275.97 16.33 269.57 21.85 266.39 24.02C261.72 27.2 259.79 29.27 260.6 23.42C261.47 17.14 268.05 6.56 261.39 1C255.72 -3.74 246.9 5.26 243.47 8.87C237.01 15.68 234.01 23.38 232.63 32.54C232.31 34.68 229.83 47.31 227.66 45.09C223.33 39.52 226.76 31.34 223.34 25.34C221.39 21.93 218.71 20.24 217.08 16.4C215.46 12.62 213.83 5.82 208.61 5.41C205.29 5.15 203.1 7.9 202.56 10.63C200.82 17.04 202.13 22.82 202.01 29.31C201.93 34.06 198.81 37.63 199.97 42.52C201.84 49.97 204.28 57.79 205.55 65.55C205.94 67.98 207.28 79.05 202.52 76.89C199.84 75.67 200.12 65.31 199.93 63.49C199.5 59.13 199.56 54.79 196.94 51.02C195.44 48.86 192.95 48.03 191.79 46.34C188.37 41.32 188.6 32.82 185.77 27.31C183.24 22.37 176.52 10.39 170.62 9.22C162.54 7.61 165.58 18.61 166.1 23.43C166.69 28.77 167.59 33.64 167.11 38.85C166.7 43.45 167.03 47.18 168.79 51.65C172.05 59.9 176.95 67.02 181.07 74.55C181.06 74.52 181.05 74.49 181.04 74.46C183.35 78.88 185.28 84.35 185.06 89.46C184.7 98.01 181.74 93.66 179.14 87.83C175.22 79.05 172.66 69.66 168.78 60.88C167.4 57.76 165.75 54.58 162.87 52.55C160.94 51.18 158.55 51.51 157.05 50.68C151.83 47.81 132.62 15.25 124.55 24.95C120.2 30.19 131.01 41.4 133.29 45.32C136.93 51.58 140.8 55.9 140.43 63.33C138.31 61.36 135.4 62.39 133.46 60.83C131.16 58.97 130.52 55.02 129.44 52.45C126.48 45.36 122.99 38.38 118.36 32.26C104.22 13.61 106.6 41.81 108 51.13C108.27 52.91 108.58 55.2 108.86 57.23C109.58 62.57 108.34 63.43 107.58 68.15C106.28 76.18 115.74 86.76 120.63 92.51C122.14 94.29 145.39 123.1 135.2 122.86C130.06 122.74 121.39 108.12 118.99 103.64C115.31 96.74 112.77 82.96 105.12 79.38C102.71 78.26 100.72 79.44 98.49 78.55C93.29 76.49 89.75 68.33 85.99 64.52C78.32 56.75 68.9 57.83 75.31 70.43C77.85 75.41 79.11 78.74 80.67 84.16C82.45 90.35 88.04 93.54 90.61 98.96C92.74 103.44 89.43 101.05 89.62 106.38C89.78 110.81 96.65 115.65 99.88 118.12C104.37 121.54 124.61 133 120.65 139.92C117.03 146.23 105.23 136.72 102.07 133.83C94.18 126.59 91.03 116.83 86.59 107.46C84.43 102.89 81.95 97.35 78.41 93.65C75.31 90.41 71.78 89.97 67.93 88.3C63.45 86.35 43.7 75.96 44.61 88.51C45.23 96.95 56.98 101.03 58.44 109.08C53.16 106.73 42.1 96.02 35.8 101.65C29.72 107.08 41.78 118.81 45.46 123.25C47.71 125.97 63.15 138.2 62.89 142.79C62.62 147.57 57.08 145.86 53.88 145.22C48.4 144.14 -0.62 132.07 -0.41 142.06C-0.24 149.81 18.61 147.19 21.05 151.58C21.94 153.2 19.99 153.99 19.65 155.71C18.39 162.02 20.48 164.55 27.11 165.24C20.81 180.34 41.67 172.33 48.68 169.92C53.46 168.28 73.77 160.85 75.18 171.04C75.65 174.47 69.92 179.87 68.94 183.22C67.05 189.69 71.8 193.66 78.04 191.48C82.34 189.97 86.24 186.17 88.99 182.65C90.58 180.63 93.38 173.97 96.02 173.51C95.75 184.46 102.14 178.8 107.97 174.1C112.33 170.58 123.18 161.01 129.66 164.81C124.59 171.85 117.66 177.46 112.12 184.1C106.06 191.38 99.74 198.18 92.75 205.06C79.49 218.11 66.2 232.33 54.53 246.75C48.82 253.8 42.64 260.52 36.52 267.22C34.31 269.64 20.45 280.47 25.31 284.88C31.88 290.83 43.29 268.31 47.98 265.71C70.28 240.34 94.05 216.26 115.67 190.4C114.78 193.32 115.75 201.55 120.16 201.41C119.12 203.8 116 207.46 116.73 210.2C118.33 216.27 120.79 210.8 123.07 211.16C126.96 211.77 123.76 218.78 123.04 221.64C119.68 234.97 119.05 249.53 118.19 263.24C117.71 270.76 124.04 291.58 134.71 282.67C140.05 278.22 140.6 267.09 140.94 260.85C141.15 256.92 139.36 246.01 142.08 242.6C146.6 244.99 152.02 255.73 154.92 259.58C161.05 267.71 166.41 272.88 177.07 273.58C202.37 275.23 171.73 246.49 174.78 244.57C176.93 243.21 191.74 255.71 193.7 257.2C198.05 260.51 211.28 268.58 216.14 261.81C220.21 256.13 209.79 246.63 206.7 242.97C204.1 239.9 202.17 235.7 198.92 232.61C196.25 230.07 192.67 228.62 190.03 226.2C187.28 223.69 187.12 220.07 184.05 217.19C180.61 213.95 175.93 211.25 172.15 208.31C165.82 203.39 156.86 196.99 156.12 188.06C170.58 189.86 180.45 205.6 190.33 214.75C195.26 219.32 201.08 225.19 208.23 223.64C211.1 223.01 208.03 222.45 211.87 222.18C212.73 222.12 213.9 222.63 214.74 222.82C220.73 224.24 226.48 226.42 232.42 227.99C236.11 228.96 247.93 233.27 251.24 229.73C257.23 223.29 231.36 207.13 226.78 203.54C223.32 200.83 219.16 198.52 215.89 195.7C212.89 193.12 211.89 189.68 207.86 187.78C202.64 185.32 196.57 184.47 191.12 182.63C183.8 180.14 177.71 176.5 171.62 171.81C169.09 169.87 162.97 165.69 164.29 162.18C166.42 156.54 176.03 163.75 178.75 165.29C186.81 169.87 194.36 177.16 204.33 180.17C214.64 183.29 219.93 193.42 229.43 197.96C232.86 199.59 234.79 199.75 238.4 199.08C242.43 198.35 244.33 197.88 249.06 199.08C253.34 200.17 274.01 206.89 272.44 197.25C271.93 194.12 267.4 192.83 265.1 191.55C260.04 188.73 255.12 185.62 249.99 182.92C246.73 181.21 242.59 180.03 239.92 177.38C237.39 174.86 236.83 172.3 233.19 170.66C228.29 168.45 220.92 168.81 216.63 165.82C212.54 162.98 209.31 158.89 204.62 156.26C200.89 154.17 179.76 146.35 180.34 142.86C181.51 135.76 205.31 149.33 207.14 150.32C218.82 156.67 230.27 165.13 242.26 171.11C246.29 173.12 249.42 172.37 253.13 172.91C258.06 173.64 263.22 177.03 268.22 178.2C272.21 179.13 282.65 181.58 280.62 174.63C279.15 169.6 269.6 165.27 265.6 162.23C261.09 158.8 256.88 155.08 251.99 152.18C250.94 151.55 248.63 150.76 247.85 149.89C245.72 147.5 247.13 143.85 244.57 141.15C247.26 143.74 249.92 145.08 253.57 145.11C254.52 145.13 256.36 144.1 257.55 143.96C261.17 143.5 265.42 144.71 269.03 145.12C274.11 145.69 299.71 144.97 286.53 135.99C280.89 132.16 274.55 129.25 268.28 126.68C263.34 124.65 256.89 123.17 252.73 119.77C248.42 116.25 247.63 114.44 241.37 113.51C234.94 112.55 225.86 112.74 220.8 108.1C210.5 98.64 244.82 104.99 248.46 105.91C255.84 107.77 263.81 109.23 271.34 107.57C279.75 105.71 286.71 101.73 295.55 101.32C299.49 101.14 312.4 101.55 312.18 95.22C311.96 88.98 297.51 88.57 293.68 87.8C289.72 87 285.22 86.73 281.42 85.57C277.96 84.52 275.33 82.29 271.96 80.99C262.42 77.31 254.32 82.01 244.8 81.57C239.78 81.33 237.39 79.36 242.64 75.77C245.47 73.83 250.02 73.65 253.36 72.71C258.38 71.3 263.32 69.51 268.28 67.88C274.97 65.67 312.54 53.89 303.17 41.9Z" fill="#89B99A" fill-opacity="1.000000" fill-rule="evenodd"/>
</svg>
