<svg width="372.000000" height="372.000000" viewBox="0 0 372 372" fill="none" xmlns="http://www.w3.org/2000/svg" xmlns:xlink="http://www.w3.org/1999/xlink">
	<desc>
			Created with Pixso.
	</desc>
	<defs/>
	<path id="Vector" d="M287.61 129.49C275.13 125.52 262.12 124.58 249.19 123.19C253.31 122.28 257.77 121.07 261.97 120.6C265.83 120.18 268.13 121.77 271.76 123.03C278.25 125.3 285.5 128.05 291.14 130.68C289.97 130.27 288.79 129.87 287.61 129.49ZM269.83 134.46C256.14 131.9 242.13 131.34 228.46 128.67C231.85 127.63 233.77 126.73 237.37 127.07C242.72 127.58 248.14 128.68 253.37 129.84C260.97 131.53 268.63 133.36 276.03 135.76C273.97 135.28 271.91 134.85 269.83 134.46ZM270.49 137.13C269.56 137.51 266.27 136.23 265.21 136C266.23 136.19 269.89 137.37 270.49 137.13ZM243.23 136.85C232.52 136.18 221.68 135.84 210.95 135.9C212.87 135.18 214.71 134.28 216.59 133.43C221.72 131.13 222.62 131.5 227.74 133.01C234.35 134.96 241.12 136.07 247.9 137.2C246.34 137.06 244.79 136.94 243.23 136.85L243.23 136.85ZM230.73 143.03C215.94 144.15 201.35 145.94 186.59 147.59C189.74 146.32 192.77 144.7 195.78 143.14C200.43 140.72 204 141.06 209.18 141.06C214.68 141.06 220.09 141.71 225.56 142.33C226.91 142.48 232.2 142.92 230.73 143.03ZM207.94 131.79C215.84 124.12 224.9 116.98 234.18 111C240.07 107.21 246.48 102.93 253.4 106.22C241.95 106.69 226.99 117.08 220.22 125.98C219.89 126.4 219.4 126.69 219.06 127.1C217.78 128.65 219.17 128.82 218.3 129.77C218.2 129.88 213.58 131.77 214.19 131.51C211.05 132.81 207.84 133.89 204.7 135.17C205.76 134.03 206.84 132.9 207.94 131.79L207.94 131.79ZM251.99 113.42C244.22 119.92 235.79 123.38 226.43 126.64C234.98 121.14 243.55 116.64 252.94 112.71C252.63 112.94 252.31 113.18 251.99 113.42L251.99 113.42ZM261.66 115.65C263.28 115.13 264.01 115.26 264.37 117.19C260.18 117.03 258.19 117.6 254.24 118.56C256.64 117.42 259.12 116.45 261.66 115.65ZM266.8 116.7C266.51 116.17 266.38 115.16 266.18 114.64C269.29 114.59 271.93 115.25 274.57 116.88C273.7 116.89 267.02 117.66 266.8 116.7L266.8 116.7ZM140.77 188.85C163.49 186.04 185.28 185.31 208.1 187.53C190.91 189.04 173.65 192.49 156.73 195.85C143.15 198.54 129.37 200 115.75 202.43C118.28 199.8 120.64 197.02 123.21 194.43C127.67 189.93 134.36 189.65 140.77 188.85ZM218.88 195.54C222.99 195.12 227.08 194.61 231.16 194.01C235.59 193.36 242.67 190.43 247.13 191.31C222.77 198.55 196.44 201.88 171.39 205.96C160.98 207.65 150.38 210.13 140.3 213.27C125.73 217.81 109.31 217.78 95.41 224.15C99.66 219.7 104.32 213.33 109.16 209.71C112.68 207.07 118.52 206.85 122.7 206.3C129.6 205.39 136.52 204.68 143.44 203.94C168.6 201.23 193.71 198.17 218.88 195.54ZM91.47 219.66C89.43 221.91 87.44 224.21 85.51 226.56C89.02 210.1 88.86 192.74 90.83 176.03C91.95 166.58 93 157.03 94.5 147.64C95.83 139.35 96.19 128.06 100.63 120.9C103.95 123.98 106.4 127.25 105.74 131.73C104.89 137.49 102.41 143.02 101.26 148.73C99.96 155.15 99.09 161.68 98.28 168.18C97.05 178.17 96.76 188.34 97.29 198.39C97.44 201.21 97.62 204.04 97.84 206.86C97.93 208.09 98.57 210.18 98.3 211.33C97.64 214.16 93.61 217.3 91.47 219.66ZM115.98 151.13C117.92 141.88 119.11 131.14 123.16 122.47C125.41 117.65 127.57 115.93 130.93 121.14C133.33 124.85 129.56 133 128.38 137.67C125.01 150.92 123.23 164.51 121 177.98C120.42 181.5 120.25 184.99 119.87 188.53C119.56 191.46 119.64 191.28 117.96 193.49C116.87 194.91 115.16 196.12 113.85 197.37C110.42 200.65 106.95 203.88 103.55 207.2C108.72 188.73 112.04 169.88 115.98 151.13ZM370 193.14C366.87 188.98 362.9 185.23 358.84 182.01C353.22 177.55 346.33 174.94 340.72 170.66C335.99 167.05 332.09 162.24 327.26 158.59C319.6 152.78 311.71 147.96 302.73 144.47C314.16 148.37 325.13 153.07 334.29 161.17C335.06 161.85 341.77 170.45 343.16 169.62C344.11 169.07 340.09 162.85 339.25 161.4C333.06 150.75 320.35 143.94 310.32 137.1C298.98 129.38 286.6 125.05 273.68 120.78C285.42 121.43 295.3 124.44 305.13 131.04C309.97 134.29 314.44 138.08 319.43 141.09C323.85 143.77 328.09 146.23 331.9 149.82C336.17 153.84 339.6 158.21 342.44 163.35C343.5 165.28 348.71 176.97 348.85 169.55C348.91 165.89 344.29 160.67 342.42 158.03C339.27 153.57 335.61 149.56 331.78 145.68C325.26 139.08 319.04 132.24 311.31 127.04C306.91 124.08 302.31 121.73 297.28 120.04C293.39 118.73 289.4 117.79 285.32 117.33C281.45 116.89 281.08 116.94 278 114.94C275.35 113.22 273.09 111.38 270.13 110.15C267.11 108.9 264.54 108.72 262.29 107.01C259.64 104.99 258.61 102.63 255.19 101.36C252.05 100.2 248.83 100.45 245.55 100.72C234.71 101.58 223.69 104.33 214.72 110.75C206.79 116.42 201.39 125.47 197.56 134.29C195.44 139.16 196.88 138.98 191.2 141.78C185.22 144.72 179.28 147.62 173.46 150.9C183.05 138.98 191.38 125.79 201.89 114.62C207.52 108.65 213.03 102.59 218.65 96.63C220.31 94.87 233.41 82.22 226.05 82.67C224.35 82.77 221.79 85.04 220.22 85.79C217.1 87.29 214 88.62 211.12 90.57C206.12 93.97 202.04 98.19 197.95 102.58C187.35 113.96 177.81 126.12 172.92 141.06C171.76 144.59 171.34 148.58 169.52 151.82C168.25 154.11 166.75 154.9 164.15 156.59C159.7 159.48 155.38 162.45 151.17 165.69C161.94 149.73 168.89 131.88 177.38 114.7C188.29 92.61 193.29 67.82 202.47 45C204.25 40.57 206.42 35.7 209.41 31.93C210.32 30.79 213.19 29.07 213.44 27.63C214.11 23.81 211.53 24.84 209.63 25.93C204.99 28.62 200.48 34.68 197.3 38.76C192.68 44.7 188 51.14 184 57.54C170.22 79.57 161.08 104.58 153.49 129.32C149.91 140.96 146.23 152.78 144.47 164.85C143.62 170.68 144.59 170.83 139.72 174.82C134.64 178.98 129.78 183.4 124.74 187.61C129.33 178.17 132.07 166.47 135.39 156.46C138.86 145.97 142.81 135.64 146.34 125.17C152.08 108.13 156.37 90.68 160.51 73.2C162.7 63.9 164.76 54.6 166.64 45.24C169.06 33.21 171.52 19.32 176.91 8.22C177.71 6.57 180.98 -1.1 176.25 1.54C174.09 2.75 171.52 10.65 170.41 12.78C164.15 24.88 158.87 37.16 154.16 49.94C145.8 72.6 139.94 95.81 133.32 118.98C130 114.46 123.13 109.48 117.19 111.41C111.86 113.14 109.24 120.73 107.56 125.49C107.37 122.19 103.33 116.06 100.19 115.85C98.4 115.73 95.32 117.42 93.82 118.13C90.12 119.88 85.92 122.09 83.62 125.53C78.89 132.59 79.79 143.67 78.95 151.84C76.44 176.2 76.89 199.72 79.65 223.99C80.28 229.54 81.04 232.11 77.88 236.49C74.27 241.49 70.79 246.41 67.24 251.1C68.38 248.93 67.35 242.28 67.34 239.96C67.3 233.75 67.36 227.6 67.68 221.39C68.35 208.61 67.66 195.4 67.02 182.62C65.69 156.27 65.81 130.25 66.7 103.92C66.89 98.36 66.76 92.85 66.73 87.3C66.71 85.01 67.47 79.4 63.83 80.74C62.78 81.13 62 85.23 61.69 86.26C58.86 95.84 57.97 106.2 56.67 116.04C55.49 124.99 54.41 133.95 53.67 142.94C52.23 160.21 52.7 176.98 52.79 194.28C52.87 208.53 54.41 224.02 57.05 237.17C58.28 243.33 60.43 250 61.05 256.21C61.43 259.95 59.24 261.34 56.73 264.74C54.18 268.17 51.67 271.64 49.24 275.16C49.48 269.76 47.94 264.19 47.58 258.79C47.28 254.29 46.99 249.8 46.58 245.3C46.26 241.75 45.96 238.2 45.64 234.65C44.02 216.38 42.44 198.15 39.45 180.05C34.86 152.26 29.84 123.69 30.03 95.41C30.07 90.02 30.24 84.62 30.3 79.23C30.35 75.16 29.98 71.12 29.95 67.06C29.94 64.99 30.88 60.98 30.19 58.92C28.19 52.94 26.46 59.62 26.4 62.36C26.38 63.81 26.29 65.25 26.27 66.69C26.13 75.77 25.35 84.73 24.9 93.79C24.26 106.87 24.84 119.88 25.27 132.95C25.74 147.19 25.39 161.52 26.92 175.71C28.89 193.99 32.84 212.17 35.33 230.4C36.41 238.35 37.91 246.2 38.73 254.18C39.49 261.63 42.14 268.96 43.75 275.85L43.74 275.32C44.36 278.25 45.34 279.72 44.45 282.4C43.83 284.29 42.11 286.27 41.08 288.01C38.88 291.7 36.77 295.43 34.66 299.17C36.53 289.68 33.99 277.71 31.98 268.39C29.77 258.07 27.06 247.51 23.9 237.45C21.44 229.63 19.4 221.95 18.66 213.81C17.67 202.96 14.72 192.54 13.13 181.79C11.64 171.65 9.12 161.61 6.97 151.57C6.49 149.31 4.33 138.5 0.82 143.38C-0.05 144.58 1.01 147.78 1.15 149.02C1.48 152.1 1.69 155.13 1.83 158.22C2.73 177.85 6.84 197.78 10.06 217.12C12.12 229.48 14.3 241.88 17.31 254.05C19.65 263.52 20.92 273.36 23.52 282.69C24.76 287.17 26.03 291.75 28.02 295.96C29.76 299.62 31.5 300.64 30.89 304.58C30.02 310.22 25.22 316.07 23.05 321.53C21.28 326 19.47 330.47 17.78 334.96C15.43 341.26 13.22 347.66 11.15 354.06C9.95 357.76 7.62 362.54 7.4 366.31C7.07 372.03 10.31 370.39 12.01 366.57C13.15 363.99 14.06 361.22 15.14 358.6C23.04 339.41 30.27 318.83 42.05 301.61C46.97 294.42 60.57 292.69 68.54 290.18C87.73 284.15 108.49 283.35 128.4 281.14C144.45 279.37 160.24 277.73 175.96 273.78C178.26 273.21 220.15 260.88 219.1 258.72C219.69 259.93 173.27 270.26 169.55 270.57C157.89 271.51 146.27 271.77 134.59 272.26C105.37 273.5 76.62 274.2 50.07 288.01C53.42 282.74 57.43 272.79 63.31 270.75C74.65 266.81 86.59 264.27 98.01 260.43C109.89 256.45 122.08 253.77 134.02 250.08C145.95 246.39 157.85 242.57 169.96 239.46C182.13 236.35 194.7 233.1 207.35 233.5C212.22 233.65 217.1 234.08 221.95 234.54C223.78 234.71 238.35 237.41 230.47 234.06C225.37 231.89 218.69 231.73 213.22 230.93C206.96 230.02 200.95 229.21 194.61 229.26C180.82 229.37 166.96 232.6 153.63 235.8C137.67 239.63 121.06 243.43 105.83 249.59C91.87 255.23 77.84 260.65 63.87 266.23C66.41 262.34 69.11 258.57 71.75 254.75C73.04 252.9 74.39 249.88 76.21 248.62C78.99 246.68 84.84 246.18 88.07 245.1C101.06 240.78 114.11 235.71 127.42 232.5C148.82 227.33 170.74 224.12 192.27 219.53C204.84 216.84 218.15 214.48 231 214.71C235.83 214.79 240.67 214.62 245.42 215.64C247.1 216 249.21 216.93 250.94 217.12C256.12 217.7 252.28 215.22 249.14 214.13C224.26 205.51 196.84 212.4 171.76 215.91C155.17 218.22 138.8 220.58 122.97 226.29C108.37 231.54 94.42 238.55 79.59 243.17C83.48 237.64 86.95 231.92 93.16 228.88C100.03 225.52 107.28 224.06 114.78 222.78C130.38 220.13 145.87 216.72 161.52 214.41C175.89 212.29 190.24 210.4 204.49 207.5C218.36 204.68 232.15 203.03 245.39 197.69C249.59 196 254.67 193.06 259.15 192.81C264.95 192.48 271.97 194.22 277.66 195.08C291.52 197.17 305.9 199.33 318.71 205.2C331.28 210.95 339.81 220 349.43 229.46C352.46 232.44 355.45 235.47 358.47 238.47C359.14 239.13 363.16 244.14 363.99 244.21C369.11 244.59 359.44 234.43 357.78 232.35C346.25 217.97 333.78 205.98 316.82 198.14C302.37 191.46 287.26 187.12 271.5 184.9C271.54 182.05 283.15 181.91 283.47 178.96C283.89 175.02 275.76 178.96 274.15 179.44C271.09 180.36 268.12 181.51 265.05 182.38C257.99 184.37 250.19 181.92 243.02 181C234.38 179.89 225.62 179.17 216.93 178.64C188.16 176.91 160.56 177.86 132.61 185.57C137.63 181.18 142.86 177.01 148.16 172.97C150.22 171.39 151.79 169.95 154.13 169.21C158.08 167.97 162.77 168.52 166.88 168.12C183.16 166.53 199.35 164.75 215.72 164.25C242.64 163.42 270.72 168.25 296.25 176.81C308.71 180.99 320.93 185.05 331.75 192.75C334.25 194.52 336.48 196.56 338.76 198.62C339.7 199.47 345.44 205.65 345.73 205.61C348.23 205.35 336.67 192.56 334.99 190.93C312.43 169 283.16 164.01 253.26 159.61C222 155 190.63 157.45 159.83 164.4C165.98 160.56 172.02 153.99 178.93 151.75C184.17 150.06 190.83 150.38 196.13 149.84C211.52 148.25 227.65 150.94 243.07 152.03C260.49 153.27 277.42 155.5 294.26 160.14C302.88 162.52 311.27 165.03 319.68 168.12C326.34 170.56 331.78 172.06 337.17 176.53C339.35 178.35 345.82 183.18 349.32 186.46C350.75 187.8 352.22 190.63 353.84 191.3C359.85 193.81 351.87 184.02 350.56 182.32C355.34 185.17 359.8 188.48 364.04 192C364.88 192.7 365.69 193.23 366.54 193.87C367.53 194.62 368.06 196.81 369.76 196.08C371.15 195.48 370.66 194.05 370 193.14Z" fill="#012A32" fill-opacity="1.000000" fill-rule="evenodd"/>
	<path id="Vector" d="M248.97 122.21Q249.99 121.99 252.08 121.5Q258.64 119.96 261.85 119.61Q265.02 119.26 269.65 121.15Q271.22 121.79 272.09 122.09Q283.99 126.24 291.56 129.77L290.8 131.62Q289.06 131.01 287.3 130.45Q276.57 127.03 254.19 124.72Q250.79 124.37 249.08 124.18L248.97 122.21ZM249.4 124.17L249.19 123.19L249.29 122.2Q251 122.38 254.4 122.73Q276.98 125.06 287.91 128.54Q289.7 129.11 291.47 129.74L291.14 130.68L290.71 131.59Q283.23 128.1 271.43 123.98Q270.51 123.66 268.89 123Q264.73 121.3 262.07 121.59Q258.98 121.94 252.54 123.45Q250.43 123.94 249.4 124.17ZM228.16 127.71Q228.7 127.55 229.67 127.24Q234.23 125.77 237.46 126.08Q243.73 126.67 253.59 128.87Q267.74 132.02 276.34 134.81L275.8 136.73Q272.74 136.02 269.65 135.44Q263.04 134.21 249.61 132.67Q235.33 131.03 228.26 129.65L228.16 127.71ZM228.75 129.63L228.46 128.67L228.65 127.69Q235.64 129.06 249.84 130.68Q263.33 132.23 270.02 133.48Q273.15 134.06 276.25 134.78L276.03 135.76L275.72 136.71Q267.21 133.95 253.16 130.82Q243.41 128.65 237.27 128.07Q234.45 127.8 230.29 129.14Q229.3 129.46 228.75 129.63ZM265.4 135.01Q265.76 135.08 267.03 135.43Q270.02 136.24 270.12 136.2L270.87 138.06Q269.86 138.46 266.23 137.33Q265.25 137.03 265 136.97L265.4 135.01ZM265.02 136.98L265.21 136L265.42 135.02Q265.76 135.09 266.82 135.42Q269.78 136.34 270.12 136.2L270.49 137.13L270.87 138.06Q270.14 138.35 266.5 137.36Q265.31 137.03 265.02 136.98ZM210.6 134.96Q211.99 134.44 214.72 133.19Q215.69 132.74 216.18 132.52Q219.94 130.84 222.03 130.79Q223.65 130.76 227.63 131.94Q227.92 132.02 228.02 132.05Q234.43 133.95 247.63 136.15Q247.88 136.19 248.06 136.22L247.8 138.2Q245.49 137.99 243.17 137.85L242.86 135.92L242.86 135.92L243.23 136.85L243.17 137.85Q226.71 136.82 210.95 136.9L210.6 134.96ZM211.3 136.83L210.95 135.9L210.94 134.9Q226.77 134.82 243.3 135.85L243.61 137.78L243.61 137.78L243.23 136.85L243.29 135.85Q245.64 135.99 247.99 136.21L247.9 137.2L247.73 138.19L247.52 138.15L247.3 138.12Q233.98 135.9 227.46 133.97Q227.32 133.93 227.07 133.86Q223.38 132.77 222.07 132.79Q220.38 132.83 217 134.35Q216.52 134.56 215.56 135Q212.76 136.29 211.3 136.83ZM186.21 146.67Q189 145.54 194.4 142.73Q195.02 142.4 195.32 142.25Q199.66 140 207.48 140.05Q208.59 140.06 209.18 140.06Q214.48 140.06 224.91 141.25Q225.48 141.31 225.67 141.33Q225.98 141.37 227.14 141.48Q229.35 141.7 230.18 141.8Q230.92 141.89 231.19 141.97Q231.42 142.04 231.59 142.17Q232 142.49 231.99 143.01Q231.97 143.55 231.5 143.84Q231.25 143.99 230.81 144.02Q218.79 144.94 194.93 147.66Q189.47 148.28 186.7 148.59L186.21 146.67ZM186.96 148.52L186.59 147.59L186.48 146.6Q189.24 146.29 194.7 145.67Q218.6 142.94 230.66 142.03Q230.62 142.03 230.45 142.13Q230 142.41 229.99 142.94Q229.97 143.45 230.37 143.75Q230.5 143.85 230.62 143.89Q230.51 143.86 229.93 143.78Q229.13 143.68 226.94 143.47Q225.77 143.36 225.45 143.32Q225.19 143.29 224.69 143.23Q214.37 142.06 209.18 142.06Q208.59 142.06 207.47 142.05Q200.14 142 196.24 144.02Q195.93 144.18 195.33 144.5Q189.84 147.36 186.96 148.52ZM233.64 110.16Q233.74 110.1 233.98 109.94Q240 106.06 243.27 104.94Q248.95 103 253.83 105.31L253.44 107.22Q245.55 107.55 235.59 113.79Q226.35 119.57 221.01 126.58Q220.78 126.89 220.27 127.32Q219.94 127.61 219.83 127.74Q219.45 128.2 219.52 128.53Q219.79 129.62 219.04 130.44Q218.83 130.67 216.36 131.7Q215.67 131.99 214.94 132.29Q214.7 132.39 214.57 132.44Q214.31 132.55 214.09 132.53Q213.6 132.51 213.32 132.12Q212.9 131.52 213.34 130.93Q213.45 130.79 213.6 130.69Q213.64 130.67 213.69 130.64Q213.71 130.63 213.73 130.62Q213.73 130.62 213.74 130.62Q213.75 130.62 213.75 130.61Q213.76 130.61 213.77 130.61Q213.78 130.6 213.81 130.59L214.57 132.44Q212.92 133.12 209.59 134.36Q206.57 135.49 205.08 136.1L203.97 134.49Q205.64 132.69 207.23 131.08L207.94 131.79L208.32 132.72L208.32 132.72L207.25 131.07Q219.23 119.43 233.64 110.16L233.64 110.16ZM234.72 111.84Q220.48 121.01 208.64 132.51L207.94 131.79L207.57 130.86L207.57 130.86L208.65 132.49Q207.08 134.08 205.43 135.85L204.7 135.17L204.32 134.24Q205.84 133.63 208.89 132.49Q212.19 131.26 213.81 130.59L214.19 131.51L214.57 132.44Q214.54 132.45 214.53 132.45Q214.53 132.46 214.53 132.46Q214.53 132.46 214.53 132.45Q214.54 132.45 214.55 132.45Q214.57 132.44 214.58 132.43Q214.63 132.41 214.67 132.38Q214.83 132.28 214.93 132.14Q215.38 131.55 214.95 130.96Q214.67 130.56 214.18 130.54Q213.96 130.53 213.81 130.59Q213.94 130.53 214.18 130.44Q214.91 130.14 215.6 129.85Q216.56 129.45 217.14 129.2Q217.47 129.06 217.66 128.97L217.57 129.09Q217.6 129.06 217.58 129Q217.27 127.7 218.28 126.47Q218.5 126.2 218.97 125.8Q219.32 125.5 219.42 125.37Q224.98 118.06 234.52 112.09Q244.94 105.57 253.36 105.22L253.4 106.22L252.97 107.12Q248.83 105.15 243.91 106.84Q240.88 107.87 235.07 111.62Q234.83 111.78 234.72 111.84L234.72 111.84ZM225.88 125.8Q238.55 117.65 252.56 111.78L253.54 113.51L253.07 113.86L251.55 115L251.06 113.79L251.99 113.42L252.63 114.18Q243.65 121.7 226.75 127.58L225.88 125.8ZM226.97 127.48L226.43 126.64L226.1 125.69Q242.65 119.93 251.35 112.65L252.4 111.77L252.92 113.04L251.99 113.42L251.39 112.62L251.88 112.25L252.35 111.9L252.94 112.71L253.33 113.63Q239.48 119.43 226.97 127.48ZM264.33 118.19Q260.57 118.04 255.26 119.34Q254.75 119.47 254.47 119.53L253.81 117.66Q257.48 115.91 261.36 114.69Q263.02 114.16 263.93 114.6Q265 115.13 265.35 117L265.58 118.23L264.33 118.19ZM264.4 116.19L264.37 117.19L263.38 117.37Q263.22 116.48 263.05 116.4Q262.87 116.31 261.96 116.6Q258.22 117.78 254.67 119.46L254.24 118.56L254 117.59Q254.27 117.52 254.79 117.4Q260.37 116.03 264.4 116.19ZM266.17 113.65Q271.1 113.56 275.09 116.03L278.04 117.85L274.58 117.88Q274.44 117.88 273.53 117.95Q266.19 118.53 265.82 116.91L267.73 116.32L267.73 116.32L265.93 117.18Q265.69 116.75 265.44 115.69Q265.31 115.16 265.25 115.01L264.72 113.67L266.17 113.65ZM266.2 115.64L266.18 114.64L267.11 114.28Q267.22 114.56 267.38 115.23Q267.57 116.02 267.68 116.21L266.8 116.7L265.87 117.07L265.87 117.07L266.8 116.7L267.78 116.48Q267.7 116.14 267.47 116.03Q267.54 116.06 267.76 116.1Q268.32 116.19 269.37 116.18Q270.7 116.17 273.37 115.96Q274.35 115.88 274.56 115.88L274.57 116.88L274.04 117.73Q270.55 115.57 266.2 115.64ZM208.19 188.53Q191.33 190.01 157.75 196.67Q157.58 196.7 156.92 196.83Q149.31 198.34 134 200.58Q121.93 202.34 115.93 203.41L112.9 203.95L115.03 201.74Q116.13 200.59 118.29 198.22Q121.04 195.19 122.5 193.73Q126.72 189.47 138.55 188.1Q139.95 187.94 140.64 187.86Q176.41 183.44 208.2 186.54L208.19 188.53ZM208.01 186.54L208.1 187.53L208 188.53Q176.43 185.45 140.89 189.84Q140.19 189.93 138.78 190.09Q127.65 191.38 123.92 195.14Q122.5 196.57 119.77 199.57Q117.6 201.95 116.47 203.12L115.75 202.43L115.58 201.44Q121.61 200.37 133.71 198.6Q148.97 196.37 156.53 194.87Q156.64 194.85 157.36 194.7Q191.05 188.02 208.01 186.54ZM231.01 193.02Q232.44 192.81 236.05 191.85Q244.13 189.7 247.32 190.33L247.41 192.27Q227.45 198.2 185.41 204.75Q176.14 206.2 171.55 206.94Q155.67 209.53 140.59 214.23Q134.46 216.14 121.61 218.34Q103.82 221.4 95.83 225.06L94.69 223.46Q96.07 222.02 98.96 218.67Q105.22 211.41 108.56 208.91Q111.73 206.54 120.44 205.56Q121.9 205.4 122.57 205.31Q128.41 204.54 140.12 203.29Q142.26 203.06 143.33 202.95L165.95 200.44L218.77 194.54Q224.92 193.92 231.01 193.02L231.01 193.02ZM231.3 195Q225.16 195.9 218.99 196.53L166.17 202.42L143.54 204.94Q142.48 205.05 140.33 205.28Q128.65 206.53 122.83 207.29Q122.15 207.38 120.66 207.55Q112.49 208.46 109.76 210.51Q106.59 212.88 100.47 219.97Q97.55 223.37 96.14 224.85L95.41 224.15L95 223.25Q103.22 219.48 121.27 216.37Q133.99 214.19 140 212.32Q155.2 207.58 171.23 204.97Q175.82 204.22 185.1 202.78Q227.01 196.24 246.85 190.35L247.13 191.31L246.94 192.29Q244.2 191.75 236.56 193.78Q232.85 194.77 231.3 195L231.3 195ZM84.53 226.35Q86.73 216.03 88.23 194.64Q89.11 182.1 89.84 175.91Q90 174.54 90.33 171.76Q92.23 155.51 93.52 147.48Q93.82 145.62 94.32 141.51Q96.23 126.1 99.78 120.38L100.42 119.34L101.31 120.17Q107.59 126 106.73 131.87Q106.25 135.13 104.3 141.42Q102.75 146.42 102.24 148.93Q100.77 156.22 99.28 168.3Q97.48 182.88 98.29 198.34Q98.5 202.56 98.83 206.78Q98.86 207.15 99.05 208.17Q99.5 210.6 99.27 211.56Q98.72 213.92 94.17 218.35Q92.76 219.73 92.22 220.33Q89.16 223.69 86.28 227.19L84.53 226.35ZM86.48 226.77L85.51 226.56L84.73 225.92Q87.65 222.38 90.73 218.99Q91.32 218.34 92.78 216.92Q96.91 212.9 97.33 211.1Q97.46 210.55 97.08 208.53Q96.88 207.41 96.84 206.93Q96.51 202.69 96.29 198.44Q95.47 182.81 97.29 168.06Q98.79 155.9 100.28 148.53Q100.81 145.92 102.39 140.83Q104.3 134.68 104.75 131.58Q105.46 126.75 99.95 121.63L100.63 120.9L101.48 121.43Q98.16 126.78 96.31 141.75Q95.8 145.91 95.49 147.8Q94.21 155.79 92.32 171.99Q91.99 174.77 91.83 176.15Q91.1 182.29 90.22 194.78Q88.71 216.31 86.48 226.77ZM122.26 122.04Q124.27 117.72 126.34 117.09Q128.99 116.28 131.77 120.6Q133.87 123.84 130.47 134.23Q129.62 136.86 129.35 137.92Q126.74 148.17 123.43 169.14Q122.49 175.14 121.99 178.14Q121.61 180.47 121.2 185.14Q120.99 187.46 120.87 188.63Q120.86 188.76 120.83 188.98Q120.54 191.76 118.88 193.93Q118.79 194.05 118.75 194.1Q117.97 195.12 115.93 196.87Q114.97 197.69 114.54 198.1Q113.32 199.27 110.85 201.6Q106.43 205.79 104.25 207.91L101.59 210.52L102.59 206.93Q106.45 193.11 112.12 165Q114.01 155.62 115 150.93Q115.47 148.7 116.32 144.03Q119.13 128.73 122.26 122.04L122.26 122.04ZM124.07 122.89Q121.05 129.35 118.29 144.39Q117.43 149.09 116.96 151.34Q115.97 156.02 114.08 165.4Q108.4 193.58 104.52 207.47L103.55 207.2L102.85 206.48Q105.04 204.35 109.47 200.15Q111.94 197.82 113.16 196.65Q113.62 196.21 114.63 195.35Q116.51 193.74 117.16 192.88Q117.22 192.81 117.29 192.71Q118.61 190.99 118.84 188.77Q118.87 188.54 118.88 188.42Q119 187.27 119.21 184.96Q119.62 180.22 120.02 177.81Q120.51 174.82 121.46 168.83Q124.78 147.77 127.41 137.42Q127.69 136.3 128.57 133.61Q131.67 124.12 130.09 121.68Q128.13 118.63 126.92 119Q125.71 119.37 124.07 122.89L124.07 122.89ZM358.22 182.8Q355.38 180.54 348.97 176.97Q342.88 173.57 340.11 171.45Q337.73 169.63 333.42 165.44Q329.06 161.2 326.66 159.38Q314.32 150.05 302.36 145.4L303.05 143.53Q323.88 150.63 334.95 160.42Q335.18 160.62 336.4 162.04Q342.31 168.97 342.65 168.76Q342.3 168.97 342.31 169.28Q342.31 169.18 342.22 168.92Q342.02 168.28 341.43 167.14Q340.69 165.7 338.98 162.91Q338.52 162.14 338.38 161.9Q335.1 156.25 328.33 150.74Q324.27 147.42 315.36 141.63Q311.56 139.16 309.75 137.93Q297.85 129.82 273.37 121.73L273.74 119.78Q291.63 120.77 305.69 130.21Q307.71 131.57 311.6 134.45Q317.06 138.49 319.94 140.24Q320.25 140.42 320.87 140.8Q328.97 145.68 332.59 149.09Q339.08 155.2 343.31 162.87Q343.47 163.15 344 164.21Q346.24 168.71 347.39 170.21Q347.78 170.73 348.05 170.95L347.87 171.01L347.68 171.02Q347.83 170.55 347.85 169.53Q347.9 166.89 342.89 160.33Q341.96 159.11 341.61 158.6Q337.73 153.13 331.07 146.38Q330.1 145.41 328.19 143.44Q317.26 132.24 310.75 127.87Q304.1 123.39 296.96 120.99Q290.99 118.98 285.21 118.33Q285 118.3 284.65 118.26Q280.57 117.81 277.45 115.78Q276.75 115.32 275.42 114.4Q271.83 111.94 269.74 111.07Q268.69 110.64 266.7 110.04Q263.25 109 261.69 107.81Q260.66 107.03 259.14 105.45Q256.81 103.03 254.85 102.3Q251.91 101.21 245.63 101.71Q227 103.2 215.3 111.56Q205.48 118.58 198.48 134.69Q198.01 135.76 197.49 137.25Q196.76 139.31 195.91 140.13Q194.94 141.05 191.64 142.68Q191.18 142.9 190.37 143.3Q179.33 148.73 173.95 151.77L172.68 150.27Q176.25 145.83 183.07 136.57Q194.55 120.97 201.17 113.93L217.91 95.95Q218.07 95.78 218.63 95.22Q223.49 90.26 225.57 87.36Q227.2 85.09 227.27 84.04Q227.29 83.84 227.23 83.8Q226.97 83.61 226.11 83.67Q225.27 83.72 222.71 85.43Q221.27 86.4 220.65 86.69Q220.09 86.96 218.97 87.49Q213.98 89.84 211.68 91.4Q206.37 95.01 198.68 103.26Q179.65 123.69 173.87 141.37Q173.48 142.57 172.85 145.11Q171.64 150.08 170.4 152.31Q169.13 154.57 165.49 156.91Q164.97 157.25 164.7 157.42Q157.34 162.21 151.77 166.48L150.34 165.13Q158.02 153.75 169.52 128.94Q174.08 119.12 176.48 114.26Q182.83 101.41 191.52 73.81Q197.72 54.14 201.54 44.63Q205.12 35.73 208.63 31.31Q209.02 30.82 210.29 29.76Q212.36 28.02 212.46 27.46Q212.64 26.39 212.47 25.99Q212.45 25.94 212.39 25.93Q211.74 25.87 210.13 26.8Q205.96 29.21 198.73 38.54Q198.29 39.11 198.09 39.37Q190.19 49.53 184.85 58.07Q168.25 84.6 154.44 129.62Q154.36 129.88 154.17 130.51Q147.16 153.31 145.46 164.99Q145.31 166.03 145.14 167.62Q144.83 170.51 144.16 171.69Q143.34 173.14 140.35 175.59Q137.59 177.86 132.18 182.55Q127.68 186.46 125.38 188.38L123.84 187.17Q127.02 180.64 131.54 165.52Q133.44 159.16 134.44 156.14Q136.29 150.56 140.25 139.5Q143.74 129.75 145.39 124.85Q151.69 106.14 159.53 72.97Q162.98 58.35 165.66 45.04Q165.87 44.01 166.29 41.89Q171.03 18.04 176.01 7.78Q177.3 5.13 177.67 3.09Q177.86 2.06 177.73 1.92L177.78 2Q177.42 2.04 176.74 2.41Q175.48 3.12 172.55 10.35Q171.63 12.61 171.3 13.24Q162.48 30.28 155.1 50.29Q148.64 67.8 138.68 103.58Q135.77 114.02 134.28 119.25L133.72 121.22L132.51 119.57Q129.78 115.85 125.76 113.65Q121.19 111.16 117.5 112.36Q112.7 113.91 108.56 125.65Q108.51 125.79 108.5 125.82L106.56 125.54Q106.43 123.21 104.17 120.1Q101.91 116.96 100.12 116.84Q98.86 116.76 95.02 118.66Q94.48 118.92 94.25 119.03Q86.82 122.54 84.45 126.09Q81.03 131.19 80.36 145.49Q80.15 149.92 79.94 151.94Q76.4 186.47 80.64 223.87Q80.71 224.47 80.84 225.55Q81.34 229.62 81.12 231.41Q80.77 234.2 78.69 237.08Q77.86 238.22 76.24 240.48Q70.79 248.07 68.04 251.71L66.35 250.64Q67.05 249.3 66.51 242.68Q66.34 240.63 66.34 239.97Q66.27 229.3 66.69 221.34Q67.33 208.81 66.05 183.26Q66.02 182.76 66.02 182.67Q64.24 147.27 65.7 103.88Q65.84 99.61 65.76 91.08Q65.73 88.57 65.73 87.31Q65.72 86.97 65.75 86.16Q65.84 83.37 65.54 82.34Q65.37 81.75 65.11 81.6Q64.84 81.43 64.18 81.68Q63.82 81.81 62.89 85.63Q62.72 86.33 62.65 86.55Q60.37 94.24 58.37 110.56Q57.91 114.32 57.66 116.17Q55.59 131.92 54.66 143.02Q53.47 157.31 53.73 185.5Q53.78 191.34 53.79 194.27Q53.91 216.41 58.03 236.97Q58.46 239.16 59.59 243.71Q61.64 252.06 62.05 256.11Q62.38 259.41 59.15 263.31Q58.09 264.58 57.53 265.33Q53.18 271.22 50.06 275.72L48.09 278.58L48.24 275.11Q48.38 271.96 47.39 265.44Q46.73 261.04 46.58 258.86Q46.55 258.35 46.48 257.39Q45.95 249.39 45.59 245.39L44.65 234.74Q44.6 234.24 44.53 233.45Q41.38 197.85 38.47 180.22Q38.22 178.75 37.73 175.77Q33.32 149.2 31.67 135.78Q28.91 113.3 29.03 95.41Q29.05 92.43 29.17 86.47Q29.28 81.63 29.3 79.22Q29.33 77.03 29.13 72.64Q28.96 68.93 28.95 67.06Q28.95 66.3 29.18 64.29Q29.63 60.38 29.24 59.23Q28.69 57.59 28.4 57.48Q28.6 57.55 28.72 57.46Q28.61 57.54 28.45 57.85Q27.46 59.66 27.4 62.38Q27.39 63.08 27.34 64.46Q27.28 65.96 27.27 66.71Q27.18 72.71 26.44 84.59Q26.06 90.75 25.9 93.84Q25.33 105.51 26.13 128.83Q26.22 131.55 26.27 132.92Q26.41 137.28 26.55 146.02Q26.86 165.8 27.91 175.6Q29.04 186.07 32.61 206.95Q35.26 222.49 36.32 230.27Q36.73 233.3 37.68 239.35Q39.22 249.13 39.72 254.08Q40.23 259.05 42.93 268.8Q44.2 273.39 44.72 275.63L43.75 275.85L42.75 275.87L42.74 275.34L44.72 275.12Q44.87 275.84 45.22 277.07Q46.16 280.43 45.4 282.72Q44.94 284.11 43.1 286.77Q42.26 287.97 41.94 288.52Q39.67 292.31 35.53 299.66L33.68 298.97Q35.53 289.58 31.01 268.6Q27.46 252.1 22.94 237.75Q18.57 223.86 17.66 213.9Q17.08 207.57 14.57 195.14Q12.8 186.39 12.14 181.94Q11.05 174.49 7.74 159.69Q6.56 154.42 5.99 151.78Q5.98 151.72 5.95 151.56Q5.01 147.16 4.03 145.01Q3.31 143.44 2.71 143.16Q2.33 142.99 1.63 143.96Q1.24 144.5 1.89 147.56Q2.1 148.55 2.14 148.91Q2.61 153.16 2.83 158.18Q3.54 173.84 9.05 205.34Q10.4 213.1 11.05 216.96Q14.93 240.27 18.28 253.81Q19.33 258.05 20.99 266.66Q23.05 277.29 24.48 282.43L24.52 282.56Q26.99 291.44 28.93 295.53Q29.39 296.51 30.28 298.01Q32.38 301.54 31.88 304.74Q31.32 308.37 27.25 315.53Q24.79 319.85 23.98 321.9Q23.63 322.79 22.91 324.59Q20.07 331.73 18.72 335.31Q15.36 344.27 12.1 354.36Q11.74 355.48 10.81 357.9Q8.54 363.86 8.4 366.37Q8.29 368.14 8.64 368.87Q8.72 369.04 8.77 369.03Q9.9 368.83 11.09 366.16Q11.74 364.69 12.91 361.6Q13.76 359.33 14.21 358.22Q15.56 354.94 18.24 348.26Q31.4 315.41 41.23 301.05Q43.93 297.1 50.5 294.41Q54.26 292.88 62.28 290.85Q66.49 289.78 68.24 289.23Q83.38 284.47 115.27 281.45Q123.98 280.63 128.29 280.15Q129.02 280.07 130.56 279.9Q160.81 276.56 175.72 272.81Q181.45 271.38 198.48 265.89Q207.65 262.94 212.77 260.97Q215.73 259.83 217.18 259.08Q217.89 258.71 218.17 258.47L218.2 258.47Q218.02 258.79 218.2 259.16L220 258.29Q220.38 259.07 219.63 259.65Q219.44 259.81 219.1 259.96Q218.59 260.19 217.6 260.52Q215.81 261.1 212.38 262.01Q206.25 263.63 196.16 265.96Q173.15 271.27 169.63 271.56Q160.92 272.27 143.54 272.92Q137.6 273.14 134.63 273.26Q133.57 273.31 131.34 273.4Q103.43 274.56 89.89 276.65Q67.44 280.11 50.53 288.9L47.23 290.62L49.23 287.47Q50 286.26 51.69 283.19Q58.12 271.49 62.98 269.81Q68.91 267.75 81.07 264.4Q92.24 261.32 97.7 259.48Q104.4 257.23 117.99 253.57Q128.52 250.74 133.72 249.13Q135.54 248.57 139.16 247.44Q159.42 241.13 169.71 238.5L169.86 238.46L170 238.42Q194.7 232.09 207.38 232.5Q212.76 232.67 222.04 233.55Q222.4 233.58 224.15 233.85Q229.49 234.66 231.31 234.72Q231.95 234.75 232.23 234.7Q231.7 234.79 231.8 235.56L231.71 235.77Q231.19 235.45 230.08 234.98Q226.44 233.43 217.57 232.46Q214.52 232.13 213.08 231.92Q201.3 230.21 194.62 230.26Q180.55 230.37 153.86 236.78Q152.83 237.02 150.78 237.51Q120.39 244.78 106.2 250.51L61.31 268.32L63.04 265.68Q64.89 262.85 68.75 257.32Q70.21 255.23 70.93 254.19Q71.29 253.67 72.04 252.4Q74.17 248.82 75.64 247.8Q77.61 246.42 83.74 245.13Q86.68 244.51 87.75 244.15Q91.29 242.98 98.41 240.5Q117.47 233.87 127.19 231.52Q139.72 228.5 165.1 223.8Q183.13 220.46 192.06 218.55Q216.01 213.44 231.02 213.71Q231.89 213.72 233.63 213.74Q241.64 213.8 245.63 214.66Q246.37 214.82 247.98 215.33Q250.14 216.03 251.06 216.13Q252.57 216.3 252.82 216.17Q252.39 216.4 252.49 216.92L252.46 216.97Q251.45 215.99 248.81 215.07Q235.19 210.36 217.09 211.07Q206.24 211.49 184.59 214.95Q176.08 216.31 171.9 216.9Q139.38 221.44 123.3 227.23Q117.16 229.44 105.09 234.5Q88.5 241.44 79.89 244.12L77.08 245L78.77 242.59Q79.19 242 80.02 240.8Q86.94 230.81 92.72 227.98Q100.45 224.2 114.61 221.8Q120.94 220.72 133.57 218.32Q152.06 214.8 161.37 213.42Q164.05 213.02 169.39 212.25Q192.71 208.88 204.29 206.52Q207.55 205.86 214.04 204.66Q234.98 200.81 245.02 196.76Q246.08 196.33 248.38 195.29Q255.58 192.01 259.09 191.81Q263.52 191.56 273.25 193.31Q276.37 193.87 277.81 194.09L277.97 194.11Q306.24 198.39 319.13 204.29Q326.94 207.87 334.57 214.13Q339.17 217.9 347.74 226.38Q349.32 227.95 350.13 228.74L359.17 237.76Q359.38 237.96 360.35 239.09Q363.87 243.19 364.06 243.21Q364.48 243.24 364.55 243.19L364.47 243.24Q364.44 242.55 363.4 240.93Q362.01 238.77 358.21 234.4Q357.25 233.3 357 232.98Q337.69 208.89 316.4 199.05Q295.19 189.25 271.36 185.89L270.48 185.76L270.5 184.88Q270.53 182.7 277.1 181Q282.39 179.64 282.47 178.85Q282.52 178.41 282.33 178.33Q281.9 178.13 280.78 178.31Q279.18 178.57 275.78 179.9Q274.75 180.31 274.44 180.4Q273.07 180.81 270.35 181.73Q267.02 182.86 265.32 183.34Q259.79 184.9 248.27 182.86Q244.64 182.21 242.89 181.99Q231.38 180.52 216.87 179.64Q168.45 176.72 132.88 186.54L131.95 184.82Q138.63 178.97 147.55 172.17Q147.88 171.92 148.51 171.43Q151.7 168.93 153.83 168.26Q156.54 167.4 162.42 167.31Q165.39 167.26 166.79 167.12Q168.99 166.91 173.43 166.47Q201.52 163.68 215.68 163.25Q255.3 162.03 296.57 175.87L296.73 175.92L296.89 175.97Q321.49 184.22 332.33 191.93Q334.74 193.64 339.05 197.53Q339.25 197.72 339.43 197.88Q339.81 198.22 342.09 200.59Q344.09 202.67 344.91 203.5Q345.57 204.16 345.93 204.49Q346.11 204.66 346.2 204.73L346.2 204.74Q345.95 204.58 345.62 204.62Q345.3 204.65 345.14 204.99Q345.07 205.14 345.08 205.18Q345 204.8 344.49 203.95Q343.49 202.29 341.15 199.41Q336.91 194.19 334.3 191.65Q319.32 177.09 296.57 169.65Q281.84 164.83 253.12 160.6Q209.62 154.19 160.05 165.38L159.3 163.55Q161.47 162.2 165.85 158.74Q174.03 152.29 178.62 150.8Q182.37 149.59 190.87 149.18Q194.42 149.01 196.03 148.84Q207.42 147.67 230.71 149.94Q239.04 150.75 243.14 151.04Q272.52 153.12 294.53 159.18Q309.37 163.27 320.02 167.18Q320.98 167.53 322.83 168.19Q333.06 171.83 337.81 175.76Q338.49 176.33 340.88 178.21Q347.57 183.45 350 185.73Q350.6 186.29 351.76 187.82Q353.47 190.07 354.22 190.38Q355.04 190.72 355.38 190.71Q355.16 190.72 355.06 191.03Q355.14 190.77 354.35 189.36Q353.21 187.32 350.14 183.4Q349.86 183.05 349.77 182.93L351.07 181.46Q357.62 185.37 364.68 191.23Q365.21 191.67 366.28 192.44Q366.84 192.85 367.14 193.07Q367.58 193.4 368.21 194.29Q368.95 195.34 369.37 195.16Q369.67 195.03 369.65 194.78Q369.63 194.33 369.19 193.73Q365.01 188.18 358.22 182.8L358.22 182.8ZM359.46 181.23Q366.46 186.77 370.8 192.55Q371.59 193.62 371.65 194.67Q371.75 196.31 370.16 197Q368.24 197.82 366.57 195.44Q366.12 194.81 365.94 194.67Q365.66 194.46 365.11 194.06Q363.99 193.25 363.41 192.77Q356.47 187.01 350.05 183.18L350.56 182.32L351.35 181.71Q351.44 181.82 351.71 182.17Q354.88 186.21 356.1 188.38Q357.3 190.52 356.98 191.6Q356.66 192.68 355.43 192.71Q354.66 192.73 353.45 192.23Q352.2 191.71 350.17 189.03Q349.11 187.64 348.63 187.19Q346.26 184.97 339.65 179.78Q337.22 177.88 336.53 177.3Q332.06 173.59 322.16 170.07Q320.3 169.41 319.33 169.05Q308.76 165.18 293.99 161.11Q272.18 155.1 243 153.03Q238.87 152.74 230.51 151.93Q207.42 149.68 196.24 150.83Q194.57 151 190.97 151.18Q182.74 151.58 179.24 152.71Q174.99 154.08 167.09 160.31Q162.62 163.84 160.36 165.25L159.83 164.4L159.61 163.42Q209.54 152.16 253.41 158.62Q282.29 162.88 297.19 167.75Q320.38 175.33 335.69 190.21Q338.39 192.84 342.7 198.15Q345.13 201.14 346.2 202.92Q346.88 204.06 347.03 204.76Q347.17 205.39 346.94 205.85Q346.62 206.52 345.85 206.61Q345.17 206.68 340.65 201.97Q338.42 199.66 338.09 199.36Q338 199.28 337.7 199.02Q333.49 195.2 331.17 193.56Q320.57 186.02 296.26 177.87Q296.14 177.83 295.93 177.76Q255.01 164.04 215.75 165.25Q201.65 165.68 173.62 168.46Q169.18 168.9 166.98 169.12Q165.51 169.26 162.45 169.31Q156.87 169.4 154.43 170.17Q152.64 170.73 149.74 173Q149.1 173.5 148.76 173.76Q139.89 180.52 133.27 186.33L132.61 185.57L132.35 184.61Q168.24 174.71 216.99 177.65Q231.57 178.52 243.15 180Q244.95 180.24 248.62 180.89Q259.69 182.85 264.78 181.42Q266.43 180.95 269.71 179.84Q272.46 178.91 273.86 178.49Q274.09 178.42 275.05 178.04Q278.65 176.63 280.46 176.33Q282.18 176.05 283.17 176.51Q284.66 177.19 284.46 179.06Q284.23 181.23 277.6 182.94Q272.51 184.25 272.5 184.91L271.5 184.9L271.64 183.91Q295.76 187.31 317.24 197.24Q338.95 207.27 358.56 231.73Q358.79 232.02 359.72 233.08Q363.62 237.57 365.08 239.85Q366.41 241.93 366.47 243.15Q366.51 244.22 365.74 244.8Q365.08 245.29 363.91 245.2Q362.89 245.12 358.83 240.39Q357.91 239.33 357.76 239.18L348.73 230.17Q347.92 229.37 346.34 227.81Q337.82 219.39 333.3 215.68Q325.87 209.58 318.29 206.11Q305.66 200.32 277.67 196.09L277.51 196.07Q276.04 195.84 272.89 195.28Q263.4 193.57 259.2 193.81Q256.07 193.99 249.21 197.11Q246.87 198.17 245.77 198.61Q235.54 202.74 214.4 206.63Q207.93 207.82 204.69 208.48Q193.06 210.85 169.67 214.23Q164.34 215 161.66 215.4Q152.39 216.77 133.95 220.28Q121.29 222.69 114.95 223.77Q101.07 226.13 93.6 229.78Q88.29 232.38 81.66 241.94Q80.83 243.14 80.41 243.74L79.59 243.17L79.29 242.21Q87.82 239.56 104.31 232.65Q116.44 227.58 122.63 225.35Q138.9 219.48 171.62 214.92Q175.78 214.33 184.27 212.98Q206.05 209.5 217.01 209.07Q235.49 208.34 249.47 213.18Q252.53 214.24 253.86 215.54Q254.35 216.02 254.46 216.52Q254.65 217.47 253.75 217.94Q252.96 218.36 250.83 218.12Q249.72 217.99 247.37 217.24Q245.86 216.76 245.21 216.62Q241.42 215.8 233.61 215.74Q231.86 215.72 230.98 215.71Q216.2 215.44 192.48 220.5Q183.52 222.42 165.46 225.76Q140.13 230.46 127.66 233.47Q118.03 235.79 99.06 242.39Q91.94 244.87 88.39 246.05Q87.2 246.45 84.16 247.09Q78.42 248.3 76.78 249.44Q75.67 250.21 73.76 253.42Q72.97 254.76 72.58 255.32Q71.85 256.37 70.39 258.46Q66.55 263.97 64.71 266.77L63.87 266.23L63.51 265.3L105.45 248.66Q119.78 242.87 150.31 235.57Q152.36 235.08 153.4 234.83Q180.3 228.37 194.61 228.26Q201.44 228.21 213.37 229.94Q214.77 230.14 217.78 230.47Q226.95 231.48 230.86 233.14Q233.65 234.33 233.78 235.3Q233.93 236.43 232.57 236.67Q232.09 236.75 231.24 236.72Q229.3 236.65 223.85 235.82Q222.16 235.57 221.86 235.54Q212.63 234.67 207.32 234.5Q194.92 234.1 170.5 240.36Q170.49 240.36 170.21 240.43Q159.96 243.06 139.75 249.35Q136.13 250.47 134.31 251.04Q129.07 252.66 118.51 255.5Q104.98 259.15 98.33 261.38Q92.83 263.23 81.6 266.32Q69.51 269.66 63.64 271.7Q59.5 273.13 53.44 284.16Q51.72 287.28 50.91 288.55L50.07 288.01L49.61 287.12Q66.8 278.18 89.58 274.67Q103.24 272.57 131.26 271.4Q133.45 271.31 134.55 271.26Q137.52 271.14 143.46 270.92Q160.8 270.28 169.47 269.57Q172.84 269.29 195.71 264.01Q205.77 261.69 211.87 260.07Q215.25 259.18 216.98 258.62Q217.86 258.33 218.26 258.14Q218.39 258.08 218.41 258.07Q217.87 258.49 218.2 259.16L219.1 258.72L220 258.29Q220.61 259.55 218.1 260.85Q216.55 261.66 213.48 262.84Q208.32 264.82 199.09 267.8Q182 273.3 176.2 274.75Q161.17 278.53 130.78 281.89Q129.25 282.05 128.51 282.14Q124.19 282.62 115.46 283.44Q83.77 286.44 68.84 291.14Q67.04 291.71 62.77 292.78Q46.49 296.9 42.88 302.18Q33.17 316.36 20.1 349.01Q17.42 355.69 16.06 358.98Q15.62 360.06 14.78 362.3Q13.6 365.45 12.92 366.97Q11.3 370.62 9.11 371Q7.58 371.27 6.84 369.73Q6.27 368.54 6.4 366.25Q6.56 363.44 8.94 357.19Q9.85 354.81 10.2 353.75Q13.47 343.62 16.85 334.61Q18.2 331.01 21.05 323.85Q21.77 322.06 22.12 321.16Q22.99 318.98 25.51 314.54Q29.4 307.7 29.9 304.43Q30.29 301.94 28.56 299.03Q27.62 297.45 27.12 296.38Q25.11 292.14 22.59 283.09L22.55 282.96Q21.1 277.75 19.03 267.04Q17.38 258.48 16.34 254.29Q12.97 240.68 9.07 217.29Q8.43 213.44 7.08 205.68Q1.55 174.05 0.83 158.27Q0.61 153.32 0.16 149.13Q0.13 148.86 -0.06 147.97Q-0.9 144.05 0.01 142.79Q1.67 140.48 3.55 141.35Q4.82 141.93 5.85 144.18Q6.92 146.53 7.9 151.15Q7.94 151.3 7.95 151.36Q8.51 153.99 9.69 159.25Q13.01 174.13 14.12 181.65Q14.77 186.04 16.53 194.74Q19.06 207.28 19.65 213.71Q20.54 223.46 24.85 237.15Q29.39 251.59 32.96 268.18Q37.57 289.56 35.64 299.36L34.66 299.17L33.79 298.67Q37.94 291.31 40.22 287.5Q40.58 286.89 41.45 285.63Q43.13 283.21 43.51 282.09Q44.07 280.38 43.29 277.61Q42.93 276.32 42.76 275.53L43.74 275.32L44.74 275.31L44.75 275.84L42.77 276.08Q42.26 273.88 41 269.33Q38.26 259.42 37.73 254.28Q37.23 249.39 35.7 239.66Q34.75 233.59 34.33 230.54Q33.28 222.79 30.64 207.29Q27.06 186.34 25.92 175.82Q24.86 165.92 24.55 146.05Q24.42 137.33 24.27 132.98Q24.22 131.61 24.13 128.89Q23.33 105.5 23.91 93.75Q24.06 90.64 24.44 84.47Q25.18 72.63 25.27 66.68Q25.28 65.91 25.34 64.38Q25.39 63.02 25.4 62.34Q25.47 59.13 26.69 56.89Q27.69 55.06 29.12 55.61Q30.29 56.07 31.14 58.6Q31.67 60.17 31.16 64.52Q30.95 66.4 30.95 67.05Q30.96 68.88 31.13 72.55Q31.33 76.99 31.3 79.24Q31.28 81.67 31.17 86.51Q31.05 92.45 31.03 95.42Q30.91 113.19 33.66 135.53Q35.3 148.92 39.7 175.45Q40.19 178.4 40.44 179.89Q43.36 197.6 46.52 233.27Q46.59 234 46.64 234.56L47.58 245.21Q47.94 249.23 48.48 257.26Q48.54 258.23 48.58 258.73Q48.72 260.83 49.37 265.14Q50.39 271.85 50.24 275.2L49.24 275.16L48.42 274.59Q51.55 270.05 55.92 264.14Q56.52 263.34 57.61 262.03Q60.31 258.78 60.06 256.31Q59.66 252.4 57.64 244.19Q56.51 239.6 56.06 237.37Q51.91 216.62 51.79 194.28Q51.78 191.36 51.73 185.52Q51.47 157.24 52.67 142.85Q53.6 131.71 55.68 115.91Q55.92 114.06 56.38 110.32Q58.41 93.84 60.73 85.98Q60.78 85.81 60.94 85.15Q62.13 80.3 63.49 79.8Q65.04 79.23 66.14 79.88Q67.07 80.43 67.46 81.78Q67.85 83.12 67.75 86.23Q67.72 87 67.73 87.29Q67.73 88.55 67.76 91.06Q67.84 99.63 67.7 103.95Q66.24 147.26 68.02 182.57Q68.03 182.92 68.05 183.16Q69.34 208.81 68.68 221.44Q68.27 229.35 68.34 239.96Q68.34 240.54 68.5 242.51Q69.09 249.72 68.12 251.57L67.24 251.1L66.44 250.5Q69.18 246.88 74.62 239.31Q76.24 237.05 77.07 235.91Q78.85 233.44 79.13 231.16Q79.33 229.62 78.86 225.8Q78.72 224.7 78.65 224.1Q74.38 186.48 77.95 151.73Q78.15 149.77 78.36 145.4Q79.05 130.54 82.78 124.97Q85.47 120.97 93.39 117.22Q93.61 117.12 94.14 116.86Q98.46 114.73 100.25 114.85Q102.98 115.03 105.79 118.92Q108.39 122.52 108.56 125.43L107.56 125.49L106.61 125.15Q106.64 125.07 106.67 124.99Q111.14 112.32 116.89 110.46Q121.4 108.99 126.72 111.9Q131.13 114.31 134.12 118.39L133.32 118.98L132.35 118.7Q133.85 113.48 136.75 103.05Q146.73 67.18 153.22 49.6Q160.64 29.47 169.53 12.32Q169.81 11.78 170.69 9.6Q173.89 1.71 175.76 0.67Q178.09 -0.63 179.2 0.56Q180.01 1.43 179.64 3.45Q179.22 5.76 177.81 8.66Q172.94 18.68 168.25 42.28Q167.83 44.4 167.62 45.43Q164.94 58.78 161.48 73.43Q153.62 106.69 147.29 125.49Q145.63 130.41 142.13 140.18Q138.18 151.21 136.34 156.77Q135.35 159.76 133.46 166.09Q128.89 181.36 125.64 188.05L124.74 187.61L124.1 186.84Q126.38 184.94 130.87 181.04Q136.3 176.33 139.09 174.04Q141.78 171.84 142.42 170.71Q142.88 169.88 143.15 167.4Q143.33 165.78 143.48 164.71Q145.21 152.87 152.25 129.92Q152.45 129.28 152.53 129.03Q166.42 83.76 183.15 57Q188.55 48.38 196.51 38.14Q196.72 37.88 197.15 37.32Q204.62 27.68 209.13 25.07Q211.31 23.81 212.6 23.95Q213.84 24.07 214.32 25.21Q214.72 26.16 214.43 27.8Q214.21 29.08 211.58 31.29Q210.46 32.23 210.19 32.56Q206.87 36.75 203.4 45.37Q199.6 54.81 193.43 74.41Q184.69 102.16 178.27 115.14Q175.88 119.99 171.34 129.79Q159.77 154.74 151.99 166.25L151.17 165.69L150.56 164.9Q156.18 160.57 163.61 155.75Q163.89 155.57 164.4 155.23Q167.63 153.16 168.65 151.33Q169.76 149.34 170.91 144.64Q171.55 142.02 171.97 140.75Q177.89 122.65 197.21 101.9Q205.06 93.48 210.56 89.75Q212.99 88.1 218.12 85.68Q219.23 85.16 219.79 84.89Q220.27 84.66 221.6 83.77Q224.61 81.75 225.99 81.67Q227.55 81.57 228.39 82.17Q229.36 82.86 229.27 84.19Q229.15 85.79 227.2 88.52Q225.03 91.55 220.05 96.62Q219.51 97.17 219.38 97.31L202.62 115.31Q196.09 122.25 184.68 137.75Q177.84 147.05 174.24 151.53L173.46 150.9L172.97 150.03Q178.4 146.96 189.48 141.51Q190.34 141.09 190.75 140.88Q193.78 139.39 194.52 138.68Q195.04 138.19 195.6 136.58Q196.15 135.03 196.64 133.89Q203.86 117.28 214.14 109.93Q226.29 101.25 245.47 99.72Q252.19 99.18 255.54 100.42Q257.94 101.31 260.58 104.06Q262 105.53 262.9 106.22Q264.18 107.19 267.28 108.12Q269.36 108.75 270.51 109.23Q272.79 110.17 276.55 112.76Q277.86 113.66 278.54 114.1Q281.27 115.87 284.87 116.28Q285.25 116.32 285.44 116.34Q291.43 117.02 297.59 119.09Q305 121.58 311.87 126.21Q318.54 130.7 329.62 142.05Q331.53 144 332.49 144.98Q339.27 151.85 343.24 157.45Q343.57 157.92 344.48 159.12Q349.91 166.23 349.84 169.57Q349.79 172.54 348.42 172.93Q347.2 173.28 345.79 171.42Q344.54 169.77 342.21 165.1Q341.7 164.08 341.56 163.83Q337.48 156.44 331.22 150.54Q327.75 147.28 319.84 142.51Q319.21 142.13 318.91 141.95Q315.95 140.16 310.41 136.06Q306.56 133.2 304.58 131.87Q290.97 122.73 273.63 121.78L273.68 120.78L274 119.83Q298.74 128.01 310.88 136.28Q312.66 137.49 316.45 139.96Q325.45 145.81 329.6 149.19Q336.64 154.93 340.11 160.9Q340.24 161.12 340.69 161.86Q342.43 164.72 343.21 166.22Q345.01 169.7 343.67 170.49Q341.88 171.54 334.88 163.34Q333.75 162.03 333.63 161.92Q322.86 152.4 302.4 145.42L302.73 144.47L303.09 143.54Q315.31 148.28 327.87 157.79Q330.36 159.68 334.82 164.01Q339.04 168.12 341.32 169.86Q343.98 171.89 349.95 175.22Q356.49 178.87 359.46 181.23L359.46 181.23Z" fill="#000000" fill-opacity="1.000000" fill-rule="evenodd"/>
</svg>
