<svg width="226.000000" height="191.000000" viewBox="0 0 226 191" fill="none" xmlns="http://www.w3.org/2000/svg" xmlns:xlink="http://www.w3.org/1999/xlink">
	<desc>
			Created with Pixso.
	</desc>
	<defs/>
	<mask id="mask1_5730" mask-type="alpha" maskUnits="userSpaceOnUse" x="-0.421997" y="-0.758301" width="226.111206" height="191.385254">
		<path id="Vector" d="M47.83 -0.76L225.68 70.96L177.43 190.62L-0.43 118.9L47.83 -0.76Z" fill="#FFFFFF" fill-opacity="1.000000" fill-rule="nonzero"/>
	</mask>
	<g mask="url(#mask1_5730)">
		<path id="Vector" d="M209.56 98.24C209.54 98.23 209.52 98.22 209.49 98.2C209.43 98.15 209.38 98.09 209.34 98.03C209.46 98.05 209.57 98.09 209.58 98.15C209.59 98.18 209.58 98.21 209.56 98.24ZM220.34 83.54L220.34 83.35L220.32 83.16C220.26 82.61 219.87 80.78 217.51 80.26C217.12 80.17 216.73 80.09 216.34 80.01L216.12 79.97C215.2 79.78 211.04 79.01 209.76 78.82C209.43 78.77 208.79 78.66 208.06 78.53C205.91 78.16 204.34 77.89 203.61 77.84C203.25 77.82 202.85 77.77 202.43 77.71C202.17 77.68 201.91 77.65 201.66 77.62C200.74 77.51 199.94 77.7 199.14 78.19C198.9 78.35 198.67 78.52 198.46 78.71C198.31 78.42 198.13 78.14 197.94 77.88C197.09 76.78 195.51 76.13 195.45 76.1C194.83 75.86 193.34 75.41 192.73 75.32C192.18 75.24 190.86 75.12 189.88 75.3C189.12 75.43 187.1 76.18 186.2 76.93C186.04 77.07 185.89 77.21 185.74 77.36C185.61 77.01 185.45 76.67 185.26 76.35C184.4 74.93 183.06 74.31 182.12 73.96C181.85 73.86 181.42 73.7 180.92 73.63C180.79 73.61 180.3 73.52 180.13 73.48C180.04 73.46 179.9 73.43 179.53 73.36C179.24 72.7 178.93 72.05 178.62 71.4L179.36 70.76L178.55 68.89C176.24 63.5 172.61 59.12 169.09 55.09C159.06 43.58 145.68 36.72 129.36 34.71C121.49 33.75 110.59 35.37 100.18 39.06C95.23 40.81 83.58 45.52 80.13 52.05C77.03 54.85 74.2 57.95 71.71 61.32C70.91 60.94 69.65 60.74 68.12 61.82L68.07 61.85C67.79 62.04 67.56 62.19 67.35 62.29C66.88 62.55 66.51 62.71 66.21 62.79L66.14 62.63C65.09 60.44 63.85 58.55 62.47 57.01C61.83 56.3 61.16 55.6 60.48 54.93C59.76 54.22 58.93 53.72 58.27 53.32L58.04 53.19C57.17 52.66 56.31 52.37 55.55 52.11C55.32 52.04 55.09 51.96 54.86 51.88C54.03 51.57 53.15 51.33 52.1 51.13C49.62 50.66 47.2 50.82 44.94 51.06C43.59 51.2 42.37 51.35 41.09 51.67C39.88 51.98 38.69 52.37 37.54 52.86C35.14 53.87 33.02 55.21 31.05 56.5C30.55 56.83 29.96 57.22 29.4 57.69C28.97 58.06 28.59 58.44 28.26 58.78C28.15 58.88 28.05 58.99 27.94 59.09C27.71 59.33 27.46 59.55 27.22 59.77C26.94 60.02 26.67 60.27 26.4 60.53C25.09 61.81 23.63 63.64 22.06 65.96C21.05 67.44 20.36 68.75 19.61 70.13C19.42 70.5 19.21 70.88 18.99 71.28C17.85 73.37 16.95 75.59 16.31 77.88C15.98 79.07 15.69 80.32 15.46 81.6C15.42 81.8 15.32 82.26 15.22 82.77C15 83.82 14.85 84.54 14.79 84.91C14.59 86.22 14.57 87.47 14.57 88.74C14.57 90.06 14.62 91.14 14.72 92.13C14.99 94.88 15.71 97.4 16.85 99.62C17.4 100.69 17.95 101.62 18.54 102.47C19.28 103.52 20.02 104.54 21.01 105.47C22.92 107.26 25.01 108.4 26.8 109.29C28.82 110.28 31.04 110.93 33.61 111.29C34.21 111.37 34.81 111.45 35.41 111.51C35.74 111.54 36.04 111.54 37.87 111.39C37.87 111.4 37.87 111.4 37.86 111.41L37.84 111.47C37.67 111.79 37.32 112.48 37.33 113.37C37.35 114.84 38.25 116.11 39.57 116.54C39.68 116.57 39.82 116.61 39.98 116.64C40.82 116.78 42.26 116.7 43.56 114.94L44.04 114.3C44.67 113.46 45.72 112.04 46.23 111.36C46.8 110.58 47.28 109.83 47.75 109.1C47.94 108.8 48.13 108.5 48.33 108.2C48.49 107.95 49.32 106.86 49.72 106.33L50.01 105.95C50.21 106.63 50.48 107.28 50.8 107.91C51.17 108.65 51.75 109.74 52.58 110.71C53.47 111.76 54.47 112.53 55.24 113.08C56.25 113.81 57.12 114.35 57.97 114.76C58.39 114.97 59.3 115.37 60.02 115.58L60.47 115.71C60.92 115.85 61.37 115.98 61.82 116.1C62.73 119.27 63.89 122.37 65.29 125.35C67.24 131.12 70.65 136.62 76.02 142.63C85.56 153.33 97.15 159.91 110.56 162.27C113.35 162.76 116.22 163.07 119.16 163.19C136.19 163.91 151.33 158.45 164.17 146.97C166.73 144.68 169.64 142.08 171 137.95L171.01 137.92C171.71 137.05 172.38 136.16 173.03 135.26C175.63 135.69 178.87 136.22 179.85 136.34C180.49 136.41 181.11 136.49 181.69 136.61C182 136.68 182.32 136.73 182.63 136.78C183.02 136.85 183.39 136.91 183.7 137C184.7 137.26 185.71 137.49 186.73 137.68C187.63 137.87 188.37 137.74 188.96 137.51C189.13 137.7 189.32 137.88 189.52 138.03C190.09 138.45 190.75 138.74 191.46 138.86C193.08 139.14 194.85 138.61 195.96 137.35C196.98 136.19 197.48 134.73 197.29 133.43C197.14 132.31 196.52 131.36 195.54 130.74C195.09 130.45 194.58 130.24 194.05 130.12C195.33 127.93 196.02 126.49 196.1 125.85C196.26 124.5 195.56 123.26 194.4 122.71C193.03 121.92 191.11 121.98 189.64 123.88C188.93 124.62 185.25 127.14 184.17 127.67C183.53 127.98 182.87 128.27 182.19 128.51C181.72 128.68 181.35 128.79 181.06 128.78C180.57 128.76 180.02 128.67 179.36 128.56C179.11 128.52 178.8 128.47 178.48 128.42L178.52 128.33C178.62 128.06 178.8 127.74 178.98 127.39C179.07 127.24 179.16 127.08 179.24 126.92C179.44 126.53 180.85 124.23 181.78 122.7L182.42 121.66C182.44 122.1 182.55 122.54 182.75 122.94C182.96 123.37 183.25 123.74 183.62 124.04C183.99 124.34 184.42 124.56 184.88 124.67C185.87 124.91 186.92 124.69 187.77 124.06C188.7 123.37 189.24 122.44 189.64 121.76C189.71 121.64 189.78 121.52 189.85 121.41C190.12 120.97 190.41 120.53 190.69 120.09C190.87 119.8 191.06 119.52 191.24 119.23C191.47 118.87 191.72 118.51 192 118.12C192.57 117.3 193.22 116.36 193.73 115.3L193.75 115.26C194.02 114.69 194.74 113.19 193.95 111.66C193.75 111.27 193.47 110.93 193.13 110.66C192.79 110.38 192.39 110.18 191.97 110.07C191.27 109.89 190.64 109.98 190.14 110.15C190.35 109.86 190.54 109.62 190.67 109.44C190.88 109.16 191.08 108.87 191.29 108.59C191.51 108.28 191.73 107.97 191.96 107.66C192.14 107.44 192.31 107.21 192.48 106.98C192.75 106.6 193.01 106.24 193.27 105.96C193.36 105.85 193.46 105.74 193.56 105.64L193.74 105.67C194.43 105.78 195.12 105.89 195.8 106.01C196.48 106.13 197.15 106.3 197.81 106.51C198.26 106.66 198.5 106.77 198.63 106.85C198.63 106.96 198.63 107.1 198.63 107.21L198.63 107.26C198.63 107.57 198.61 107.8 198.56 107.95C198.49 108.17 198.41 108.39 198.34 108.6C198.13 109.21 197.92 109.83 197.75 110.51L197.7 110.64C197.37 111.58 196.75 113.34 197.86 114.85C198.48 115.69 199.45 116.16 200.53 116.12C202.3 116.06 203.26 114.71 203.62 114.21C203.64 114.18 203.66 114.15 203.68 114.12C204.2 113.52 204.55 112.89 204.82 112.36C205.06 111.88 205.43 111.37 205.82 110.83C205.94 110.67 206.05 110.51 206.17 110.34C206.58 109.76 206.94 109.17 207.29 108.6L207.48 108.28C207.98 107.47 208.6 106.47 208.94 105.25C209.23 104.2 209.19 103.35 208.98 102.68C209.13 102.68 209.27 102.69 209.41 102.68C212.26 102.46 214.58 100.18 214.68 97.46C214.7 96.79 214.57 96.13 214.3 95.52C214.02 94.91 213.62 94.37 213.11 93.94C212.56 93.48 211.92 93.15 211.24 92.97C210.55 92.79 209.83 92.77 209.13 92.9L209.13 92.9C209.03 92.92 208.92 92.95 208.82 92.98C209.07 92.58 209.32 92.19 209.58 91.82L209.78 91.54C209.88 91.39 209.97 91.25 210.07 91.11C210.26 90.85 210.44 90.58 210.62 90.32C210.87 89.94 211.11 89.59 211.36 89.26C211.81 88.67 212.2 88.07 212.58 87.49C212.71 87.29 212.84 87.09 212.97 86.9C213.06 87.13 213.17 87.35 213.31 87.56C213.54 87.91 213.84 88.21 214.19 88.44C214.54 88.67 214.94 88.82 215.35 88.89C215.92 88.99 217.78 89.12 218.88 86.85L218.89 86.84C218.93 86.76 219 86.66 219.07 86.54C219.84 85.31 220.31 84.51 220.33 83.54L220.34 83.54Z" fill="#FFFFFE" fill-opacity="1.000000" fill-rule="evenodd"/>
	</g>
	<g mask="url(#mask1_5730)">
		<path id="Vector" d="M181.18 109.53C175.41 142.16 144.32 163.97 111.73 158.23C79.14 152.5 57.39 121.4 63.15 88.76C68.92 56.13 100.01 34.33 132.6 40.06C165.19 45.79 186.94 76.9 181.18 109.53L181.18 109.53Z" fill="#FFFFFF" fill-opacity="1.000000" fill-rule="evenodd"/>
	</g>
	<path id="Vector" d="M132.56 40.38C129.66 40.09 126.84 39.59 124.02 39.58C117.85 39.55 118.6 38.93 119.61 44.9C119.63 45.03 119.78 45.15 119.95 45.38C124.47 44.99 129.88 47.19 132.56 40.38L132.56 40.38ZM116.29 39.57L102.09 43.5C103.25 44.95 104.04 46 104.89 46.98C105.22 47.35 105.76 47.88 106.1 47.82C109.86 47.08 113.59 46.24 117.48 45.4L116.29 39.57ZM131.7 45.46C144.6 47.16 156.05 51.71 166.19 59.57C165.16 58.08 164.07 56.69 162.82 55.47C156.39 49.18 148.74 44.99 140.2 42.32C135.94 40.99 134.79 41.35 131.7 45.46ZM82.14 55.61C83.84 46.8 112.39 35.94 129.17 37.98C144.14 39.8 157.08 45.87 167.1 57.42C170.58 61.43 173.96 65.59 176.07 70.53L175.33 71.18C174.67 70.66 173.92 70.23 173.37 69.61C162.41 57.47 148.81 50.3 132.66 48C131.9 47.89 130.53 48.04 130.39 48.41C130.07 49.26 130.05 50.49 130.47 51.26C131.15 52.52 132.16 53.68 133.23 54.64C137.16 58.15 141.19 61.54 145.13 65.02C146 65.78 146.69 66.73 147.47 67.59L146.94 68.28C146.33 67.98 145.64 67.79 145.14 67.36C140.54 63.45 135.96 59.52 131.42 55.54C129.16 53.57 127.17 51.39 127.87 47.68C125.5 47.72 123.43 47.63 121.39 47.88C120.96 47.93 120.3 49.22 120.36 49.88C120.74 53.75 121.31 57.6 121.77 61.46C121.86 62.24 121.76 63.04 121.74 63.84L120.94 64.05C120.62 63.22 120.16 62.42 120.01 61.57C119.36 57.81 118.75 54.05 118.23 50.27C118.01 48.66 117.43 47.87 115.68 48.24C114.4 48.51 113.06 48.53 111.78 48.79C110.26 49.09 108.35 49.11 107.4 50.05C106.58 50.86 106.85 52.8 106.64 54.24C106.32 56.39 105.84 58.43 102.77 59.63C103.89 56.51 105.41 54.01 104.02 50.77L89.95 57.2L89.34 56.36C90 55.72 90.57 54.87 91.36 54.46C94.59 52.76 97.89 51.2 101.16 49.59C101.77 49.29 102.39 49.01 103.01 48.72C101.13 44.75 100.1 44.16 96.68 46.22C92.64 48.65 88.87 51.54 85.02 54.28C84.18 54.88 83.49 55.69 82.73 56.4L82.14 55.62L82.14 55.61ZM129.76 120.61L134.96 157.6C148.58 154.5 159.41 147.51 168.52 137.43C167.4 140.81 164.92 143.06 162.48 145.24C150.26 156.19 135.92 161.43 119.56 160.74C103.15 160.06 89.43 153.43 78.5 141.17C73.37 135.42 69.07 129.13 67.37 121.29C74.5 135.62 84.39 147.12 99.43 153.64C92.86 140.76 88.67 134.84 87.8 120.36L88.84 120C89.13 120.77 89.6 121.52 89.68 122.31C90.9 135.24 94.38 139.78 100.5 151.13C102.19 154.27 104.42 156.06 108.01 156.86C115.48 158.52 122.92 159.28 130.53 158.38C132.59 158.14 133.26 157.51 132.95 155.33C131.46 145 130.13 134.65 128.77 124.3C128.61 123.13 128.62 121.94 128.55 120.76L129.76 120.61Z" fill="#000000" fill-opacity="1.000000" fill-rule="evenodd"/>
	<path id="Vector" d="M62.05 64.78C62.56 65.85 63.03 66.96 63.35 68.09C63.6 69.03 63.8 70.01 63.75 70.98C63.74 71.24 63.71 72.28 63.67 72.57C63.62 72.97 63.56 73.36 63.48 73.75C63.4 74.18 63.32 74.6 63.25 75.03C63.19 75.32 63.12 75.76 63.52 75.84C63.92 75.92 64.1 75.39 64.26 75.11C64.53 74.65 64.86 74.28 65.2 73.87C65.5 73.5 65.8 73.13 66.1 72.76C66.83 71.85 67.51 70.94 68.21 70.01C68.78 69.24 70.6 66.69 70.79 66.15C70.93 65.76 71.43 65.25 71.01 64.87C70.67 64.56 70.28 64.88 69.98 65.08C69.66 65.3 69.34 65.51 68.99 65.69C68.03 66.2 67.04 66.6 65.94 66.56C65.47 66.55 64.68 66.36 64.47 65.9C64.3 65.52 64.11 65.14 63.93 64.75C63.07 62.98 62 61.27 60.67 59.79C60.06 59.12 59.43 58.47 58.79 57.83C58.23 57.29 57.51 56.88 56.85 56.48C56 55.97 55.04 55.74 54.12 55.4C53.36 55.11 52.6 54.92 51.81 54.77C49.7 54.37 47.55 54.5 45.43 54.72C44.27 54.84 43.1 54.97 41.96 55.25C40.88 55.52 39.82 55.87 38.8 56.29C36.64 57.19 34.68 58.41 32.73 59.68C32.26 59.99 31.79 60.3 31.35 60.66C30.89 61.05 30.49 61.48 30.06 61.9C29.56 62.4 29.01 62.86 28.51 63.35C27.09 64.72 25.62 66.71 24.52 68.33C23.34 70.06 22.6 71.56 21.59 73.4C20.55 75.3 19.73 77.31 19.15 79.4C18.84 80.54 18.58 81.7 18.37 82.86C18.27 83.38 17.81 85.54 17.72 86.1C17.54 87.22 17.54 88.35 17.54 89.49C17.55 90.53 17.58 91.57 17.68 92.6C17.91 94.86 18.49 97.06 19.54 99.08C19.99 99.96 20.5 100.8 21.06 101.61C21.7 102.51 22.35 103.42 23.16 104.17C24.69 105.61 26.44 106.61 28.31 107.53C30.21 108.47 32.2 109 34.29 109.29C34.87 109.37 35.44 109.44 36.02 109.5C36.26 109.53 38.17 109.37 38.32 109.36C38.62 109.34 38.92 109.27 39.22 109.26C39.79 109.25 40.34 109.46 40.76 109.84C40.99 110.05 41.24 110.86 41.23 111.12C41.22 111.46 41.23 111.77 41.12 112.38C41.04 112.85 40.82 113.19 40.71 113.42C40.61 113.62 40.46 113.87 40.46 114.1C40.47 114.54 40.87 115.14 41.67 114.06C41.85 113.82 43.63 111.44 44.33 110.49C45.07 109.5 45.66 108.5 46.34 107.47C46.66 106.98 48.1 105.13 48.47 104.63C48.72 104.29 49.24 103.5 49.38 103.06C49.51 102.65 48.88 102.36 48.4 102.49C47.96 102.61 47.54 103.08 47.18 103.35C46.71 103.7 46.21 104.02 45.72 104.33C44.75 104.95 43.73 105.61 42.63 105.96C41.5 106.33 40.35 106.57 39.18 106.7C37.98 106.82 36.88 106.93 35.68 106.9C34.51 106.87 33.52 106.87 32.38 106.58C32.12 106.52 31.52 106.29 31.3 106.13C31.08 105.97 30.89 105.73 30.72 105.52C30.37 105.11 30.09 104.65 29.83 104.18C29.39 103.4 29 102.6 28.65 101.78C27.81 99.76 27.32 97.47 27.26 95.28C27.19 92.97 27.68 90.68 28.13 88.42C28.56 86.27 29.16 84.19 30.01 82.16C30.82 80.22 31.64 78.55 32.82 76.82C33.57 75.71 34.46 74.53 35.19 73.41C36.38 71.58 37.93 69.8 39.32 68.11C40.57 66.58 41.88 65.12 43.32 63.76C44.92 62.24 46.54 60.75 48.36 59.5C49.26 58.88 50.18 58.27 51.21 57.89C51.67 57.72 52.15 57.54 52.64 57.5C53.2 57.45 53.75 57.48 54.3 57.55C54.85 57.63 55.45 57.72 55.96 57.95C56.45 58.17 56.93 58.42 57.39 58.68C58.12 59.11 58.76 59.9 59.32 60.52C59.92 61.19 60.39 61.95 60.86 62.72C61.27 63.4 61.68 64.08 62.05 64.78Z" fill="#000000" fill-opacity="1.000000" fill-rule="evenodd"/>
	<path id="Vector" d="M79.49 94.49C79.14 95.66 78.72 96.79 78.17 97.89C77.46 99.31 76.71 100.71 75.84 102.03C75.35 102.78 74.95 103.6 74.46 104.36C73.98 105.1 73.43 105.77 72.84 106.42C71.81 107.59 70.71 108.7 69.34 109.47C67.9 110.28 66.72 110.35 64.72 110.29C63.35 110.07 61.72 109.62 61 108.27C60.13 106.63 60.21 104.65 60.51 102.87C60.73 101.57 61 100.25 61.53 99.04C62.21 97.51 62.96 96.04 63.81 94.6C65.39 91.92 67.1 89.27 69.31 87.06C70.51 85.85 71.92 84.89 73.42 84.09C74.16 83.69 74.93 83.31 75.78 83.21C76.14 83.16 76.53 83.14 76.88 83.26C77.09 83.32 77.36 83.43 77.54 83.54C77.6 83.57 78.33 84.09 78.48 84.23C78.65 84.4 78.8 84.74 78.92 84.95C79.12 85.34 79.26 85.71 79.41 86.12C79.71 86.91 79.81 87.74 79.91 88.58C80.02 89.55 79.96 90.55 79.93 91.52C79.89 92.52 79.75 93.52 79.49 94.49ZM79.9 108.52C81.23 107.28 82.37 105.9 83.48 104.47C84.45 103.22 85.35 101.98 86.03 100.56C86.46 99.67 86.9 98.76 87.24 97.84C87.57 96.96 87.76 96.04 87.91 95.12C88.2 93.36 88.12 91.54 87.61 89.83C87.31 88.88 86.97 87.95 86.59 87.03C86.25 86.22 85.79 85.48 85.28 84.76C84.83 84.13 84.31 83.55 83.73 83.03C83.07 82.43 82.44 81.9 81.68 81.43C80.92 80.96 80.11 80.37 79.26 80.06C78.45 79.77 77.6 79.52 76.76 79.37C75.83 79.21 74.89 79.15 73.95 79.19C73.5 79.21 72.99 79.23 72.55 79.26C72.08 79.28 71.62 79.36 71.16 79.45C69.32 79.83 67.48 80.56 65.82 81.43C65 81.86 64.06 82.3 63.3 82.82C62.55 83.34 61.86 83.76 61.09 84.27C59.66 85.22 58.36 86.38 57.22 87.66C56.2 88.8 55.33 89.83 54.63 91.07C54.12 91.99 53.81 92.93 53.49 93.87C53.2 94.77 52.99 95.69 52.86 96.63C52.63 98.3 52.46 99.95 52.5 101.63C52.52 102.59 52.73 103.6 52.91 104.54C53.06 105.37 53.36 106.16 53.74 106.92C54.13 107.69 54.58 108.48 55.15 109.14C55.78 109.88 56.51 110.48 57.3 111.04C58.03 111.57 58.81 112.08 59.62 112.47C60.04 112.68 60.75 112.98 61.21 113.11C61.59 113.23 62.91 113.62 63.33 113.72C63.84 113.84 64.48 113.98 64.99 114.06C65.98 114.21 66.79 114.19 67.78 114.06C68.75 113.94 69.69 113.71 70.62 113.43C71.09 113.28 71.54 113.11 72.01 112.96C72.43 112.83 72.86 112.7 73.26 112.52C73.58 112.38 73.94 112.22 74.27 112.1C74.72 111.94 75.11 111.74 75.53 111.53C76.39 111.12 77.19 110.6 77.96 110.05C78.63 109.57 79.3 109.08 79.9 108.52ZM143.6 95.28C144.12 95.45 144.5 95.66 144.83 96.1C145.15 96.53 145.38 97 145.33 97.55C145.23 98.68 144.91 99.85 144.58 100.93C144.43 101.43 144.22 101.88 144.03 102.36C143.95 102.54 143.88 102.75 143.98 102.93C144.08 103.11 144.28 103.17 144.46 103.09C144.86 102.92 145.16 102.33 145.39 101.99C145.52 101.81 147.56 98.8 148.26 97.78C148.65 97.23 149.05 96.69 149.47 96.16C149.71 95.85 150.02 95.54 150.16 95.16C150.33 94.67 150.12 94.15 149.71 93.87C149.03 93.41 145.26 92.97 144.26 92.82C143.38 92.69 139.6 92.03 138.58 91.85C137.53 91.66 136.49 91.41 135.43 91.27C134.34 91.12 133.26 90.92 132.16 90.75C131.03 90.58 129.9 90.39 128.77 90.15C128.28 90.04 127.8 89.95 127.3 89.92C127.08 89.91 126.33 89.9 126.18 90.1C125.7 90.74 127.13 90.91 127.27 91.33C127.36 91.63 127.07 92.17 126.95 92.46C126.77 92.89 126.61 93.34 126.36 93.76C125.88 94.59 125.45 95.46 124.93 96.27C124.52 96.92 124.07 97.56 123.7 98.23C123.53 98.53 123.38 98.83 123.21 99.13C123.22 99.12 123.23 99.12 123.24 99.11C122.81 99.76 122.47 100.47 122.05 101.14C121.58 101.9 121.06 102.63 120.59 103.4C119.95 104.46 119.34 105.53 118.75 106.62C118.38 107.32 118.03 108.02 117.68 108.73C117.33 109.43 116.92 110.11 116.57 110.82C116.09 111.78 113.6 116.22 112.77 117.44C112.37 118.03 112.03 118.66 111.59 119.23C111.03 119.96 110.26 120.32 109.41 120.61C109.15 120.7 108.86 120.75 108.62 120.92C108.29 121.16 108.28 121.56 108.61 121.79C108.92 122 109.32 122.06 109.67 122.13C110.02 122.21 110.37 122.28 110.71 122.36C111.6 122.56 119.24 123.62 119.57 123.65C119.76 123.67 119.96 123.72 120.15 123.75C120.4 123.79 120.68 123.83 120.92 123.73C121.28 123.56 121.36 123.13 121.15 122.81C120.97 122.53 120.66 122.37 120.45 122.12C120.17 121.79 120.13 121.37 120.23 120.95C120.3 120.61 128.2 106.72 128.23 106.66C128.25 106.54 128.3 106.52 128.39 106.59C128.6 106.59 128.87 106.74 129.06 106.81C129.24 106.86 129.42 106.92 129.6 106.97C129.89 107.06 130.18 107.14 130.47 107.23C130.95 107.36 131.46 107.46 131.91 107.68C132.23 107.84 132.53 108.1 132.54 108.48C132.55 108.85 132.45 109.21 132.41 109.58C132.38 109.9 132.03 111.25 132.62 111.21C133 111.18 133.32 110.56 133.48 110.27C133.66 109.95 133.85 109.64 134.03 109.31C134.86 107.78 135.93 106.39 136.73 104.83C136.85 104.6 137.26 104 137.08 103.74C136.87 103.42 136.4 103.95 136.23 104.09C135.59 104.67 134.94 105.3 134.17 105.7C133.81 105.89 133.4 106.05 132.99 106.12C132.63 106.18 132.3 106.07 131.95 105.98C131.57 105.88 131.18 105.79 130.8 105.68C130.21 105.53 129.65 105.34 129.07 105.16C129.47 104.55 131.18 101.39 131.34 101.07C131.84 100.08 132.44 99.13 133 98.18C133.34 97.6 133.64 96.99 133.94 96.39C134.19 95.91 134.44 95.36 134.77 94.93L134.74 94.95C134.92 94.68 135.16 94.17 135.44 94C135.7 93.85 136.08 93.81 136.38 93.79C136.77 93.76 137.16 93.77 137.54 93.83C137.92 93.89 138.29 94.02 138.67 94.1C139.5 94.27 140.31 94.41 141.13 94.63C141.95 94.85 142.78 95.04 143.6 95.28L143.6 95.28ZM115.08 89.11C115.74 89.34 116.33 89.8 116.81 90.3C117.06 90.56 117.3 90.86 117.45 91.19C117.54 91.39 117.58 91.49 117.53 91.71L117.5 91.86C117.37 92.44 116.42 94.8 116.24 95.06C115.96 95.45 115.31 96.2 115.87 96.64C116.41 97.08 116.97 96.34 117.26 95.95C117.91 95.07 118.45 94.09 119.06 93.18C119.27 92.86 119.46 92.51 119.72 92.21C119.89 92.01 120.05 91.8 120.21 91.59C120.55 91.15 120.83 90.66 121.19 90.23C121.53 89.83 122.27 89.16 122.06 88.57C121.88 88.05 121.23 87.94 120.77 87.87C120.22 87.78 119.66 87.78 119.11 87.67C118.55 87.57 117.99 87.5 117.42 87.42C116.65 87.31 115.88 87.24 115.12 87.09C114.74 87.01 114.37 86.94 113.99 86.86C111.98 86.46 109.94 86.21 107.93 85.84C105.78 85.44 103.6 85.21 101.47 84.71C100.33 84.44 99.08 84.03 97.9 84.13C97.64 84.15 97.26 84.2 97.29 84.55C97.32 84.83 97.63 84.92 97.78 85.11C98.04 85.46 98.27 86 98.24 86.43C98.21 86.91 98.16 87.37 97.93 87.8C97.73 88.18 97.52 88.55 97.31 88.91C96.87 89.66 96.45 90.41 96 91.14C95.45 92.01 94.95 92.92 94.38 93.78C93.61 94.96 92.81 96.1 92.1 97.32C90.82 99.48 89.53 101.63 88.21 103.77C87.68 104.64 81.82 113.85 81.2 114.49C80.69 115.02 80 114.99 79.34 115.18C79.08 115.25 78.74 115.35 78.68 115.66C78.61 116.03 78.98 116.16 79.26 116.23C79.66 116.33 80.07 116.36 80.48 116.43C81.13 116.54 88.94 118.13 89.47 118.24C89.96 118.35 90.82 118.6 91.15 118.48C91.4 118.39 91.5 118.13 91.42 117.88C91.34 117.62 91.09 117.47 90.88 117.33C90.7 117.21 90.51 117.1 90.41 116.89C90.23 116.53 90.26 116.07 90.36 115.69C90.52 115.11 90.79 114.52 91.09 113.99C91.43 113.4 91.76 112.8 92.13 112.22C92.47 111.66 93.35 110.21 93.4 110.14C93.47 110.04 93.87 109.43 94 109.24C94.73 108.18 95.39 107.08 96.1 106C96.55 105.3 97.93 103.34 98.15 103.04C98.5 102.55 98.81 101.89 99.37 101.61C99.54 101.52 99.84 101.27 100.02 101.24C100.2 101.21 100.51 101.34 100.69 101.38C100.96 101.43 101.22 101.48 101.49 101.53C101.93 101.61 102.37 101.72 102.81 101.8C102.99 101.84 103.17 101.87 103.36 101.91L103.59 101.96C103.71 101.98 104.13 101.99 104.2 102.08C104.26 102.15 104.22 102.44 104.22 102.55C104.21 102.7 104.19 102.84 104.14 102.98C104.04 103.31 103.84 103.58 103.69 103.88C103.53 104.18 102.9 105.31 103.6 105.31C104.19 105.31 104.85 104.58 105.2 104.17C105.51 103.81 105.8 103.43 106.08 103.04C106.42 102.55 106.75 102.04 107.06 101.52C107.45 100.88 107.91 100.23 108.09 99.49C108.2 99.02 108.18 98.1 107.51 98.61C106.97 99.01 106.64 99.66 106.06 100.02L106.11 100C105.77 100.19 105.46 100.42 105.13 100.63L105.16 100.62C105.08 100.66 105 100.72 104.92 100.75C104.7 100.86 104.41 100.84 104.16 100.83C103.84 100.81 103.51 100.72 103.19 100.67C102.37 100.53 101.3 100.47 100.8 99.72C100.76 99.66 100.73 99.61 100.69 99.55C100.6 99.42 100.57 99.39 100.62 99.25C100.71 98.99 100.93 98.72 101.07 98.48C101.26 98.15 101.46 97.81 101.63 97.46C102 96.75 102.36 96.04 102.74 95.33C103.72 93.5 104.74 91.67 106.04 90.05C106.59 89.38 107.13 88.72 107.69 88.06C107.82 87.91 107.87 87.81 108.05 87.8C108.15 87.79 108.25 87.81 108.35 87.81C108.84 87.83 109.31 87.84 109.79 87.92C111.39 88.18 112.97 88.54 114.54 88.95L114.48 88.93C114.68 88.99 114.88 89.05 115.08 89.11L115.08 89.11ZM164.47 120.96C164.49 120.82 164.43 120.69 164.28 120.65C164.16 120.63 163.74 120.04 162.97 121.06C162.24 122.01 157.85 124.97 156.57 125.6C155.83 125.97 155.07 126.29 154.3 126.57C153.6 126.82 152.91 127.02 152.15 127C151.46 126.98 150.77 126.86 150.09 126.75C149.23 126.6 147.56 126.34 147.59 126.34C147.25 126.2 146.7 126.09 146.4 125.77C146.27 125.63 146.28 125.19 146.28 125.01C146.29 124.22 146.84 123.48 147.12 122.76C147.35 122.17 147.68 121.63 147.97 121.07C148.36 120.31 152.03 114.39 152.27 113.93C152.52 113.46 152.79 113.01 153.06 112.56C153.13 112.43 153.19 112.25 153.31 112.22C153.44 112.18 153.66 112.24 153.8 112.25C154.32 112.28 154.84 112.35 155.36 112.43C155.82 112.5 156.28 112.6 156.72 112.72C156.91 112.77 157.09 112.8 157.21 112.93C157.37 113.09 157.42 113.3 157.41 113.52C157.38 114 157.17 114.53 157.02 114.98C156.9 115.34 156.75 115.68 156.63 116.03C156.51 116.36 156.26 116.82 156.43 117.17C156.6 117.53 157.01 117.47 157.28 117.27C157.87 116.83 158.26 116.01 158.64 115.39C159.1 114.66 159.58 113.93 160.04 113.2C160.81 112 161.75 110.87 162.36 109.58C162.49 109.3 162.78 108.74 162.62 108.43C162.43 108.05 161.95 108.37 161.72 108.52C160.92 109.06 160.38 109.88 159.67 110.51C159.32 110.82 158.88 111.1 158.42 111.21C157.95 111.31 157.48 111.21 157.02 111.11C156.42 110.98 155.82 110.89 155.22 110.77C154.89 110.71 154.56 110.66 154.22 110.62C155.02 109.48 158.6 104.6 159.6 103.27C160.05 102.67 160.46 102.05 160.91 101.46C161.39 100.85 161.83 100.18 162.34 99.6C162.61 99.3 163.39 98.45 163.63 98.33C163.72 98.27 164.33 98.3 164.44 98.28C164.6 98.27 164.83 98.34 164.98 98.37C165.8 98.5 166.62 98.62 167.44 98.77C168.24 98.91 169.03 99.11 169.8 99.36C170.81 99.69 171.98 100.2 172.37 101.28C172.54 101.76 172.54 102.25 172.54 102.75C172.54 103.28 172.49 103.8 172.32 104.31C172.06 105.12 171.76 105.92 171.55 106.75C171.45 107.14 170.67 108.84 171.56 108.81C172.07 108.79 172.39 108.11 172.68 107.78C172.99 107.42 173.23 107 173.45 106.57C173.87 105.74 174.46 104.99 174.99 104.22C175.43 103.61 175.82 102.95 176.21 102.31C176.66 101.59 177.12 100.83 177.35 100.01C177.46 99.59 177.57 99.04 177.22 98.7C176.92 98.42 174.58 98.14 173.84 98.02C173.02 97.88 172.21 97.73 171.38 97.61C171.05 97.56 163.64 96.25 162.65 96.05C161.77 95.87 156.5 94.67 156.06 94.52C155.84 94.45 155.37 94.21 155.22 94.54C155.18 94.63 155.16 94.73 155.17 94.83C155.18 94.85 155.22 94.99 155.26 95.04C155.38 95.23 155.58 95.62 155.6 95.75C155.64 95.98 155.65 96.21 155.63 96.44C155.6 96.81 155.41 97.01 155.19 97.29C154.76 97.84 154.33 98.38 153.92 98.94C152.99 100.2 152.15 101.51 151.27 102.8C150.32 104.21 149.26 105.55 148.33 106.96C147.63 108.02 147.01 109.13 146.4 110.23C145.94 111.06 145.39 111.81 144.88 112.6C144.47 113.23 144.08 113.88 143.71 114.54C143.27 115.31 142.81 116.08 142.23 116.77C141.87 117.21 138.92 122.08 138.61 122.7C138.46 123 138.3 123.3 138.13 123.58C137.94 123.89 137.77 124.34 137.42 124.49C136.96 124.69 136.49 124.88 136.02 125.05C135.74 125.16 135.42 125.23 135.21 125.46C134.92 125.78 135.03 126.2 135.41 126.36C136.02 126.63 136.78 126.63 137.44 126.7C138.14 126.78 138.82 126.9 139.5 127.03C140.76 127.28 149.78 128.79 151.37 128.98C152.07 129.07 152.75 129.16 153.44 129.3C154.16 129.45 154.89 129.52 155.61 129.72C156.53 129.97 157.47 130.18 158.41 130.35C158.76 130.42 159.08 130.38 159.39 130.19C159.7 130 160.29 128.89 160.43 128.62C160.62 128.24 161.68 126 162.1 125.31C162.58 124.51 164.43 121.24 164.47 120.96ZM90.11 65.62C89.6 67.03 88.21 67.96 86.75 68.21C86.23 68.3 85.75 68.24 85.23 68.2C84.81 68.16 84.38 68.2 83.97 68.15C83.53 68.09 83.1 68.02 82.66 67.99C83.43 67.04 84.09 65.98 84.8 64.99C85.39 64.16 85.97 63.24 86.79 62.62C87.14 62.35 87.71 62.05 88.16 62.12C88.69 62.19 89.13 62.32 89.56 62.62C90.01 62.93 90.29 63.31 90.36 63.86C90.44 64.46 90.29 65.05 90.11 65.62ZM86.37 71.28C86.09 72.06 85.72 72.82 85.28 73.52C84.81 74.28 84.11 74.93 83.26 75.21C82.44 75.47 81.47 75.56 80.62 75.49C79.86 75.42 79.13 75.19 78.38 75.07C79.04 73.72 79.82 72.39 80.63 71.12C81.05 70.47 81.39 69.76 81.82 69.13C81.92 68.98 81.99 68.8 82.15 68.77C82.27 68.75 82.47 68.82 82.59 68.84C83.13 68.92 83.66 68.99 84.2 69.05C84.75 69.11 85.5 69.1 85.92 69.5C86.43 69.99 86.55 70.61 86.37 71.28ZM94 64.75C93.96 64.45 93.91 64.14 93.77 63.88C93.62 63.61 93.46 63.35 93.28 63.1C92.91 62.59 92.27 62.32 91.69 62.11C90.95 61.85 87.24 61.19 86.73 61.1C86.16 60.99 85.59 60.87 85.02 60.78C84.27 60.65 83.52 60.49 82.77 60.4C82.47 60.36 81.36 60.08 81.7 60.66C81.72 60.7 81.77 60.74 81.8 60.8C81.84 60.88 81.86 60.98 81.89 61.06C81.94 61.19 81.99 61.31 82.03 61.43C82.15 61.73 82.2 61.89 82.04 62.19C81.77 62.7 81.35 63.15 81.01 63.61C80.79 63.89 80.57 64.17 80.36 64.45C79.99 64.93 79.63 65.42 79.3 65.93C78.75 66.76 78.13 67.54 77.58 68.36C76.98 69.25 76.41 70.18 75.78 71.05C75.25 71.78 74.67 72.49 74.13 73.23C73.95 73.48 73.78 73.76 73.61 74.02C73.32 74.48 72.8 74.52 72.34 74.73C72.15 74.82 72.1 75.05 72.3 75.16C72.4 75.22 72.6 75.23 72.72 75.25C73.14 75.32 73.57 75.35 74 75.41L74.36 75.46C74.41 75.47 74.48 75.47 74.52 75.48C74.62 75.53 76.06 75.78 76.32 75.83C76.55 75.87 78.34 76.15 78.57 76.19C78.86 76.24 79.14 76.29 79.43 76.36C80.3 76.56 81.16 76.79 82.05 76.93C83.32 77.13 84.63 77.43 85.93 77.39C86.45 77.36 86.98 77.3 87.49 77.19C87.77 77.14 88.03 77.05 88.26 76.88C88.35 76.8 88.58 76.68 88.65 76.59C88.72 76.5 89.1 76.05 89.25 75.89C89.44 75.68 89.54 75.41 89.69 75.18C89.91 74.82 90.07 74.4 90.21 74.01C90.66 72.75 90.89 71.43 90.14 70.23C89.84 69.75 89.43 69.43 88.92 69.18C89.31 69.17 89.74 69.05 90.11 68.95C90.8 68.76 91.47 68.42 92.07 68.02C93.12 67.33 94.19 66.1 94 64.75L94 64.75ZM112.59 65.66C112.76 65.56 112.91 65.37 112.85 65.17C112.8 64.96 112.57 64.98 112.38 64.94C111.89 64.82 110.5 64.6 110.39 64.57C110.12 64.48 109.74 64.44 109.48 64.37C109.07 64.25 108.51 64.12 108.08 64.23C107.72 64.33 107.63 64.65 107.9 64.94C108.22 65.29 108.8 65.32 109.16 65.62C109.7 66.06 108.94 67.05 108.71 67.51C108.47 68.01 105.94 72.04 105.32 72.92C104.75 73.73 104.23 74.55 103.57 75.27C102.87 76.04 102.1 76.72 101.2 77.24C100.4 77.71 99.31 78.2 98.38 77.81C98.16 77.72 97.96 77.58 97.79 77.42C97.72 77.35 97.64 77.27 97.57 77.2C97.49 77.12 97.37 76.38 97.41 76.24C97.47 76.01 97.54 75.78 97.62 75.55C97.88 74.72 98.33 73.75 98.71 72.9C99.11 72.02 99.52 71.15 99.97 70.3C100.55 69.18 101.2 68.1 101.82 67.01C102.01 66.68 102.23 66.37 102.44 66.05C102.65 65.72 102.86 65.32 103.2 65.12C103.6 64.88 105.32 64.8 104.86 63.97C104.69 63.68 104.32 63.64 104.03 63.57C103.77 63.51 103.5 63.47 103.23 63.41C102.39 63.2 101.51 63.11 100.66 62.95C100.04 62.84 99.45 62.69 98.81 62.61C98.6 62.58 97.99 62.42 97.92 62.76C97.91 62.85 97.95 62.91 97.94 63C97.93 63.08 98.25 63.48 98.39 63.61C98.45 63.67 98.63 63.85 98.66 63.88C98.71 63.93 98.74 64.04 98.76 64.1C98.8 64.26 98.77 64.28 98.68 64.44L98.71 64.4C98.09 65.33 97.51 66.29 96.98 67.27C96.66 67.87 96.36 68.49 96.03 69.08C95.78 69.54 95.5 69.97 95.27 70.44C94.72 71.52 94.17 72.65 93.72 73.79C93.48 74.41 93.27 75.09 93.35 75.77C93.43 76.43 93.77 76.99 94.27 77.43C94.7 77.8 95.18 78.08 95.69 78.33C96.02 78.48 96.35 78.56 96.68 78.71C96.93 78.83 97.71 79.03 97.84 79.04C98.01 79.05 98.18 79.09 98.36 79.1C98.71 79.12 99.1 79.19 99.45 79.15C100.13 79.08 100.8 79.03 101.43 78.76C103.46 77.89 105.79 75.09 107.04 72.68C107.43 71.93 107.84 71.2 108.23 70.46C108.63 69.73 109.11 69.04 109.47 68.29C109.62 67.97 109.78 67.64 109.93 67.31L110.2 66.77C110.26 66.64 110.42 66.26 110.54 66.17C110.72 66.02 111.12 66.08 111.36 66.04C111.79 65.96 112.21 65.87 112.59 65.66L112.59 65.66ZM130.71 68.96C130.55 68.54 129.77 68.52 129.41 68.45C128.82 68.33 128.24 68.21 127.65 68.12C127.12 68.04 126.61 67.96 126.09 67.84C125.69 67.74 125.29 67.64 124.88 67.56C123.28 67.25 121.64 67.12 120.04 66.81C119.63 66.73 119.22 66.66 118.82 66.58C118.03 66.42 117.25 66.37 116.46 66.28C115.96 66.22 115.46 66.15 114.97 66.09C114.75 66.07 114.54 66.01 114.34 66.09C114.14 66.17 113.93 66.34 113.77 66.49C113.57 66.67 113.41 66.86 113.25 67.09C113.09 67.32 112.85 67.49 112.67 67.72C112.45 68 112.09 68.65 112.67 68.77C112.97 68.83 113.29 68.58 113.54 68.44C113.77 68.29 114 68.14 114.23 67.98C114.79 67.61 115.3 67.26 115.98 67.21C116.61 67.17 117.26 67.27 117.87 67.38C118.17 67.43 118.46 67.49 118.75 67.54C118.91 67.56 119.54 67.57 119.61 67.7C119.51 68.13 119.07 68.55 118.79 68.89C118.43 69.32 118.09 69.77 117.77 70.23C117.12 71.14 116.49 72.06 115.87 72.99C115.29 73.86 114.72 74.75 114.17 75.65C113.97 75.98 113.75 76.31 113.54 76.64C113.36 76.94 112.07 78.89 111.62 79.57C111.32 80.02 110.95 80.39 110.43 80.56C110.05 80.68 109.57 80.67 109.28 80.99C108.85 81.44 109.34 81.81 109.78 81.91C110.31 82.02 110.88 82.04 111.42 82.09C112.36 82.17 113.3 82.29 114.22 82.47C114.9 82.6 115.58 82.76 116.27 82.88C116.63 82.95 116.99 83.06 117.36 83.12C117.88 83.19 118.32 82.85 118.08 82.3C117.94 81.98 117.51 81.72 117.43 81.39C117.33 81.01 117.61 80.59 117.78 80.28C118.05 79.82 118.34 79.38 118.62 78.93C119.37 77.76 120.09 76.58 120.87 75.44C121.87 73.99 122.92 72.57 123.86 71.08C124.11 70.68 124.38 70.28 124.67 69.9C124.85 69.68 125.03 69.46 125.21 69.24C125.3 69.14 125.46 68.84 125.59 68.79C125.64 68.76 125.72 68.8 125.78 68.81C126.08 68.88 126.38 68.94 126.67 69.01C127.13 69.11 127.58 69.21 128.05 69.28C128.31 69.31 128.56 69.37 128.81 69.46C129.02 69.54 129.06 69.62 129.07 69.84C129.08 70.27 128.84 70.7 128.78 71.13C128.72 71.6 129.12 71.97 129.41 71.47C129.67 71.04 129.95 70.6 130.21 70.16C130.39 69.86 130.86 69.34 130.71 68.96ZM154.22 73.42C154.31 73.65 154.36 73.88 154.38 74.13C154.4 74.35 154.35 74.67 154.5 74.85C154.86 75.27 155.27 74.53 155.45 74.3C155.71 73.99 156.34 73.41 156.23 72.96C156.17 72.72 155.96 72.71 155.75 72.66C155.48 72.6 155.22 72.51 154.95 72.43C153.8 72.14 143.01 70.47 141.9 70.31C141.7 70.28 141.5 70.25 141.29 70.21C141.25 70.21 141.16 70.2 141.12 70.18C141.07 70.16 140.55 70.1 140.42 70.14C140.22 70.2 140.05 70.25 140.01 70.49C139.96 70.76 140.17 70.98 140.37 71.12C140.48 71.19 140.81 71.29 140.84 71.4C140.89 71.55 140.66 71.93 140.6 72.05C140.46 72.34 140.33 72.63 140.21 72.92C139.42 74.83 138.29 76.58 137.25 78.35C136.95 78.86 136.71 79.39 136.41 79.89C136.11 80.37 135.82 80.86 135.53 81.34C135.27 81.77 135.02 82.2 134.73 82.6C134.57 82.82 134.04 83.71 133.86 83.93C133.66 84.19 133.5 84.26 133.19 84.33C132.94 84.39 132.69 84.45 132.46 84.55C132.04 84.75 131.79 85.21 132.32 85.44C132.78 85.64 133.31 85.71 133.79 85.84C134.13 85.94 138.93 86.56 138.96 86.58C139.16 86.7 139.41 86.65 139.5 86.42C139.66 86.06 139.31 85.77 139.05 85.59C138.89 85.49 138.77 85.45 138.76 85.27C138.75 85.06 139.02 84.71 139.12 84.53C139.37 84.06 139.63 83.6 139.89 83.14C140.26 82.49 140.64 81.86 141.03 81.23C141.45 80.55 141.86 79.87 142.27 79.19C142.38 79.01 142.49 78.84 142.6 78.66C142.64 78.6 142.71 78.43 142.78 78.39C142.88 78.33 143.08 78.4 143.21 78.42C143.82 78.52 144.43 78.6 145.03 78.7C145.58 78.79 146.12 78.87 146.67 78.94C147.04 79 146.45 79.8 146.75 79.93C147.07 80.08 147.33 79.66 147.51 79.47C147.72 79.25 148.75 77.92 148.22 77.87C147.9 77.84 147.71 78.18 147.01 78.13C146.62 78.1 146.33 78.04 145.94 77.99C145.06 77.88 144.21 77.66 143.35 77.42C143.66 76.95 143.98 76.48 144.28 76L144.24 76.04C144.77 75.27 145.25 74.45 145.77 73.67C146.15 73.08 146.67 71.95 147.49 71.94C147.76 71.94 150.4 72.27 150.94 72.39C151.53 72.51 154.07 72.96 154.12 73.03C154.16 73.07 154.19 73.35 154.22 73.42ZM165.71 76.7C166.22 76.03 167.15 76.19 167.87 75.96C168.13 75.87 168.47 75.71 168.53 75.42C168.57 75.25 168.5 75.11 168.39 74.99C168.34 74.95 168.25 74.86 168.17 74.85C168.08 74.84 167.63 74.8 167.47 74.76C167.28 74.71 163.77 74.24 162.89 74.12C162.07 74 159.6 73.49 159.14 73.49C159.02 73.5 158.67 73.4 158.51 73.49C158.44 73.56 158.41 73.63 158.43 73.59C158.38 73.66 158.37 73.7 158.38 73.8C158.39 73.86 158.45 73.94 158.5 73.98C158.69 74.18 158.86 74.37 159.07 74.55C159.33 74.78 159.51 74.88 159.46 75.27C159.41 75.68 159.2 76.08 159.02 76.44C158.41 77.61 155.64 82.21 154.89 83.4C154.56 83.93 153.02 86.61 152.69 86.92C152.81 86.8 152.6 86.98 152.55 87.01C152.44 87.08 152.31 87.14 152.19 87.19C151.88 87.34 151.56 87.44 151.23 87.56C150.94 87.67 149.81 88 150.31 88.51C150.53 88.73 153.51 89.15 154.17 89.32C154.81 89.49 158.43 90.01 158.73 90.07C158.97 90.12 159.23 90.21 159.42 90C159.86 89.53 159.08 89.2 158.79 89C158.75 88.96 158.64 88.91 158.61 88.86C158.54 88.76 158.54 88.77 158.58 88.64C158.61 88.56 158.63 88.48 158.67 88.4C158.76 88.14 158.89 87.9 159.02 87.66C159.3 87.15 159.56 86.63 159.86 86.13L159.83 86.16C160.38 85.35 162.03 82.45 162.38 81.85C162.89 80.99 163.38 80.11 163.95 79.29C164.54 78.44 165.07 77.52 165.71 76.7L165.71 76.7ZM173.59 81.67C174.23 80.71 174.75 79.69 175.43 78.75C175.71 78.36 175.95 77.95 176.22 77.55C176.3 77.43 176.38 77.3 176.48 77.17C176.53 77.11 176.71 76.87 176.79 76.83C176.99 76.76 177.22 76.8 177.76 77.02C178.27 77.19 178.85 77.53 179.1 78.04C179.36 78.56 179.25 79.23 179.09 79.77C178.98 80.16 178.75 80.47 178.52 80.8C178.21 81.22 177.9 81.62 177.52 81.98C177.3 82.2 177.06 82.4 176.82 82.6C176.71 82.69 176.59 82.79 176.47 82.88C176.41 82.94 176.17 83.17 176.09 83.17C175.96 83.16 175.66 82.84 175.53 82.76C175.37 82.65 175.17 82.5 175 82.42C174.47 82.18 173.98 82.04 173.47 81.86C173.51 81.8 173.55 81.73 173.59 81.67ZM181.23 91.96C181.26 91.79 181.23 91.56 181.04 91.51C180.85 91.45 180.67 91.66 180.57 91.8C180.32 92.16 180.31 92.58 179.88 92.81C179.55 92.99 178.99 93.04 178.63 93C178.2 92.95 177.94 92.48 177.79 92.08C177.19 90.55 177.63 89.1 177.59 87.53C177.56 86.33 177.19 85.2 176.67 84.14C177.47 84.06 178.26 83.91 179.02 83.64C179.76 83.38 180.52 83.19 181.22 82.82C182.37 82.22 183.31 81.31 183.57 79.99L183.58 79.9C183.54 80.14 183.6 79.8 183.6 79.78C183.61 79.71 183.61 79.64 183.61 79.57C183.61 79.4 183.6 79.23 183.56 79.06C183.48 78.66 183.33 78.28 183.13 77.93C182.75 77.3 182.09 76.96 181.42 76.71C181.21 76.63 181 76.55 180.77 76.52C180.65 76.5 179.99 76.39 179.78 76.34C179.05 76.18 171.18 74.92 171.11 74.89C170.96 74.84 170.81 74.88 170.65 74.92C170.34 75 170.41 75.25 170.67 75.38C170.92 75.51 171.21 75.57 171.47 75.7C171.62 75.77 171.77 75.78 171.76 75.95C171.75 76.06 171.64 76.22 171.59 76.33C171.47 76.62 171.32 76.89 171.16 77.17C170.7 78 170.18 78.8 169.68 79.59C169.24 80.27 167.76 82.67 167.44 83.18C167.14 83.66 164.92 87.47 164.46 88.21C164.32 88.44 164.17 88.67 164.01 88.89C163.87 89.07 163.7 89.23 163.52 89.37C163.39 89.46 163.31 89.48 163.16 89.56C163 89.63 162.68 89.77 162.7 89.95C162.71 90.05 162.79 90.07 162.86 90.11C162.98 90.15 163.15 90.19 163.28 90.22C163.53 90.29 163.79 90.32 164.05 90.36C164.53 90.43 166.75 90.9 167.38 91.05C167.7 91.13 168.96 91.4 169.07 90.98C169.14 90.71 168.83 90.58 168.71 90.39C168.54 90.14 168.51 89.9 168.58 89.6C168.7 89.04 169.11 88.56 169.39 88.07C170.37 86.35 171.53 84.71 172.67 83.1C172.7 83.06 172.73 83.01 172.76 82.97C172.89 82.78 172.89 82.75 173.06 82.89C173.34 83.1 173.59 83.4 173.71 83.73C173.98 84.47 173.82 85.31 173.77 86.08C173.72 86.89 173.71 87.71 173.71 88.53C173.71 89.3 173.6 90.08 173.65 90.86C173.7 91.63 173.9 92.4 174.38 93.02C174.81 93.58 175.44 93.98 176.08 94.27C176.8 94.59 177.53 94.63 178.31 94.49C178.99 94.37 179.79 94.15 180.33 93.68C180.87 93.21 181.1 92.63 181.23 91.96L181.23 91.96Z" fill="#000000" fill-opacity="1.000000" fill-rule="evenodd"/>
	<path id="Vector" d="M197.14 86C197.47 85.5 197.79 85.01 198.1 84.5C198.24 84.26 198.38 84.01 198.51 83.76C198.61 83.58 198.68 83.35 198.45 83.24C198.21 83.13 198.11 83.34 197.98 83.47C197.78 83.67 197.07 83.91 196.86 83.61C196.76 83.48 196.79 83.17 196.77 83.01C196.75 82.71 196.72 82.4 196.67 82.1C196.54 81.39 196.32 80.69 195.87 80.1C195.62 79.79 194.91 79.36 194.53 79.21C194.05 79.02 192.76 78.64 192.4 78.58C191.9 78.51 190.94 78.45 190.44 78.54C189.96 78.63 188.44 79.23 188.04 79.56C187.23 80.24 186.78 81.12 186.61 82.14C186.41 83.35 186.6 84.61 186.99 85.76C187.36 86.88 187.77 88.04 188.12 89.13L188.16 89.26C188.1 89.08 188.16 89.27 188.17 89.3C188.19 89.38 188.21 89.46 188.23 89.54C188.27 89.7 188.3 89.85 188.33 90.01C188.37 90.3 188.37 90.6 188.34 90.89C188.27 91.52 188.13 92.14 187.8 92.69C187.51 93.17 187.07 93.63 186.46 93.63C185.78 93.64 185.32 93.28 184.91 92.77C184.22 91.92 183.73 90.87 183.49 89.81C183.27 88.87 183.26 87.88 183 86.96C182.94 86.74 182.87 86.64 182.65 86.74C182.51 86.81 181.88 87.75 181.79 87.86C181.22 88.53 180.71 89.33 180.27 90.08C180.13 90.33 179.98 90.57 179.83 90.8C179.71 90.99 179.64 91.2 179.52 91.38C179.43 91.51 179.31 91.63 179.37 91.8C179.47 92.07 179.74 91.99 179.92 91.87C180.14 91.73 180.36 91.57 180.59 91.42C180.99 91.16 181.62 90.69 182.13 90.76C182.31 90.79 182.77 91.47 182.94 91.68C183.14 91.93 183.28 92.3 183.43 92.58C183.67 93.03 183.99 93.45 184.3 93.85C184.49 94.09 185.31 94.94 185.46 95.01C185.77 95.16 186.11 95.31 186.43 95.43C187.43 95.8 188.63 95.68 189.66 95.56C190.74 95.43 191.82 94.9 192.43 93.98C193.09 92.99 193.45 91.8 193.28 90.6C193.2 90.02 192.98 89.48 192.91 88.91C192.82 88.26 192.65 87.63 192.49 87C192.2 85.82 191.87 84.67 191.72 83.46C191.65 82.88 191.49 82.21 191.62 81.63C191.75 81.07 192.2 80.57 192.78 80.52C193.02 80.5 193.41 80.48 193.63 80.6C193.91 80.76 194.16 80.94 194.38 81.18C194.8 81.62 195.18 82.12 195.49 82.65C196.02 83.58 196.03 84.7 195.93 85.73C195.9 86.05 195.86 86.36 195.84 86.67C195.83 86.85 195.77 87.09 195.85 87.25C196.02 87.61 196.42 87.09 196.53 86.91C196.73 86.6 196.93 86.3 197.14 86ZM188.03 89.13L188.02 89.1L188.03 89.13ZM217.25 83.76C217.21 83.43 216.89 83.34 216.62 83.28C216.18 83.18 215.74 83.09 215.3 83C214.43 82.83 210.35 82.08 209.17 81.91C208.13 81.75 204.27 81.03 203.34 80.98C202.65 80.94 201.96 80.82 201.27 80.74C200.96 80.71 200.81 80.75 200.54 80.92C200.36 81.03 200.19 81.19 200.04 81.35C199.89 81.51 199.71 81.82 199.59 81.94C199.45 82.09 199.08 82.52 198.98 82.69C198.78 83.03 198.69 83.25 199.05 83.41C199.39 83.56 199.81 83.23 200.09 83.06C200.46 82.83 200.82 82.56 201.19 82.33C201.93 81.86 202.68 81.84 203.53 81.93C203.93 81.98 205.85 82.22 206.02 82.33C206.2 82.44 205.88 82.79 205.77 82.94C205.5 83.3 205.2 83.64 204.91 84C204.39 84.66 203.91 85.37 203.44 86.06C202.52 87.41 201.6 88.77 200.74 90.16C200.59 90.42 200.43 90.67 200.26 90.92C200.13 91.12 198.08 94.44 197.61 94.84C197.35 95.05 197.05 95.2 196.72 95.28C196.4 95.35 196.04 95.39 195.78 95.63C195.47 95.91 195.56 96.3 195.92 96.47C196.27 96.64 196.7 96.65 197.07 96.68C197.85 96.76 201.61 97.47 202.77 97.67C203.23 97.76 204.28 98.1 204.59 97.54C204.78 97.19 204.51 96.82 204.29 96.56C204.16 96.4 203.95 96.23 203.92 96.02C203.86 95.48 204.27 94.95 204.54 94.5C204.74 94.17 204.97 93.85 205.18 93.52C205.82 92.51 206.43 91.47 207.11 90.49C207.28 90.25 207.44 90 207.61 89.76C208.06 89.13 208.47 88.48 208.93 87.86C209.84 86.65 210.56 85.33 211.52 84.16C211.65 84 211.78 83.84 211.91 83.69C211.94 83.65 212.04 83.49 212.09 83.46C212.25 83.4 214.71 83.97 215.05 84.06C215.41 84.16 215.6 84.21 215.58 84.61C215.56 84.95 215.4 85.29 215.33 85.62C215.27 85.88 215.21 86.34 215.56 86.41C215.87 86.46 216.03 85.99 216.15 85.77C216.36 85.4 217.24 84.1 217.25 83.76L217.25 83.76ZM212.14 97.87C212.14 96.73 210.91 95.96 209.8 96.13C208.78 96.28 207.78 97.81 209.16 98.33C209.29 98.38 209.76 98.4 209.8 98.54C209.84 98.73 209.32 98.92 209.19 98.97C208.73 99.18 208.25 99.16 207.77 99.28C207.59 99.33 207.36 99.45 207.48 99.66C207.58 99.82 207.94 99.92 208.1 99.98C208.54 100.14 209 100.21 209.46 100.19C210.81 100.14 212.13 99.19 212.14 97.87ZM194.13 133.38C193.24 132.81 192.03 133.08 191.25 133.7C190.81 134.04 190.44 134.46 190.48 135.03C190.51 135.51 190.72 135.95 191.11 136.24C191.9 136.83 193.32 136.66 193.95 135.94C194.55 135.26 195.12 134 194.13 133.38ZM193.77 125.82C193.79 125.68 193.74 125.54 193.58 125.51C193.47 125.49 193.05 124.89 192.27 125.91C191.55 126.87 187.15 129.83 185.87 130.46C185.14 130.82 184.38 131.15 183.6 131.42C182.9 131.67 182.21 131.88 181.46 131.85C180.77 131.83 180.07 131.72 179.39 131.6C178.53 131.46 176.86 131.2 176.89 131.19C176.55 131.06 176.01 130.94 175.7 130.63C175.58 130.49 175.59 130.05 175.59 129.87C175.59 129.07 176.14 128.34 176.43 127.61C176.66 127.03 176.98 126.49 177.27 125.93C177.67 125.17 181.33 119.24 181.57 118.78C181.82 118.32 182.09 117.87 182.36 117.41C182.43 117.29 182.49 117.11 182.62 117.07C182.74 117.03 182.96 117.09 183.1 117.1C183.63 117.13 184.15 117.21 184.67 117.29C185.13 117.35 185.58 117.45 186.03 117.58C186.21 117.63 186.39 117.65 186.52 117.78C186.67 117.94 186.73 118.16 186.71 118.38C186.68 118.86 186.48 119.38 186.33 119.84C186.21 120.19 186.05 120.53 185.93 120.89C185.82 121.22 185.56 121.68 185.73 122.02C185.91 122.38 186.31 122.33 186.59 122.12C187.18 121.69 187.56 120.87 187.95 120.25C188.41 119.51 188.88 118.79 189.35 118.06C190.11 116.86 191.05 115.73 191.66 114.44C191.8 114.16 192.09 113.59 191.93 113.28C191.74 112.91 191.25 113.23 191.03 113.38C190.23 113.92 189.69 114.73 188.97 115.37C188.62 115.68 188.18 115.96 187.72 116.06C187.25 116.17 186.79 116.07 186.32 115.97C185.72 115.84 185.12 115.74 184.52 115.63C184.19 115.56 183.86 115.52 183.53 115.47C184.32 114.33 187.91 109.45 188.9 108.12C189.35 107.53 189.76 106.91 190.22 106.32C190.69 105.7 191.13 105.04 191.65 104.46C191.91 104.16 192.69 103.31 192.93 103.18C193.03 103.13 193.63 103.15 193.75 103.14C193.9 103.12 194.13 103.2 194.28 103.22C195.1 103.35 195.93 103.48 196.74 103.63C197.54 103.77 198.33 103.97 199.1 104.21C200.11 104.54 201.29 105.06 201.68 106.14C201.85 106.61 201.84 107.11 201.84 107.6C201.84 108.14 201.79 108.66 201.63 109.17C201.36 109.98 201.07 110.77 200.85 111.6C200.76 111.99 199.97 113.69 200.86 113.66C201.37 113.65 201.7 112.97 201.98 112.64C202.29 112.28 202.53 111.86 202.75 111.43C203.18 110.6 203.76 109.85 204.3 109.08C204.73 108.47 205.12 107.81 205.51 107.17C205.96 106.44 206.42 105.69 206.65 104.86C206.77 104.45 206.87 103.9 206.52 103.56C206.22 103.28 203.88 103 203.15 102.88C202.33 102.74 201.51 102.59 200.69 102.46C200.36 102.41 192.94 101.1 191.95 100.9C191.08 100.73 185.8 99.53 185.37 99.38C185.14 99.3 184.68 99.07 184.52 99.4C184.48 99.49 184.46 99.59 184.47 99.68C184.49 99.71 184.53 99.85 184.56 99.9C184.68 100.09 184.88 100.48 184.9 100.61C184.94 100.83 184.95 101.06 184.93 101.29C184.9 101.67 184.71 101.87 184.49 102.15C184.07 102.7 183.63 103.24 183.22 103.8C182.29 105.06 181.45 106.37 180.58 107.66C179.62 109.06 178.56 110.4 177.63 111.82C176.94 112.87 176.32 113.99 175.71 115.09C175.25 115.92 174.7 116.67 174.18 117.46C173.77 118.09 173.38 118.74 173.01 119.39C172.57 120.17 172.11 120.94 171.54 121.63C171.18 122.06 168.22 126.93 167.91 127.56C167.76 127.86 167.61 128.15 167.43 128.44C167.25 128.75 167.08 129.19 166.73 129.35C166.27 129.55 165.79 129.74 165.32 129.91C165.04 130.01 164.72 130.09 164.51 130.31C164.22 130.63 164.33 131.05 164.71 131.22C165.32 131.49 166.09 131.49 166.75 131.56C167.44 131.63 168.12 131.75 168.8 131.89C170.07 132.14 179.09 133.65 180.68 133.84C181.37 133.92 182.06 134.01 182.74 134.15C183.47 134.3 184.2 134.38 184.91 134.57C185.84 134.82 186.77 135.03 187.71 135.21C188.06 135.28 188.39 135.24 188.7 135.04C189 134.85 189.6 133.75 189.73 133.48C189.93 133.1 190.98 130.86 191.4 130.16C191.89 129.36 193.74 126.1 193.77 125.82L193.77 125.82Z" fill="#000000" fill-opacity="1.000000" fill-rule="evenodd"/>
</svg>
