<svg width="140.000000" height="144.000000" viewBox="0 0 140 144" fill="none" xmlns="http://www.w3.org/2000/svg" xmlns:xlink="http://www.w3.org/1999/xlink">
	<desc>
			Created with Pixso.
	</desc>
	<defs/>
	<path id="Vector" d="M130.84 47.99L124.68 25.2L99.33 32.1L97.11 17.73L92.43 27.04C91.99 27.04 91.55 27.03 91.12 26.99L77.11 0L56.27 10.88L69.41 14L54.55 21.76L51.56 21.27C50.34 20.35 48.89 19.6 47.22 19.04L31.03 13.57L24.97 5.01L12.26 43.18L-1 48.55L7.99 54.07L16.11 74.22L13.46 84.46L28.04 78.55L14.56 89.2L24.74 91.98L38.14 109.05L38.26 113.5C38.15 113.65 38.04 113.79 37.94 113.95C36.37 116.25 35.35 118.65 34.92 121.1C34.49 123.54 34.57 125.97 35.16 128.32C35.73 130.62 36.77 132.8 38.24 134.82C39.67 136.79 41.51 138.55 43.68 140.05C46.2 141.78 48.7 142.95 51.13 143.5C53.59 144.07 55.96 144.15 58.17 143.73C59.23 143.54 60.27 143.23 61.28 142.83C62.31 142.41 63.3 141.88 64.22 141.25C65.98 140.05 67.49 138.53 68.69 136.77C70.85 133.61 71.95 130.43 71.93 127.33C71.93 126.88 71.91 126.43 71.86 125.98L75.21 127.29L73 130.54L83.15 130.13L100.75 129.43L94.29 121.41L94.12 116.91L94.47 116.9L102.13 119.78L101.76 110.78L105.2 114.34L105.75 115.71L103.12 125.66L132.65 113.86C133.22 113.78 133.78 113.62 134.32 113.41C136.24 112.63 137.66 111.19 138.43 109.26C139.18 107.37 139.18 105.4 138.44 103.56C138.07 102.64 137.53 101.8 136.83 101.08C136.14 100.38 135.32 99.82 134.41 99.43C133.54 99.06 132.6 98.85 131.65 98.82C130.52 98.78 129.39 99.02 128.36 99.48L126.89 95.75C127.48 95.67 128.06 95.52 128.62 95.29C130.36 94.59 131.69 93.33 132.46 91.8L133.26 88.61C133.27 87.61 133.08 86.62 132.7 85.69C131.55 82.83 128.89 81.13 126.01 81.12L127.05 64.68L132.3 63.25L129.49 61C129.69 60.66 129.88 60.31 130.07 59.93C130.95 58.19 131.39 56.15 131.39 53.89L131.4 53.88C131.4 52.88 131.2 51.89 130.81 50.97C130.44 50.08 129.89 49.27 129.21 48.59C128.52 47.9 127.71 47.35 126.82 46.96C125.88 46.54 124.84 46.33 123.76 46.33C122.95 46.32 122.14 46.45 121.37 46.69L119.66 40.39L130.84 47.99L130.84 47.99Z" fill="#000000" fill-opacity="1.000000" fill-rule="nonzero"/>
	<path id="Vector" d="M65.42 121.54C67.02 123.43 67.83 125.55 67.84 127.9C67.85 130.25 66.98 132.71 65.23 135.27C64.29 136.65 63.09 137.85 61.71 138.79C60.32 139.75 58.76 140.39 57.04 140.71C55.32 141.03 53.46 140.96 51.47 140.51C49.48 140.05 47.41 139.08 45.27 137.6C43.43 136.33 41.91 134.88 40.71 133.23C39.52 131.59 38.68 129.84 38.22 127.99C37.75 126.15 37.7 124.25 38.04 122.31C38.38 120.37 39.19 118.46 40.47 116.58C40.89 115.97 41.32 115.43 41.77 114.96C42.2 114.52 42.64 114.09 43.1 113.67C43.53 113.28 43.93 112.92 44.28 112.59C44.64 112.26 44.93 111.93 45.15 111.6C45.34 111.32 45.49 110.98 45.59 110.56C45.69 110.14 45.69 109.81 45.6 109.56L55.55 116.42C54.68 116.08 53.69 115.81 52.62 115.63C51.57 115.44 50.51 115.38 49.45 115.45C48.44 115.52 47.45 115.75 46.52 116.14C45.61 116.54 44.88 117.13 44.35 117.91C43.83 118.66 43.54 119.55 43.5 120.46C43.45 121.39 43.66 122.39 44.14 123.44C44.61 124.49 45.35 125.57 46.37 126.68C47.39 127.8 48.71 128.91 50.33 130.03C51.69 130.96 53.04 131.71 54.36 132.24C55.68 132.78 56.91 133.1 58.05 133.2C59.19 133.29 60.23 133.16 61.16 132.8C62.09 132.44 62.86 131.81 63.47 130.93C64.44 129.51 64.93 128.1 64.94 126.69C64.95 125.28 64.48 123.79 63.53 122.2L65.42 121.54Z" fill="#FFFFFF" fill-opacity="1.000000" fill-rule="nonzero"/>
	<path id="Vector" d="M80.32 103.38C80.79 105.6 80.9 107.72 80.67 109.71C80.43 111.71 79.88 113.49 79.03 115.07C78.17 116.65 77.02 117.98 75.58 119.08C74.14 120.16 72.43 120.92 70.45 121.33C68.48 121.75 66.61 121.75 64.85 121.34C63.09 120.92 61.5 120.17 60.08 119.07C58.67 117.97 57.45 116.56 56.43 114.83C55.4 113.09 54.66 111.12 54.19 108.89C53.72 106.63 53.6 104.51 53.84 102.51C54.08 100.52 54.62 98.73 55.48 97.15C56.33 95.58 57.51 94.22 58.93 93.17C60.38 92.09 62.09 91.35 64.07 90.93C66.04 90.51 67.91 90.51 69.66 90.91C71.4 91.29 73.02 92.06 74.43 93.15C75.84 94.25 77.06 95.67 78.08 97.4C79.1 99.13 79.85 101.12 80.32 103.38L80.32 103.38ZM63.17 107C63.53 108.71 63.94 110.25 64.42 111.61C64.89 112.97 65.41 114.11 65.96 115.03C66.51 115.95 67.1 116.62 67.72 117.04C68.34 117.45 68.98 117.59 69.63 117.45C70.29 117.31 70.82 116.93 71.22 116.3C71.61 115.66 71.89 114.81 72.04 113.75C72.19 112.68 72.21 111.42 72.1 109.99C71.98 108.55 71.74 106.98 71.38 105.26C71.02 103.52 70.6 101.97 70.12 100.6C69.65 99.24 69.13 98.1 68.56 97.19C67.99 96.27 67.4 95.6 66.78 95.19C66.16 94.77 65.52 94.63 64.86 94.77C64.2 94.91 63.68 95.29 63.28 95.93C62.88 96.56 62.62 97.41 62.48 98.48C62.34 99.54 62.33 100.79 62.45 102.23C62.56 103.66 62.8 105.25 63.17 107Z" fill="#FFFFFF" fill-opacity="1.000000" fill-rule="nonzero"/>
	<path id="Vector" d="M97.42 102.1L89.4 102.42L89.68 109.37L94.4 109.19L97.51 107.72L97.81 115L94.59 113.79L89.87 113.98L90.25 123.33L92.91 126.64L79.62 127.17L82 123.66L81.08 101.05L78.42 97.74L100.38 96.86L100.74 105.52L97.42 102.1ZM121.54 87.4L118.31 84.65L95.83 83.19L92.28 85.5L93.69 63.2L102.3 63.76L98.58 66.7L98.05 75.03L104.97 75.48L105.27 70.69L104.14 67.48L111.37 67.95L109.85 70.99L109.54 75.78L117.1 76.27L117.62 67.94L114.29 64.53L122.95 65.1L121.54 87.4Z" fill="#FFFFFF" fill-opacity="1.000000" fill-rule="nonzero"/>
	<path id="Vector" d="M108.02 120.15L109.11 116.04L100.76 95.02L97.16 92.78L117.83 84.52L121.03 92.57L116.77 90.45L109.06 93.53L111.63 100L116.06 98.23L118.47 95.83L121.15 102.6L117.76 102.52L113.33 104.29L116.14 111.35L123.85 108.27L125.48 103.8L128.7 111.89L108.02 120.15ZM76.53 73.41L74.7 81.26L81.44 82.85L82.52 78.23L81.95 74.83L89 76.5L86.99 79.29L85.91 83.91L94.98 86.06L98.86 84.37L95.83 97.38L93.1 94.13L71.16 88.94L67.28 90.63L72.29 69.14L80.69 71.12L76.53 73.41ZM41.16 79.97L34.43 85.29L39.01 91.13L42.97 87.99L44.74 84.78L49.53 90.88L46 91.86L42.04 94.99L48.2 102.83L52.56 104.02L41.4 112.84L41.27 108.31L26.39 89.34L22.03 88.15L40.44 73.58L46.14 80.85L41.16 79.97Z" fill="#FFFFFF" fill-opacity="1.000000" fill-rule="nonzero"/>
	<path id="Vector" d="M59.04 93.19L58.1 88.75L40.11 72.8L35.57 72.39L45.19 61.44L46.19 65.88L64.19 81.83L68.66 82.24L59.04 93.19Z" fill="#FFFFFF" fill-opacity="1.000000" fill-rule="nonzero"/>
	<path id="Vector" d="M75.88 46.99C76.15 48.14 76.23 49.24 76.13 50.29C76.03 51.34 75.76 52.32 75.34 53.21C74.92 54.08 74.36 54.88 73.67 55.55C73.01 56.21 72.23 56.75 71.39 57.16L71.47 57.49C71.93 57.48 72.42 57.58 72.92 57.78C73.42 57.98 73.89 58.22 74.35 58.5C74.76 58.76 75.16 59.04 75.53 59.36C75.87 59.65 76.11 59.88 76.25 60.05L79.1 64.02C79.62 64.67 80.24 65.11 80.97 65.35C81.69 65.58 82.52 65.47 83.45 65.01C83.33 65.61 83.09 66.15 82.73 66.62C82.37 67.1 81.93 67.51 81.43 67.84C80.92 68.18 80.37 68.47 79.8 68.71C79.22 68.95 78.67 69.13 78.17 69.25C76.61 69.62 75.26 69.71 74.11 69.53C72.96 69.34 71.9 68.64 70.94 67.42L66.78 61.94C66.39 61.43 65.86 61.03 65.19 60.75C64.52 60.47 63.89 60.4 63.28 60.55L65 67.82L68.46 70.74L54.6 74.03L56.38 69.87L50.83 46.37L47.37 43.45L60.33 40.38C62.2 39.93 64 39.74 65.73 39.8C67.45 39.87 69.01 40.18 70.4 40.74C71.79 41.3 72.96 42.12 73.92 43.17C74.87 44.22 75.53 45.49 75.88 46.99ZM67.03 49.35C66.74 48.1 66.3 47.13 65.71 46.42C65.13 45.72 64.48 45.21 63.77 44.89C63.05 44.57 62.32 44.43 61.58 44.45C60.83 44.48 60.16 44.61 59.58 44.85L62.23 56.05C63.04 56.06 63.79 55.92 64.47 55.64C65.15 55.37 65.75 54.93 66.21 54.37C66.68 53.81 67 53.11 67.17 52.27C67.34 51.44 67.29 50.46 67.03 49.35L67.03 49.35Z" fill="#FFFFFF" fill-opacity="1.000000" fill-rule="nonzero"/>
	<path id="Vector" d="M100.63 52.51C100.9 54.23 100.77 55.75 100.25 57.08C99.72 58.4 98.96 59.55 97.95 60.52C96.94 61.49 95.78 62.26 94.45 62.85C93.12 63.44 91.79 63.83 90.47 64.04C89.37 64.21 88.35 64.31 87.4 64.34C86.52 64.37 85.65 64.38 84.78 64.37C83.98 64.36 83.24 64.35 82.57 64.34C81.89 64.33 81.29 64.36 80.78 64.44C80.55 64.48 80.31 64.6 80.06 64.8C79.82 65.01 79.61 65.23 79.45 65.49L77.26 51.25C77.72 52.52 78.38 53.7 79.21 54.76C80.05 55.84 80.98 56.76 81.99 57.54C83 58.31 84.03 58.9 85.08 59.3C86.14 59.7 87.13 59.83 88.06 59.68C88.66 59.59 89.24 59.46 89.81 59.29C90.36 59.12 90.85 58.91 91.27 58.64C91.69 58.38 92.01 58.05 92.23 57.65C92.45 57.25 92.52 56.78 92.43 56.23C92.3 55.35 91.95 54.58 91.38 53.92C90.82 53.27 90.1 52.71 89.22 52.24C88.34 51.78 87.33 51.39 86.19 51.07C84.99 50.73 83.77 50.46 82.54 50.24C80.61 49.88 78.9 49.06 77.44 47.79C75.97 46.53 75.05 44.68 74.67 42.25C74.46 40.89 74.58 39.61 75.02 38.42C75.47 37.22 76.16 36.13 77.1 35.16C78.04 34.19 79.19 33.37 80.56 32.71C81.92 32.05 83.43 31.6 85.08 31.34C86.79 31.08 88.37 31.02 89.82 31.15C91.28 31.29 92.51 31.29 93.51 31.13C93.74 31.1 93.98 30.98 94.22 30.77C94.47 30.57 94.66 30.34 94.79 30.09L96.59 41.75C96.17 40.79 95.57 39.91 94.77 39.13C93.98 38.34 93.08 37.67 92.11 37.12C91.16 36.59 90.14 36.19 89.08 35.95C88.04 35.71 87.06 35.66 86.16 35.8C85 35.98 84.01 36.37 83.19 36.96C82.37 37.55 82.03 38.25 82.15 39.06C82.25 39.68 82.66 40.17 83.37 40.56C84.09 40.95 84.98 41.3 86.04 41.62C87.09 41.93 88.26 42.25 89.53 42.57C90.79 42.88 92.02 43.28 93.23 43.76C95.31 44.6 96.97 45.7 98.22 47.05C99.47 48.39 100.27 50.21 100.63 52.51ZM40.34 57.81C41.74 61.3 41.62 64.4 39.97 67.11C38.31 69.82 35.29 72.06 30.9 73.83L18.33 78.93L19.47 74.55L10.45 52.16L6.6 49.8L18.4 45.01C19.55 44.55 20.81 44.11 22.19 43.69C23.57 43.27 24.9 43.02 26.19 42.94C27.48 42.86 28.64 43.01 29.67 43.39C30.7 43.77 31.44 44.52 31.9 45.64C32.13 46.2 32.23 46.8 32.19 47.41C32.15 48 32.01 48.59 31.77 49.14C31.53 49.71 31.2 50.23 30.79 50.7C30.38 51.18 29.9 51.61 29.38 51.97L29.45 52.15C30.02 51.99 30.81 51.93 31.81 51.99C32.82 52.04 33.86 52.27 34.94 52.68C36.03 53.09 37.06 53.71 38.04 54.53C39.02 55.34 39.78 56.44 40.34 57.81ZM23.63 49.88C23.46 49.46 23.19 49.13 22.84 48.9C22.48 48.67 22.08 48.53 21.63 48.46C21.18 48.4 20.71 48.43 20.22 48.56C19.73 48.69 19.25 48.88 18.79 49.14L20.68 53.83C21.8 53.45 22.65 52.9 23.24 52.19C23.83 51.47 23.96 50.71 23.63 49.88ZM31.93 61.58C31.6 60.75 31.12 59.98 30.52 59.32C29.92 58.64 29.19 58.1 28.37 57.72C27.55 57.34 26.64 57.17 25.62 57.19C24.61 57.21 23.53 57.51 22.39 58.08L27.64 71.12C28.85 70.63 29.83 70.02 30.58 69.29C31.32 68.56 31.85 67.78 32.16 66.93C32.46 66.08 32.59 65.18 32.54 64.28C32.49 63.35 32.28 62.44 31.93 61.58Z" fill="#FFFFFF" fill-opacity="1.000000" fill-rule="nonzero"/>
	<path id="Vector" d="M119.28 36.6L114.6 37.87L120.4 59.33L123.96 62.18L110.12 65.94L111.8 61.66L106 40.21L101.32 41.48L98.7 46.98L96.06 37.2L121.66 30.24L124.31 40.02L119.28 36.6ZM28.28 17.22L45.6 23.06C47.34 23.64 48.72 24.45 49.76 25.47C50.79 26.49 51.54 27.6 52 28.79C52.47 29.99 52.69 31.2 52.68 32.42C52.67 33.64 52.5 34.73 52.18 35.7L51.31 38.31C50.79 39.86 50.12 41.24 49.29 42.45C48.45 43.66 47.45 44.63 46.28 45.35C45.11 46.08 43.76 46.51 42.24 46.63C40.71 46.76 39.02 46.51 37.16 45.88L20.6 40.29L16.31 41.7L20.95 27.76L23.53 31.48L40.48 37.2C41.59 37.57 42.55 37.77 43.35 37.8C44.15 37.83 44.83 37.71 45.38 37.45C45.92 37.19 46.39 36.8 46.72 36.29C47.06 35.79 47.35 35.18 47.59 34.46C47.8 33.81 47.92 33.18 47.93 32.58C47.94 31.99 47.8 31.41 47.52 30.89C47.23 30.36 46.77 29.87 46.15 29.42C45.53 28.96 44.7 28.56 43.68 28.22L26.54 22.44L22.26 23.84L25.69 13.54L28.28 17.22L28.28 17.22ZM134.61 105.49C135 106.46 135 107.45 134.6 108.47C134.19 109.48 133.5 110.19 132.5 110.59C132.02 110.79 131.51 110.88 131 110.85C130.49 110.84 130 110.72 129.54 110.52C129.08 110.31 128.66 110.02 128.3 109.67C127.93 109.31 127.63 108.88 127.44 108.4C127.25 107.92 127.16 107.4 127.18 106.89C127.2 106.38 127.3 105.88 127.48 105.41C127.67 104.94 127.95 104.52 128.3 104.15C128.65 103.78 129.08 103.49 129.56 103.29C130.04 103.1 130.55 103.01 131.06 103.03C131.57 103.05 132.07 103.16 132.54 103.36C133.01 103.56 133.43 103.85 133.78 104.21C134.14 104.58 134.42 105.01 134.61 105.49L134.61 105.49Z" fill="#FFFFFF" fill-opacity="1.000000" fill-rule="nonzero"/>
	<path id="Vector" d="M80.67 28.13L78.43 23.81L58.81 34.06L56.8 38.16L50.17 25.38L54.69 26.12L74.31 15.87L72.07 11.55L66.16 10.15L75.1 5.48L87.37 29.12L78.43 33.8L80.67 28.13ZM127.3 54.44C127.3 56.15 126.98 57.62 126.36 58.86C125.74 60.11 125.08 61.07 124.39 61.76C124.23 61.92 124.03 62 123.8 62C123.64 62 123.51 61.94 123.41 61.83C123.31 61.71 123.3 61.54 123.36 61.31C123.46 61.05 123.57 60.73 123.68 60.35C123.8 59.97 123.86 59.64 123.86 59.35C123.86 59.02 123.79 58.74 123.66 58.51C123.53 58.28 123.24 58.2 122.78 58.26C121.77 58.38 120.94 58.06 120.29 57.29C119.64 56.52 119.31 55.56 119.32 54.41C119.32 53.36 119.7 52.45 120.45 51.68C121.2 50.92 122.15 50.53 123.29 50.54C123.88 50.54 124.42 50.65 124.91 50.87C125.38 51.07 125.81 51.36 126.18 51.73C126.53 52.08 126.81 52.5 127.01 52.96C127.2 53.43 127.3 53.92 127.3 54.44ZM128.87 87.63C129.65 89.56 128.75 91.69 126.79 92.48C124.85 93.27 122.69 92.38 121.92 90.45C121.16 88.56 122.1 86.42 124.03 85.63C126 84.84 128.11 85.74 128.87 87.63L128.87 87.63ZM122.79 90.1C123.4 91.61 125 92.36 126.52 91.74C128.01 91.14 128.62 89.5 128.02 88C127.41 86.49 125.82 85.71 124.31 86.32C122.81 86.93 122.19 88.61 122.79 90.1ZM125.59 91.03L124.81 91.35L123.44 87.95C123.72 87.76 124.14 87.55 124.69 87.32C125.34 87.06 125.66 87.05 125.97 87.09C126.22 87.16 126.47 87.38 126.6 87.71C126.75 88.08 126.58 88.49 126.22 88.78L126.24 88.82C126.62 88.81 126.9 88.98 127.19 89.4C127.5 89.88 127.65 90.06 127.78 90.15L126.94 90.49C126.78 90.41 126.6 90.12 126.33 89.77C126.12 89.42 125.85 89.34 125.42 89.52L125.05 89.67L125.6 91.03L125.59 91.03ZM124.83 89.1L125.21 88.95C125.64 88.77 125.93 88.48 125.79 88.13C125.66 87.82 125.35 87.71 124.86 87.91C124.71 87.96 124.57 88.04 124.44 88.12L124.83 89.1Z" fill="#FFFFFF" fill-opacity="1.000000" fill-rule="nonzero"/>
</svg>
